<svg xmlns="http://www.w3.org/2000/svg" xmlns:xlink="http://www.w3.org/1999/xlink" viewBox="0 0 64 64"><defs><style>.cls-1{fill:url(#linear-gradient);}.cls-2{fill:#cba07a;}.cls-3{fill:#231f20;}</style><linearGradient id="linear-gradient" x1="32" y1="43" x2="32" y2="21.01" gradientUnits="userSpaceOnUse"><stop offset="0" stop-color="#d1a788"/><stop offset="1" stop-color="#f2d3b8"/></linearGradient></defs><title>baguette</title><g id="baguette"><path class="cls-1" d="M63,37c0,5-13.88,6-31,6S1,42,1,37c0-8,23.29-22.09,47-13.08C57,27.31,63,33,63,37Z"/><path class="cls-2" d="M63,37c0,5-13.88,6-31,6S1,42,1,37a4.43,4.43,0,0,1,.09-.87C4.75,39.3,17.2,40,32,40s27.25-.7,30.91-3.87A4.43,4.43,0,0,1,63,37Z"/><path class="cls-2" d="M34,21.05c0,11.91-4,11.92-4,0A38.12,38.12,0,0,1,34,21.05Z"/><path class="cls-2" d="M48,23.92c-.47,10-3.78,9.17-3.94-1.3C45.37,23,46.69,23.44,48,23.92Z"/><path class="cls-2" d="M20,22.62c-.16,10.47-3.47,11.35-3.94,1.3C17.31,23.44,18.63,23,20,22.62Z"/><path class="cls-3" d="M15.7,23C6.6,26.4,0,32.3,0,37c0,5,9,7,32,7s32-2,32-7C64,28.05,39.76,13.83,15.7,23Zm31.21,1.63a17.08,17.08,0,0,1-.91,5,18.71,18.71,0,0,1-1-5.62C45.17,24,45.67,24.16,46.91,24.61ZM33,22a20.76,20.76,0,0,1-1,6.59A20.76,20.76,0,0,1,31,22C31.67,22,32.09,22,33,22ZM19,24A18.71,18.71,0,0,1,18,29.6a17.08,17.08,0,0,1-.91-5C17.72,24.38,18.23,24.21,19,24ZM32,42c-7.42,0-30,0-30-5,0-3.15,4.89-8.23,13.14-11.64.27,3.29,1,6.64,2.86,6.64,2.36,0,2.87-5.51,3-8.59A44.26,44.26,0,0,1,29,22.12c.08,3,.55,8.88,3,8.88s2.9-5.87,3-8.88A44.26,44.26,0,0,1,43,23.41c.1,3.08.61,8.59,3,8.59,1.86,0,2.59-3.35,2.86-6.64C57.11,28.76,62,33.85,62,37,62,42,39.42,42,32,42Z"/></g></svg>