<svg xmlns="http://www.w3.org/2000/svg" xmlns:xlink="http://www.w3.org/1999/xlink" viewBox="0 0 64 64"><defs><style>.cls-1{fill:#77cacb;}.cls-2{fill:#d7f1ff;}.cls-3{fill:url(#linear-gradient);}.cls-4{fill:url(#linear-gradient-2);}.cls-5{fill:url(#linear-gradient-3);}.cls-6{fill:url(#linear-gradient-4);}.cls-7{fill:url(#linear-gradient-5);}.cls-8{fill:url(#linear-gradient-6);}.cls-9{fill:url(#linear-gradient-7);}.cls-10{fill:url(#linear-gradient-8);}.cls-11{fill:url(#linear-gradient-9);}.cls-12{fill:#cf4055;}.cls-13{fill:#f6b756;}.cls-14{fill:#d861b0;}.cls-15{fill:#7ece67;}.cls-16{fill:#8a6762;}.cls-17{fill:#231f20;}</style><linearGradient id="linear-gradient" x1="32" y1="50" x2="32" y2="40" gradientUnits="userSpaceOnUse"><stop offset="0" stop-color="#9dd5df"/><stop offset="1" stop-color="#c3e1f5"/></linearGradient><linearGradient id="linear-gradient-2" x1="20" y1="58.02" x2="44.01" y2="58.02" xlink:href="#linear-gradient"/><linearGradient id="linear-gradient-3" x1="32" y1="36" x2="32" y2="26" gradientUnits="userSpaceOnUse"><stop offset="0" stop-color="#fbcc88"/><stop offset="1" stop-color="#ffe5c3"/></linearGradient><linearGradient id="linear-gradient-4" x1="32" y1="32" x2="32" y2="19.41" gradientUnits="userSpaceOnUse"><stop offset="0" stop-color="#9b756d"/><stop offset="1" stop-color="#bc9388"/></linearGradient><linearGradient id="linear-gradient-5" x1="32" y1="21" x2="32" y2="13" gradientUnits="userSpaceOnUse"><stop offset="0" stop-color="#da5466"/><stop offset="1" stop-color="#f4929c"/></linearGradient><linearGradient id="linear-gradient-6" x1="48.76" y1="30.83" x2="48.76" y2="20.39" gradientUnits="userSpaceOnUse"><stop offset="0" stop-color="#8cdd79"/><stop offset="1" stop-color="#d4e6b6"/></linearGradient><linearGradient id="linear-gradient-7" x1="47" y1="22" x2="47" y2="14" xlink:href="#linear-gradient-5"/><linearGradient id="linear-gradient-8" x1="15.25" y1="30.83" x2="15.25" y2="20.39" gradientUnits="userSpaceOnUse"><stop offset="0" stop-color="#d96bb0"/><stop offset="1" stop-color="#e49fc6"/></linearGradient><linearGradient id="linear-gradient-9" x1="17" y1="22" x2="17" y2="14" xlink:href="#linear-gradient-5"/></defs><title>Banana Split</title><g id="Banana_Split" data-name="Banana Split"><path class="cls-1" d="M38,56c-4.07-2.71-3.61-6.32-1-7H27c2.58.68,3.08,4.28-1,7Z"/><path class="cls-2" d="M59,40H5a2,2,0,0,1,0-4H59A2,2,0,0,1,59,40Z"/><path class="cls-3" d="M59,40c0,5.52-12.09,10-27,10S5,45.52,5,40"/><path class="cls-1" d="M58.91,40.76C57.87,45.93,46.22,50,32,50S6.13,45.93,5.09,40.76C12.79,50.37,51.19,50.39,58.91,40.76Z"/><path class="cls-4" d="M24,56H40a4,4,0,0,1,4,4c0,.1,1.09,0-24,0A4,4,0,0,1,24,56Z"/><path class="cls-1" d="M44,60H20a4,4,0,0,1,.54-2H43.46A4,4,0,0,1,44,60Z"/><path class="cls-5" d="M63,29c0,2.88-5.85,5.82-8.75,7H9.75C6.93,34.85,1,31.88,1,29s1-3,4-3c2.8,0,8.46,3.12,16.34,4.83C41.43,35.22,54,26,59,26,62,26,63,26,63,29Z"/><path class="cls-6" d="M42.66,30.83a49.15,49.15,0,0,1-21.32,0c-1.51-5.14,2.11-10,7.47-11.42a4,4,0,0,0,6.38,0C40.6,20.81,44.16,25.73,42.66,30.83Z"/><circle class="cls-7" cx="32" cy="17" r="4"/><path class="cls-8" d="M40.05,22a11.78,11.78,0,0,1,3.75-1.64,4,4,0,0,0,6.4,0,10.31,10.31,0,0,1,7.26,5.83c-3.1.71-8,3.14-14.8,4.61A8.59,8.59,0,0,0,40.05,22Z"/><circle class="cls-9" cx="47" cy="18" r="4"/><path class="cls-10" d="M21.34,30.83c-6.76-1.47-11.7-3.9-14.8-4.61a10.28,10.28,0,0,1,7.26-5.83,4,4,0,0,0,6.4,0A11.78,11.78,0,0,1,24,22,8.62,8.62,0,0,0,21.34,30.83Z"/><circle class="cls-11" cx="17" cy="18" r="4"/><circle class="cls-11" cx="17" cy="18" r="4"/><path class="cls-12" d="M32,21a4,4,0,0,1-3.87-5,4,4,0,0,0,7.74,0A4,4,0,0,1,32,21Z"/><path class="cls-12" d="M47,22a4,4,0,0,1-3.87-5,4,4,0,0,0,7.74,0A4,4,0,0,1,47,22Z"/><path class="cls-12" d="M17,22a4,4,0,0,1-3.87-5,4,4,0,0,0,7.74,0A4,4,0,0,1,17,22Z"/><path class="cls-13" d="M58.35,34a31.41,31.41,0,0,1-4.1,2H9.75a31.41,31.41,0,0,1-4.1-2Z"/><path class="cls-14" d="M21.34,30.83c-6.76-1.47-11.7-3.9-14.8-4.61a8,8,0,0,1,1-1.81c3.16.84,7.56,2.93,13.47,4.29A8,8,0,0,0,21.34,30.83Z"/><path class="cls-15" d="M57.46,26.22c-3.1.71-8,3.14-14.8,4.61A8,8,0,0,0,43,28.7c6.21-1.45,10.33-3.47,13.47-4.29A8,8,0,0,1,57.46,26.22Z"/><path class="cls-16" d="M43,28.7a8,8,0,0,1-.33,2.13,49.15,49.15,0,0,1-21.32,0A8,8,0,0,1,21,28.7,48,48,0,0,0,43,28.7Z"/><path class="cls-17" d="M64,29c0-4-2.1-4-5-4a7,7,0,0,0-1,.09,11.07,11.07,0,0,0-6.36-5.3,5,5,0,0,0-3.84-6.71C47,6.83,43.76,4.32,43.6,4.2a1,1,0,0,0-1.21,1.6c.13.09,2.69,2.15,3.42,7.36a5,5,0,0,0-3.47,6.62,13,13,0,0,0-2.2,1,12.16,12.16,0,0,0-3.5-2,5,5,0,0,0-3.82-6.75C32,5.83,28.76,3.32,28.6,3.2a1,1,0,0,0-1.21,1.6c.13.09,2.69,2.15,3.42,7.36a5,5,0,0,0-3.45,6.67,12,12,0,0,0-3.5,2,13,13,0,0,0-2.2-1,5,5,0,0,0-3.84-6.7C17,6.83,13.76,4.32,13.6,4.2a1,1,0,0,0-1.21,1.6c.13.09,2.69,2.15,3.42,7.36a5,5,0,0,0-3.47,6.63A11.07,11.07,0,0,0,6,25.09,7,7,0,0,0,5,25c-2.9,0-5,0-5,4,0,1.91,2,4,5.37,6C1.31,35,1,39.83,4.09,40.84c.92,5,10.06,9,22.31,9.95a1,1,0,0,0,.37.18c2.32.56,1.05,2.76-1.05,4H24c-4.64,0-6.28,6-4,6H44c2.28,0,.65-6-4-6H38.28C36.76,54.08,36,53.06,36,52c0-.83,1.28-1,1.61-1.24,12.24-.94,21.38-4.93,22.3-9.95C63,39.86,62.77,35,58.63,35,62.05,33,64,30.91,64,29ZM46,15.19c0,.27,0,.53,0,.81a1,1,0,0,0,2,0c0-.29,0-.55,0-.82a3,3,0,1,1-2,0Zm4.55,6.34a9.46,9.46,0,0,1,5.49,4c-3,.92-6.92,2.67-12.09,3.95a9.47,9.47,0,0,0-2.29-7.26,10.64,10.64,0,0,1,1.82-.73A5,5,0,0,0,50.53,21.53ZM22.18,30c-.91-4.26,2-8.06,6.32-9.43a5,5,0,0,0,7,0c4.3,1.36,7.23,5.16,6.32,9.43A48.13,48.13,0,0,1,22.18,30ZM31,14.19c0,.27,0,.53,0,.81a1,1,0,0,0,2,0c0-.29,0-.55,0-.82a3,3,0,1,1-2,0Zm-15,1c0,.27,0,.53,0,.81a1,1,0,0,0,2,0c0-.29,0-.55,0-.82a3,3,0,1,1-2,0Zm-2.51,6.34a5,5,0,0,0,7.07,0,10.64,10.64,0,0,1,1.82.73,9.44,9.44,0,0,0-2.29,7.26C14.88,28.23,11,26.49,8,25.57A9.46,9.46,0,0,1,13.47,21.53ZM42.83,59H21.17A3,3,0,0,1,24,57H40A3,3,0,0,1,42.83,59Zm-7.67-4H28.84a4,4,0,0,0,.92-4c1.62,0,2.83,0,4.48,0A4,4,0,0,0,35.16,55ZM32,49C17.64,49,7.63,45,6.19,41H57.81C56.37,45,46.36,49,32,49ZM59,39H5a1,1,0,0,1,0-2H59A1,1,0,0,1,59,39Zm-5-4H10C4.13,32.58,2,30.09,2,29c0-2,0-2,3-2,1.22,0,3.18.71,5.66,1.62,16.12,5.87,26.54,5.87,42.68,0C55.82,27.71,57.78,27,59,27c3,0,3,0,3,2C62,30.09,59.87,32.58,54.05,35Z"/></g></svg>