<svg xmlns="http://www.w3.org/2000/svg" xmlns:xlink="http://www.w3.org/1999/xlink" viewBox="0 0 64 64"><defs><style>.cls-1{fill:url(#linear-gradient);}.cls-2{fill:#dd8b37;}.cls-3{fill:#fff2e3;}.cls-4{fill:#ffd39f;}.cls-5{fill:url(#linear-gradient-3);}.cls-6{fill:url(#linear-gradient-4);}.cls-7{fill:#231f20;}</style><linearGradient id="linear-gradient" x1="33.93" y1="62.32" x2="33.93" y2="1.68" gradientUnits="userSpaceOnUse"><stop offset="0" stop-color="#e9a254"/><stop offset="1" stop-color="#f4bb79"/></linearGradient><linearGradient id="linear-gradient-3" x1="1" y1="48.15" x2="20.27" y2="48.15" gradientUnits="userSpaceOnUse"><stop offset="0" stop-color="#fbcc88"/><stop offset="1" stop-color="#ffe5c3"/></linearGradient><linearGradient id="linear-gradient-4" x1="19.88" y1="27.91" x2="46.16" y2="27.91" xlink:href="#linear-gradient-3"/></defs><title>Banana</title><g id="Banana"><path class="cls-1" d="M24.56,58.47C41.09,68.39,55.15,56,55.15,56c1.65-1.65,5,0,6.61-1.65s1.65-3.31,0-5-3.22.82-7.44.82c-3.31,0-3.31-1.65-6.61-3.3S36.13,43.59,29.52,37C23.6,31.06,20.78,18.8,19.6,10.52c-.83-5.78-5-11.57-9.09-7.44C-1,14.62,5.8,47.2,24.56,58.47Z"/><path class="cls-1" d="M24.56,58.47C41.09,68.39,55.15,56,55.15,56c1.65-1.65,5,0,6.61-1.65s1.65-3.31,0-5-3.22.82-7.44.82c-3.31,0-3.31-1.65-6.61-3.3S36.13,43.59,29.52,37C23.6,31.06,20.78,18.8,19.6,10.52c-.83-5.78-5-11.57-9.09-7.44C-1,14.62,5.8,47.2,24.56,58.47Z"/><path class="cls-2" d="M61.76,54.34c-1.65,1.65-5,0-6.61,1.65,0,0-14.06,12.4-30.59,2.48A37.45,37.45,0,0,1,12.05,45.36L8.13,37.22A49.82,49.82,0,0,1,4.82,19,51.17,51.17,0,0,0,8.13,35.22l3.92,8.14A37.45,37.45,0,0,0,24.56,56.47C41.09,66.39,55.15,54,55.15,54c2-2,6.12.8,7.64-3.13C63.26,52,62.92,53.18,61.76,54.34Z"/><path class="cls-3" d="M23.91,27.73a.84.84,0,0,0-.18.15,12.4,12.4,0,0,0-3.3,9.92h0c-2.51-2.51-7.72.06-8.38,7.56-4.3-8.94-3.83-7.8-4.61-10.07C4,25.09,2.9,10.69,10.51,3.08,14.64-1,18.77,4.74,19.6,10.52,21.34,22.84,23.91,27,23.91,27.73Z"/><path class="cls-4" d="M20.27,37.65c-2.53-2.28-7.58.33-8.23,7.7-4.3-8.94-3.83-7.8-4.61-10.07,4.28-3,8.85-3.32,13-.13C20.26,36.87,20.51,37.89,20.27,37.65Z"/><path class="cls-4" d="M23.73,27.88a12.4,12.4,0,0,0-3.3,9.92,3.1,3.1,0,0,0-2.27-.95,15.22,15.22,0,0,1,4.15-13.68C23.87,28.34,24.15,27.46,23.73,27.88Z"/><path class="cls-5" d="M12,45.35a18.17,18.17,0,0,0,5.05,13.87,1.28,1.28,0,0,1-1.68,1.92C10.9,57.9,6.06,54.85,3.89,52.68c-5.78-5.78-1.65-9.92,1.66-13.22,4.75-4.75,9.91-6.46,14.72-1.81C17.69,35.38,12.69,38,12,45.35Z"/><path class="cls-6" d="M46.05,33.67c-.81,2.45-17.71-9.59-22.14-6h0a.84.84,0,0,0-.18.15c-4.13,4.14-3.3,9.92-3.3,9.92s-2.7-7.22,3.3-13.22c5.79-5.79,9.1-9.1,14.06-4.14S46.88,31.19,46.05,33.67Z"/><path class="cls-7" d="M62.47,48.67c-2.22-2.22-4.19.53-8.15.53-2.84,0-2.78-1.51-6.17-3.2s-11.51-3.31-17.92-9.73a25.27,25.27,0,0,1-5.05-8.09c2.63-.86,8.91,2.1,13.22,4.14C41.5,33.79,46.19,36.4,47,34c1.37-4.1-6.85-12.59-8.51-14.25-5.52-5.53-9.57-1.76-15,3.71a85,85,0,0,1-2.85-13.07C20.05,6.58,18,2,14.74.91c-6.14-2-16.15,12.93-7.8,36a26.24,26.24,0,0,0-2.1,1.87C1.6,42-3.31,46.9,3.19,53.39a61.48,61.48,0,0,0,7.52,5.68c4.55,3.13,4.47,3.31,5.45,3.31a2.28,2.28,0,0,0,1.67-3.83,18,18,0,0,1-4.72-9.74C19,57.13,27.52,63.29,37.77,63.29A30,30,0,0,0,55.85,56.7c1.19-1.19,4.58.38,6.62-1.66S64.52,50.72,62.47,48.67ZM37.08,21.15c5.48,5.48,8.14,10,8.09,11.83-4.35-.71-17.86-10.6-22.58-5.34a12.58,12.58,0,0,1,1.85-2.36C30.67,19.05,33,17.1,37.08,21.15ZM11.21,3.79C14.68.33,17.94,6,18.61,10.66a85.12,85.12,0,0,0,3.28,14.49A14.06,14.06,0,0,0,19,35.33c-2.63-1.67-6.09-2.29-10.32.34C5.14,25.69,3.71,11.29,11.21,3.79ZM16.36,60.3c-.25.25-.11.16-4.51-2.88A62.89,62.89,0,0,1,4.6,52C-.48,46.9,2.94,43.47,6.25,40.16c2.76-2.75,6.31-5.11,10-3.9-5.64,2.47-8.45,14.17.08,23.63A.3.3,0,0,1,16.36,60.3Zm44.69-6.67c-1.19,1.18-4.61-.35-6.56,1.61-.56.48-13.73,11.78-29.41,2.37a36.36,36.36,0,0,1-12-12.49c.71-6.22,4.67-8.39,6.55-6.71a35.1,35.1,0,0,0,5.11,6.69,1,1,0,0,0,1.45-1.37A34.88,34.88,0,0,1,21.4,37.5a12,12,0,0,1,2.2-7.93C30.45,45.16,44,44.77,49.79,49.48a6.14,6.14,0,0,0,4.53,1.72c4,0,5.8-2.05,6.73-1.12C62.31,51.34,62.31,52.37,61.05,53.63Z"/><path class="cls-7" d="M50.19,53.34a34.87,34.87,0,0,1-18-4.54,1,1,0,0,0-1,1.71,36.86,36.86,0,0,0,19,4.83A1,1,0,0,0,50.19,53.34Z"/></g></svg>