<svg xmlns="http://www.w3.org/2000/svg" xmlns:xlink="http://www.w3.org/1999/xlink" viewBox="0 0 64 64"><defs><style>.cls-1{fill:url(#linear-gradient);}.cls-2{fill:url(#linear-gradient-2);}.cls-3{fill:#dd8b37;}.cls-4{fill:#77cacb;}.cls-5{fill:url(#linear-gradient-3);}.cls-6{fill:#231f20;}</style><linearGradient id="linear-gradient" x1="32" y1="63" x2="32" y2="15" gradientUnits="userSpaceOnUse"><stop offset="0" stop-color="#9dd5df"/><stop offset="1" stop-color="#c3e1f5"/></linearGradient><linearGradient id="linear-gradient-2" x1="24" y1="58" x2="24" y2="15" gradientUnits="userSpaceOnUse"><stop offset="0" stop-color="#e9a254"/><stop offset="1" stop-color="#f4bb79"/></linearGradient><linearGradient id="linear-gradient-3" x1="24" y1="29" x2="24" y2="1.01" gradientUnits="userSpaceOnUse"><stop offset="0" stop-color="#d4d8e1"/><stop offset="1" stop-color="#f3f4f5"/></linearGradient></defs><title>Beer</title><g id="Beer"><path class="cls-1" d="M41,24V15H7V59a4,4,0,0,0,4,4H37a4,4,0,0,0,4-4V50c6.7,5,16,.08,16-8.29V32.3C57,23.92,47.7,19,41,24ZM53,42a6,6,0,0,1-10.24,4.24A5.94,5.94,0,0,1,41,42V32a6,6,0,0,1,12,0Z"/><path class="cls-2" d="M31.54,15H38V56a2,2,0,0,1-2,2H12a2,2,0,0,1-2-2V15h4.31"/><path class="cls-3" d="M38,53v3a2,2,0,0,1-2,2H12a2,2,0,0,1-2-2V53a2,2,0,0,0,2,2H36A2,2,0,0,0,38,53Z"/><path class="cls-4" d="M37,60H11a4,4,0,0,1-4-4v3a4,4,0,0,0,4,4H37a4,4,0,0,0,4-4V56A4,4,0,0,1,37,60Z"/><path class="cls-5" d="M31,15a2,2,0,0,0-2,2v6a2,2,0,0,1-4,0V22a2,2,0,0,0-4,0v5a2,2,0,0,1-4,0V17a2,2,0,0,0-2-2H10a5,5,0,0,1,4-8,3,3,0,0,1,4.57-2.54A6,6,0,0,1,30,7.14,4,4,0,0,1,35,11a4,4,0,0,1,4,4Z"/><path class="cls-6" d="M47,25a7,7,0,0,0-7,7V42a7,7,0,0,0,14,0V32A7,7,0,0,0,47,25Zm5,17a5,5,0,0,1-10,0V32a5,5,0,0,1,10,0Z"/><path class="cls-6" d="M42,22.21V15a1,1,0,0,0-1-1H39.89a5,5,0,0,0-4-3.92,5,5,0,0,0-5-4.08A7,7,0,0,0,18.15,3.17a4,4,0,0,0-5,2.9A6,6,0,0,0,8.35,14H7a1,1,0,0,0-1,1V59a5,5,0,0,0,5,5H37a5,5,0,0,0,5-5V51.79A11,11,0,0,0,58,41.7V32.3A11,11,0,0,0,42,22.21ZM12,16c3.23,0,3.31-.1,3.71.31S16,16.24,16,27a3,3,0,0,0,5.11,2.13C22.29,28,22,27,22,22a1,1,0,0,1,1.71-.69c.35.34.29.61.29,1.69a3,3,0,0,0,5.11,2.13C30.3,24,30,23.15,30,17a1,1,0,0,1,1-1h5V56H12Zm2-8a1,1,0,0,0,1-1,2,2,0,0,1,3-1.69,1,1,0,0,0,1.44-.42A5,5,0,0,1,29,7a1,1,0,0,0,.37.95c.55.43.92.07,1.63.07a3,3,0,0,1,3,3,1,1,0,0,0,1,1,3,3,0,0,1,2.82,2H31a3,3,0,0,0-3,3c0,6.45.11,6.3-.31,6.71A1,1,0,0,1,26,23c0-1.1.11-2.15-.87-3.11A3,3,0,0,0,20,22c0,5.38.11,5.31-.31,5.71A1,1,0,0,1,18,27c0-10.51.29-11-.87-12.11S14.88,14,10.54,14A4,4,0,0,1,14,8ZM56,41.7a9,9,0,0,1-14.4,7.49A1,1,0,0,0,40,50v9a3,3,0,0,1-3,3H11a3,3,0,0,1-3-3V16h2V57a1,1,0,0,0,1,1H37a1,1,0,0,0,1-1V16h2c0,8.62-.2,8.53.55,8.9a1,1,0,0,0,1.05-.09A9,9,0,0,1,56,32.3Z"/><path class="cls-6" d="M20,16h6a1,1,0,0,0,0-2H20A1,1,0,0,0,20,16Z"/></g></svg>