<svg xmlns="http://www.w3.org/2000/svg" xmlns:xlink="http://www.w3.org/1999/xlink" viewBox="0 0 64 64"><defs><style>.cls-1{fill:url(#linear-gradient);}.cls-2{fill:#aae0e5;}.cls-3{fill:url(#linear-gradient-2);}.cls-4{fill:#cba07a;}.cls-5{fill:url(#linear-gradient-3);}.cls-6{fill:url(#linear-gradient-4);}.cls-7{fill:url(#linear-gradient-5);}.cls-8{fill:#231f20;}</style><linearGradient id="linear-gradient" x1="32" y1="63" x2="32" y2="25" gradientUnits="userSpaceOnUse"><stop offset="0" stop-color="#9dd5df"/><stop offset="1" stop-color="#c3e1f5"/></linearGradient><linearGradient id="linear-gradient-2" x1="32" y1="59" x2="32" y2="29" gradientUnits="userSpaceOnUse"><stop offset="0" stop-color="#d1a788"/><stop offset="1" stop-color="#f2d3b8"/></linearGradient><linearGradient id="linear-gradient-3" x1="32" y1="21" x2="32" y2="9" gradientUnits="userSpaceOnUse"><stop offset="0" stop-color="#d4d8e1"/><stop offset="1" stop-color="#f3f4f5"/></linearGradient><linearGradient id="linear-gradient-4" y1="29" y2="1" xlink:href="#linear-gradient"/><linearGradient id="linear-gradient-5" x1="32" y1="25" x2="32" y2="21" xlink:href="#linear-gradient-3"/></defs><title>Boba</title><g id="Boba"><path class="cls-1" d="M47,25c-.23,2.85.22-2.77-3,38H20L17,25Z"/><polygon class="cls-2" points="47 25 46.84 27 17.16 27 17 25 47 25"/><path class="cls-3" d="M42.68,29c-2.4,30.43-2,25.9-2.37,30H23.69c-.33-4.12.08,1-2.37-30Z"/><path class="cls-4" d="M40.55,56c-.12,1.56-.12,1.49-.24,3H23.69c-.12-1.49-.11-1.41-.24-3Z"/><path class="cls-5" d="M47,21c-31.16,0-30-.1-30,0A12,12,0,0,1,29,9h6A12,12,0,0,1,47,21Z"/><path class="cls-6" d="M30,1V29h4V1Z"/><rect class="cls-7" x="15" y="21" width="34" height="4"/><path class="cls-8" d="M49,20H48A13,13,0,0,0,35,8V1a1,1,0,0,0-1-1H30a1,1,0,0,0-1,1V8A13,13,0,0,0,16.05,20H15a1,1,0,0,0-1,1v4a1,1,0,0,0,1,1h1.08L19,63.08A1,1,0,0,0,20,64H44a1,1,0,0,0,1-.92L47.92,26H49a1,1,0,0,0,1-1V21A1,1,0,0,0,49,20Zm-3,0H35V10A11,11,0,0,1,46,20ZM31,20V10h2V20ZM31,2h2V8H31Zm-2,8V20H18A11,11,0,0,1,29,10ZM43.08,62H20.92L18.08,26H29v2c-8,0-7.87-.13-8.29.32s-.44-1.73,1.89,30.75a1,1,0,0,0,1,.93H40.4a1,1,0,0,0,1-.93l2.15-30a1,1,0,0,0-1-1.07H35V26H45.92ZM33,26v2H31V26Zm8.48,4-2,28H24.53l-2-28ZM48,24H16V22H48Z"/><path class="cls-8" d="M27.5,53a1.5,1.5,0,0,0,0,3A1.5,1.5,0,0,0,27.5,53Z"/><path class="cls-8" d="M37.5,54a1.5,1.5,0,0,0,0,3A1.5,1.5,0,0,0,37.5,54Z"/><path class="cls-8" d="M32.5,54a1.5,1.5,0,0,0,0,3A1.5,1.5,0,0,0,32.5,54Z"/><path class="cls-8" d="M35.5,53a1.5,1.5,0,0,0,0-3A1.5,1.5,0,0,0,35.5,53Z"/><path class="cls-8" d="M29,51.5a1.5,1.5,0,0,0,3,0A1.5,1.5,0,0,0,29,51.5Z"/><path class="cls-8" d="M26.5,51a1.5,1.5,0,0,0,0-3A1.5,1.5,0,0,0,26.5,51Z"/><path class="cls-8" d="M32.5,49a1.5,1.5,0,0,0,0-3A1.5,1.5,0,0,0,32.5,49Z"/><path class="cls-8" d="M28.5,47a1.5,1.5,0,0,0,0-3A1.5,1.5,0,0,0,28.5,47Z"/><path class="cls-8" d="M37.5,49a1.5,1.5,0,0,0,0-3A1.5,1.5,0,0,0,37.5,49Z"/></g></svg>