<svg xmlns="http://www.w3.org/2000/svg" xmlns:xlink="http://www.w3.org/1999/xlink" viewBox="0 0 64 64"><defs><style>.cls-1{fill:url(#linear-gradient);}.cls-2{fill:url(#linear-gradient-2);}.cls-3{fill:url(#linear-gradient-3);}.cls-4{fill:#c7cdd8;}.cls-5{fill:url(#linear-gradient-5);}.cls-6{fill:#dd8b37;}.cls-7{fill:url(#linear-gradient-6);}.cls-8{fill:url(#linear-gradient-7);}.cls-9{fill:#cf4055;}.cls-10{fill:#231f20;}</style><linearGradient id="linear-gradient" x1="32" y1="63" x2="32" y2="1" gradientUnits="userSpaceOnUse"><stop offset="0" stop-color="#d4d8e1"/><stop offset="1" stop-color="#f3f4f5"/></linearGradient><linearGradient id="linear-gradient-2" x1="32" y1="51" x2="32" y2="13" gradientUnits="userSpaceOnUse"><stop offset="0" stop-color="#a0a6ba"/><stop offset="1" stop-color="#c6ccda"/></linearGradient><linearGradient id="linear-gradient-3" x1="22.78" y1="52" x2="22.78" y2="19" xlink:href="#linear-gradient"/><linearGradient id="linear-gradient-5" x1="21" y1="39" x2="21" y2="27" gradientUnits="userSpaceOnUse"><stop offset="0" stop-color="#e9a254"/><stop offset="1" stop-color="#f4bb79"/></linearGradient><linearGradient id="linear-gradient-6" x1="41.14" y1="40.82" x2="41.14" y2="20" gradientUnits="userSpaceOnUse"><stop offset="0" stop-color="#da5466"/><stop offset="1" stop-color="#f4929c"/></linearGradient><linearGradient id="linear-gradient-7" x1="43.14" y1="30.82" x2="43.14" y2="10" xlink:href="#linear-gradient-6"/></defs><title>Breackfast</title><g id="Breackfast"><circle class="cls-1" cx="32" cy="32" r="31"/><circle class="cls-2" cx="32" cy="32" r="19"/><path class="cls-3" d="M21,19c7,0,8,4,9,7,2.3,6.91,0,8.81,4,12,5,4,3,14-9,14C17,52,9,47.18,9,36,9,25,14,19,21,19Z"/><path class="cls-3" d="M21,19c7,0,8,4,9,7,2.3,6.91,0,8.81,4,12,5,4,3,14-9,14C17,52,9,47.18,9,36,9,25,14,19,21,19Z"/><path class="cls-4" d="M35.15,47.75C29.85,55.3,9,53.83,9,36c0-7.22,2.15-12.28,5.61-14.91C12.34,24,11,28.31,11,34,11,50.47,28.45,52.6,35.15,47.75Z"/><circle class="cls-5" cx="21" cy="33" r="6"/><path class="cls-6" d="M21,39a6,6,0,0,1-5.91-7c1.1,6.64,10.72,6.63,11.82,0A6,6,0,0,1,21,39Z"/><path class="cls-7" d="M49.63,40.8c-10.46-1.23-18.58-8.16-20.3-17.21a3,3,0,1,1,5.91-1.09C36.49,29,42.57,34,50.41,34.85a3,3,0,0,1,2.59,3A3,3,0,0,1,49.63,40.8Z"/><path class="cls-8" d="M51.63,30.8c-10.46-1.23-18.58-8.16-20.3-17.21a3,3,0,1,1,5.91-1.09C38.49,19,44.57,24,52.41,24.85a3,3,0,0,1,2.59,3A3,3,0,0,1,51.63,30.8Z"/><path class="cls-9" d="M51.63,30.8c-8.87-1-16.06-6.19-19.08-13.24,3.43,6,10.07,10.3,18.08,11.24A3,3,0,0,0,54,25.57,3,3,0,0,1,51.63,30.8Z"/><path class="cls-9" d="M49.63,40.8c-8.87-1-16.06-6.19-19.08-13.24,3.43,6,10.07,10.3,18.08,11.24A3,3,0,0,0,52,35.57,3,3,0,0,1,49.63,40.8Z"/><path class="cls-10" d="M32,0A32,32,0,1,0,64,32,32,32,0,0,0,32,0Zm0,62A30,30,0,1,1,62,32,30,30,0,0,1,32,62Z"/><path class="cls-10" d="M21,26a7,7,0,1,0,7,7A7,7,0,0,0,21,26Zm0,12a5,5,0,1,1,5-5A5,5,0,0,1,21,38Z"/><path class="cls-10" d="M56,27.82a4,4,0,0,0-3.48-4A20.24,20.24,0,0,1,50,23.41,19.87,19.87,0,0,0,38.41,13.08c-.07-.25-.14-.51-.19-.77a4,4,0,0,0-7.83-.21,20,20,0,0,0-13.21,6.5C11.43,20.49,8,26.79,8,36,8,50.91,22.14,55.37,31.08,52A19.88,19.88,0,0,0,49.42,41.78a4,4,0,0,0,2.43-7.51A15.65,15.65,0,0,0,52,31.82,4,4,0,0,0,56,27.82Zm-8.73-5.3a15.33,15.33,0,0,1-7.91-6.93A17.74,17.74,0,0,1,47.27,22.52ZM30.43,14.1A20,20,0,0,0,32.13,19a3.91,3.91,0,0,0-3.34,2.06c-2-2.44-5-3.13-8.08-3.06A18,18,0,0,1,30.43,14.1ZM10,36c0-9.87,4.21-16,11-16,5.54,0,6.79,2.59,7.71,5.29a26.11,26.11,0,0,1,1.55,7.11c.23,2.44.4,4.21,3.12,6.38C37.78,42.3,35.84,51,25,51,18.08,51,10,47.07,10,36ZM34.67,49.8a8.27,8.27,0,0,0,0-12.58c-2-1.59-2.16-2.7-2.36-4.8a24.9,24.9,0,0,0,15,9A17.89,17.89,0,0,1,34.67,49.8ZM51.33,39.31a2,2,0,0,1-1.58.5C40.21,38.68,32,32.4,30.32,23.4a2,2,0,0,1,2-2.4,2.09,2.09,0,0,1,2,1.69c1.33,6.92,7.78,12.2,16,13.16A2,2,0,0,1,51.33,39.31ZM50,31.56a11.61,11.61,0,0,1-.08,2.21C44.32,33,39.75,30,37.51,25.85A26,26,0,0,0,50,31.56Zm3.35-2.25a2,2,0,0,1-1.58.5C41.11,28.56,33.83,21.42,32.32,13.4a2,2,0,1,1,3.94-.71c1.43,7.41,8.41,12.28,16,13.16A2,2,0,0,1,53.33,29.31Z"/></g></svg>