<svg xmlns="http://www.w3.org/2000/svg" xmlns:xlink="http://www.w3.org/1999/xlink" viewBox="0 0 64 64"><defs><style>.cls-1{fill:url(#linear-gradient);}.cls-2{fill:#dd8b37;}.cls-3{fill:url(#linear-gradient-2);}.cls-4{fill:#231f20;}</style><linearGradient id="linear-gradient" x1="32" y1="55" x2="32" y2="29" gradientUnits="userSpaceOnUse"><stop offset="0" stop-color="#e9a254"/><stop offset="1" stop-color="#f4bb79"/></linearGradient><linearGradient id="linear-gradient-2" y1="29" y2="9" xlink:href="#linear-gradient"/></defs><title>Cheese</title><g id="Cheese"><path class="cls-1" d="M48,29H63V55H26a4,4,0,0,0-8,0H1V29H38"/><path class="cls-2" d="M63,52v3H26a4,4,0,0,0-8,0H1V52c6.63,0,10.88.5,19.24-3.59,4-2,5,3.59,16.83,3.59Z"/><path class="cls-3" d="M48,29H63c0-7.92-7.15-16.12-16-20L28.84,16.89c1.38,4.38-4.88,7.21-7.27,3.16L1,29H38"/><ellipse class="cls-2" cx="43" cy="29" rx="5" ry="3"/><circle class="cls-2" cx="11" cy="43" r="4"/><circle class="cls-2" cx="53" cy="39" r="5"/><circle class="cls-2" cx="25" cy="36" r="3"/><circle class="cls-2" cx="38" cy="46" r="4"/><circle class="cls-2" cx="47" cy="17" r="3"/><path class="cls-4" d="M11,38a5,5,0,1,0,5,5A5,5,0,0,0,11,38Zm0,8a3,3,0,1,1,3-3A3,3,0,0,1,11,46Z"/><path class="cls-4" d="M47,39a6,6,0,1,0,6-6A6,6,0,0,0,47,39Zm10,0a4,4,0,1,1-4-4A4,4,0,0,1,57,39Z"/><path class="cls-4" d="M25,32a4,4,0,1,0,4,4A4,4,0,0,0,25,32Zm0,6a2,2,0,1,1,2-2A2,2,0,0,1,25,38Z"/><path class="cls-4" d="M38,41a5,5,0,1,0,5,5A5,5,0,0,0,38,41Zm0,8a3,3,0,1,1,3-3A3,3,0,0,1,38,49Z"/><path class="cls-4" d="M47.4,8.08c-.57-.25.87-.72-19,7.89a1,1,0,0,0-.55,1.22c1,3.27-3.68,5.37-5.46,2.35a1,1,0,0,0-1.26-.41C-1,28.78.51,28.05.24,28.36S0,26.89,0,55a1,1,0,0,0,1,1H18a1,1,0,0,0,1-1,3,3,0,0,1,6,0,1,1,0,0,0,1,1H63a1,1,0,0,0,1-1V29C64,21.1,57,12.3,47.4,8.08ZM21.23,21.29A5,5,0,0,0,30,17.49l17-7.4C55.3,13.88,61.4,21.23,62,28H48.81c-1.49-4-10.13-4-11.62,0H5.8ZM47,29c0,.94-1.71,2-4,2s-4-1.06-4-2,1.71-2,4-2S47,28.06,47,29ZM62,54H26.9a5,5,0,0,0-9.8,0H2V30H37.19c1.49,4,10.13,4,11.62,0H62Z"/><path class="cls-4" d="M47,21a4,4,0,1,0-4-4A4,4,0,0,0,47,21Zm0-6a2,2,0,1,1-2,2A2,2,0,0,1,47,15Z"/></g></svg>