<svg xmlns="http://www.w3.org/2000/svg" xmlns:xlink="http://www.w3.org/1999/xlink" viewBox="0 0 64 64"><defs><style>.cls-1{fill:url(#linear-gradient);}.cls-2{fill:#c7cdd8;}.cls-3{fill:url(#linear-gradient-2);}.cls-4{fill:url(#linear-gradient-3);}.cls-5{fill:#f6b756;}.cls-6{fill:url(#linear-gradient-4);}.cls-7{fill:url(#linear-gradient-5);}.cls-8{fill:#cf4055;}.cls-9{fill:#cba07a;}.cls-10{fill:#231f20;}</style><linearGradient id="linear-gradient" x1="32" y1="55" x2="32" y2="49" gradientUnits="userSpaceOnUse"><stop offset="0" stop-color="#d4d8e1"/><stop offset="1" stop-color="#f3f4f5"/></linearGradient><linearGradient id="linear-gradient-2" x1="32.01" y1="49" x2="32.01" y2="27" gradientUnits="userSpaceOnUse"><stop offset="0" stop-color="#d1a788"/><stop offset="1" stop-color="#f2d3b8"/></linearGradient><linearGradient id="linear-gradient-3" x1="28.5" y1="45" x2="28.5" y2="30" gradientUnits="userSpaceOnUse"><stop offset="0" stop-color="#fbcc88"/><stop offset="1" stop-color="#ffe5c3"/></linearGradient><linearGradient id="linear-gradient-4" x1="12" y1="32" x2="45" y2="32" gradientUnits="userSpaceOnUse"><stop offset="0" stop-color="#e9a254"/><stop offset="1" stop-color="#f4bb79"/></linearGradient><linearGradient id="linear-gradient-5" x1="32" y1="30" x2="32" y2="18" gradientUnits="userSpaceOnUse"><stop offset="0" stop-color="#da5466"/><stop offset="1" stop-color="#f4929c"/></linearGradient></defs><title>Cheese cake</title><g id="Cheese_cake" data-name="Cheese cake"><polygon class="cls-1" points="63 49 63 50 46 53 44 55 20 55 18 53 1 50 1 49 63 49"/><polygon class="cls-2" points="46 53 44 55 20 55 18 53 46 53"/><path class="cls-3" d="M49.81,27H48a3,3,0,0,0-3,3V42a3,3,0,0,1-3,3H12v4H49V33.58a2.21,2.21,0,0,1,1.5-2.08C52.84,30.72,52.35,27,49.81,27Z"/><path class="cls-4" d="M14,30H45a0,0,0,0,1,0,0V42a3,3,0,0,1-3,3H12a0,0,0,0,1,0,0V32A2,2,0,0,1,14,30Z"/><path class="cls-5" d="M45,40v2a3,3,0,0,1-3,3H12V43H42A3,3,0,0,0,45,40Z"/><path class="cls-6" d="M14,30H45a0,0,0,0,1,0,0v4a0,0,0,0,1,0,0H12a0,0,0,0,1,0,0V32A2,2,0,0,1,14,30Z"/><circle class="cls-7" cx="32" cy="24" r="6"/><path class="cls-8" d="M32,30a6,6,0,0,1-5.91-7c1.1,6.64,10.72,6.63,11.82,0A6,6,0,0,1,32,30Z"/><rect class="cls-9" x="12" y="47" width="37" height="2"/><path class="cls-10" d="M63,48H50V33.58a1.19,1.19,0,0,1,.82-1.13c3.42-1.15,2.61-6.45-1-6.45H48a4,4,0,0,0-3.86,3H36.89a7,7,0,0,0-3.31-11.81c.92-2.55,3.33-6.07,9.6-7.21a1,1,0,0,0-.36-2c-7.54,1.37-10.27,5.92-11.26,9a7,7,0,0,0-4.45,12H14a3,3,0,0,0-3,3V48H1a1,1,0,0,0-1,1v1a1,1,0,0,0,.83,1l16.69,3,1.77,1.78c.42.42-.26.29,12.71.29,12.76,0,12.29.13,12.71-.29l1.77-1.78,16.69-3c1-.16.83-1.08.83-2A1,1,0,0,0,63,48ZM13,35H44v7a2,2,0,0,1-2,2H13ZM27,24a5,5,0,0,1,4.08-4.91C31,19.64,31,20,31,20a1,1,0,0,0,2,0,7.48,7.48,0,0,1,.08-.88A5,5,0,1,1,27,24ZM13,32a1,1,0,0,1,1-1H44v2H13Zm0,14H42a4,4,0,0,0,4-4V30a2,2,0,0,1,2-2c1.69,0,3-.3,3,1.42a1.19,1.19,0,0,1-.82,1.13,3.2,3.2,0,0,0-2.18,3V48H13Zm32.83,6c-.45.07-.54.27-2.24,2H20.41c-1.65-1.65-1.79-1.91-2.24-2L6.75,50h50.5Z"/><path class="cls-10" d="M18,40a1,1,0,0,0,0,2A1,1,0,0,0,18,40Z"/><path class="cls-10" d="M23,37a1,1,0,0,0,0,2A1,1,0,0,0,23,37Z"/><path class="cls-10" d="M28,40a1,1,0,0,0,0,2A1,1,0,0,0,28,40Z"/><path class="cls-10" d="M33,37a1,1,0,0,0,0,2A1,1,0,0,0,33,37Z"/><path class="cls-10" d="M38,40a1,1,0,0,0,0,2A1,1,0,0,0,38,40Z"/></g></svg>