<svg xmlns="http://www.w3.org/2000/svg" xmlns:xlink="http://www.w3.org/1999/xlink" viewBox="0 0 64 64"><defs><style>.cls-1{fill:url(#linear-gradient);}.cls-2{fill:url(#linear-gradient-2);}.cls-3{fill:#8a6762;}.cls-4{fill:url(#linear-gradient-3);}.cls-5{fill:#e8677d;}.cls-6{fill:#ffd39f;}.cls-7{fill:url(#linear-gradient-4);}.cls-8{fill:#cf4055;}.cls-9{fill:#f6b756;}.cls-10{fill:#231f20;}</style><linearGradient id="linear-gradient" x1="32" y1="30" x2="32" y2="1" gradientUnits="userSpaceOnUse"><stop offset="0" stop-color="#9b756d"/><stop offset="1" stop-color="#bc9388"/></linearGradient><linearGradient id="linear-gradient-2" x1="32" y1="63" x2="32" y2="19" gradientUnits="userSpaceOnUse"><stop offset="0" stop-color="#da5466"/><stop offset="1" stop-color="#f4929c"/></linearGradient><linearGradient id="linear-gradient-3" x1="32" y1="55" x2="32" y2="21.53" gradientUnits="userSpaceOnUse"><stop offset="0" stop-color="#fbcc88"/><stop offset="1" stop-color="#ffe5c3"/></linearGradient><linearGradient id="linear-gradient-4" x1="33" y1="42" x2="33" y2="17" gradientUnits="userSpaceOnUse"><stop offset="0" stop-color="#d4d8e1"/><stop offset="1" stop-color="#f3f4f5"/></linearGradient></defs><title>Chocolate</title><g id="Chocolate"><polyline class="cls-1" points="15 29.77 15 1 49 1 49 30"/><path class="cls-2" d="M50,19V63H14V32Z"/><rect class="cls-3" x="29" y="5" width="6" height="8"/><rect class="cls-3" x="39" y="5" width="6" height="8"/><path class="cls-3" d="M35,22.68V17H29c0,8.61,0,8,.06,8"/><rect class="cls-3" x="19" y="5" width="6" height="8"/><rect class="cls-3" x="19" y="17" width="6" height="8"/><polyline class="cls-3" points="39 20.69 39 17 45 17 45 18.38"/><path class="cls-4" d="M43,21.53V55H21V29.6C21.86,29.1,19.35,30.06,43,21.53Z"/><path class="cls-5" d="M21,29.6v7.93a6.76,6.76,0,0,1-2.07-1c-1.63,1.43-3.14,3.4-4.93,5V32C22.32,29,22.2,28.9,21,29.6Z"/><path class="cls-5" d="M50,19V29.46a13.81,13.81,0,0,1-5.83-2.13c-.33.17-.73.4-1.17.67V21.53Z"/><path class="cls-6" d="M43,21.53V28c-2.41,1.47-6,4.28-6,8v2c-2.57,0-5.27.44-8.81-4C26.44,36.53,24,38.32,21,37.53V29.6C21.86,29.1,19.35,30.06,43,21.53Z"/><path class="cls-7" d="M57,26a11.09,11.09,0,0,1-12.63-1S35,29,35,36c-4,0-7-6-7-6s-3.5,9.5-9,4c-3.37,2-6.66,8-10,8l1.51-9A3.53,3.53,0,0,1,14,30c9-1.87,28.46-10.73,36-13a4.6,4.6,0,0,1,4.22,2.74Z"/><rect class="cls-8" x="14" y="60" width="36" height="3"/><rect class="cls-9" x="21" y="52" width="22" height="3"/><path class="cls-10" d="M29,14h6a1,1,0,0,0,1-1V5a1,1,0,0,0-1-1H29a1,1,0,0,0-1,1v8A1,1,0,0,0,29,14Zm1-8h4v6H30Z"/><path class="cls-10" d="M39,14h6a1,1,0,0,0,1-1V5a1,1,0,0,0-1-1H39a1,1,0,0,0-1,1v8A1,1,0,0,0,39,14Zm1-8h4v6H40Z"/><path class="cls-10" d="M19,14h6a1,1,0,0,0,1-1V5a1,1,0,0,0-1-1H19a1,1,0,0,0-1,1v8A1,1,0,0,0,19,14Zm1-8h4v6H20Z"/><path class="cls-10" d="M57.91,25.59c-2.86-6.44-3-7.48-4.85-8.69A5.66,5.66,0,0,0,50,16V1a1,1,0,0,0-1-1H15a1,1,0,0,0-1,1c0,30.1.05,28-.11,28a4.52,4.52,0,0,0-4.37,3.79c-1.61,9.66-1.71,9.36-1.28,9.86A1,1,0,0,0,9,43a6.38,6.38,0,0,0,4-1.9V63a1,1,0,0,0,1,1H50a1,1,0,0,0,1-1V28.53a11.93,11.93,0,0,0,6.5-1.66A1,1,0,0,0,57.91,25.59ZM16,2H48V16.6c-2.4.83-2,.85-2,.4a1,1,0,0,0-1-1H39a1,1,0,0,0-1,1v3.41l-2,.79V17a1,1,0,0,0-1-1H29a1,1,0,0,0-1,1v7.33c-2.36.9-2,.79-2,.67V17a1,1,0,0,0-1-1H19a1,1,0,0,0-1,1v8a1,1,0,0,0,1,1h4.53c-2.76,1-5.36,1.87-7.53,2.47ZM44,18.06l-4,1.56V18C44.45,18,44,18,44,18.06Zm-14,5.5V18h4v4ZM24,24H20V18h4ZM15,62V39.15a36.6,36.6,0,0,1,3.91-3.88A6.8,6.8,0,0,0,20,36V55a1,1,0,0,0,1,1H43a1,1,0,0,0,1-1c0-30.9-.12-28.65.25-28.84A13.2,13.2,0,0,0,49,28.26V62ZM28.11,32.13C31.57,37.3,36,38,36,36c0-3.93,3.43-6.89,6-8.55V54H22V36.69C24.74,36.93,26.79,34.56,28.11,32.13ZM45,24.25A1,1,0,0,0,44,24.08c-.39.17-9,3.93-9.91,10.78-2.39-.72-4.5-4-5.18-5.31a1,1,0,0,0-1.83.1c-.45,1.24-2.09,4.55-4.19,5a2.47,2.47,0,0,1-1.52-.18c-1.53-.66-1.83-2-2.87-1.34-2.91,1.76-5.73,6.19-8.24,7.51l1.26-7.53A2.52,2.52,0,0,1,14,31c3.74,0,30.53-11.28,36.14-13a3.73,3.73,0,0,1,1.83.58c1.2.78,1.21,1.27,3.74,7A10,10,0,0,1,45,24.25Z"/></g></svg>