<svg xmlns="http://www.w3.org/2000/svg" xmlns:xlink="http://www.w3.org/1999/xlink" viewBox="0 0 64 64"><defs><style>.cls-1{fill:url(#linear-gradient);}.cls-2{fill:#8a6762;}.cls-3{fill:url(#linear-gradient-2);}.cls-4{fill:url(#linear-gradient-3);}.cls-5{fill:#231f20;}</style><linearGradient id="linear-gradient" x1="15.44" y1="29.17" x2="15.44" y2="3.72" gradientUnits="userSpaceOnUse"><stop offset="0" stop-color="#9b756d"/><stop offset="1" stop-color="#bc9388"/></linearGradient><linearGradient id="linear-gradient-2" x1="26.81" y1="63" x2="26.81" y2="5.43" gradientUnits="userSpaceOnUse"><stop offset="0" stop-color="#d1a788"/><stop offset="1" stop-color="#f2d3b8"/></linearGradient><linearGradient id="linear-gradient-3" x1="33.76" y1="51.54" x2="33.76" y2="1" xlink:href="#linear-gradient-2"/></defs><title>CHopstick</title><g id="CHopstick"><path class="cls-1" d="M28.17,12.2,19.69,3.72a74.6,74.6,0,0,1-17,17l8.48,8.48A75.33,75.33,0,0,1,28.17,12.2Z"/><path class="cls-2" d="M5,19l7.89,7.89c-1.1,1.4-1.71,2.29-1.71,2.29L2.72,20.69S3.61,20.08,5,19Z"/><polygon class="cls-3" points="52.61 59.23 48.35 63 1 7.69 3.56 5.43 52.61 59.23"/><polygon class="cls-4" points="63 47.2 59.32 51.54 4.52 3.6 6.73 1 63 47.2"/><path class="cls-5" d="M25.72,15.3c1.79-1.43,3-2.27,3-2.28a1,1,0,0,0,.14-1.53c-9.23-9.22-8.63-8.83-9.28-8.77s-.48.41-3.81,4.43L7.36.23A1,1,0,0,0,6,.35L3.76,3a1,1,0,0,0,.1,1.4L12,11.44l-.79.8c-.1.1.21.29-6.87-7.49a1,1,0,0,0-1.4-.07L.34,6.94a1,1,0,0,0-.1,1.4l6.68,7.8c-4.67,4-5.12,3.61-5.2,4.46-.06.67-.37.13,8.77,9.28a1,1,0,0,0,.8.29c.8-.08.47-.4,3.83-4.45,33.9,39.6,32.78,39,33.89,38,4.67-4.13,4.57-3.9,4.6-4.46s2.25,2-34.37-38.14c.19-.19.58-.61,1.8-1.77C61.32,54.62,58.76,52.54,59.32,52.54a1,1,0,0,0,.76-.35c4-4.76,4-4.51,3.92-5.08S66.31,48.63,25.72,15.3Zm-5.91-10,6.82,6.82c-.6.44-1.46,1.1-2.49,1.93l-6.81-5.6C18.42,7.1,19.27,6,19.81,5.26ZM11.08,27.63,4.26,20.82c.88-.65,2.29-1.73,4-3.16l5.58,6.52C12.6,25.62,11.65,26.85,11.08,27.63Zm37.37,34L2.4,7.79l1.08-1L51.19,59.16ZM17.89,19.67l-5.4-5.93c.5-.49.49-.5,1-1l6.06,5.31C18.38,19.15,18,19.53,17.89,19.67ZM59.22,50.12C5.83,3.42,120.86,104.05,5.92,3.5l.93-1.1L61.58,47.33Z"/></g></svg>