<svg id="Cocktail" xmlns="http://www.w3.org/2000/svg" xmlns:xlink="http://www.w3.org/1999/xlink" viewBox="0 0 64 64"><defs><style>.cls-1{fill:url(#linear-gradient);}.cls-2{fill:url(#linear-gradient-2);}.cls-3{fill:url(#linear-gradient-3);}.cls-4{fill:#231f20;}</style><linearGradient id="linear-gradient" x1="32" y1="34" x2="32" y2="8" gradientUnits="userSpaceOnUse"><stop offset="0" stop-color="#9dd5df"/><stop offset="1" stop-color="#c3e1f5"/></linearGradient><linearGradient id="linear-gradient-2" x1="32" y1="30.82" x2="32" y2="14" gradientUnits="userSpaceOnUse"><stop offset="0" stop-color="#fbcc88"/><stop offset="1" stop-color="#ffe5c3"/></linearGradient><linearGradient id="linear-gradient-3" x1="31" y1="20" x2="37" y2="20" gradientUnits="userSpaceOnUse"><stop offset="0" stop-color="#8cdd79"/><stop offset="1" stop-color="#d4e6b6"/></linearGradient></defs><title>Cocktail</title><polygon class="cls-1" points="32 34 11 8 53 8 32 34"/><polygon class="cls-2" points="45.58 14 32 30.82 18.42 14 45.58 14"/><circle class="cls-3" cx="34" cy="20" r="3"/><path class="cls-4" d="M48.41,7l5.3-5.29A1,1,0,0,0,52.29.29L45.59,7H11a1,1,0,0,0-.78,1.63L31,34.35V60a2,2,0,0,1-2,2H20a1,1,0,0,0,0,2H44a1,1,0,0,0,0-2H35a2,2,0,0,1-2-2V34.35C55.43,6.58,54.29,8.39,53.9,7.57S53.21,7,48.41,7ZM32,32.41,13.09,9h30.5L36,16.57A4,4,0,0,0,30.57,22l-2.28,2.27a1,1,0,0,0,1.42,1.42L32,23.43A4,4,0,0,0,37.43,18l9-9h4.5ZM36,20a2,2,0,1,1-2-2A2,2,0,0,1,36,20Z"/></svg>