<svg xmlns="http://www.w3.org/2000/svg" xmlns:xlink="http://www.w3.org/1999/xlink" viewBox="0 0 64 64"><defs><style>.cls-1{fill:url(#linear-gradient);}.cls-2{fill:url(#linear-gradient-2);}.cls-3{fill:url(#linear-gradient-3);}.cls-4{fill:url(#linear-gradient-4);}.cls-5{fill:url(#linear-gradient-5);}.cls-6{fill:url(#linear-gradient-6);}.cls-7{fill:#cba07a;}.cls-8{fill:url(#linear-gradient-7);}.cls-9{fill:url(#linear-gradient-8);}.cls-10{fill:url(#linear-gradient-9);}.cls-11{fill:url(#linear-gradient-10);}.cls-12{fill:url(#linear-gradient-11);}.cls-13{fill:url(#linear-gradient-12);}.cls-14{fill:url(#linear-gradient-13);}.cls-15{fill:#231f20;}</style><linearGradient id="linear-gradient" x1="42.01" y1="42.97" x2="42.01" y2="1" gradientUnits="userSpaceOnUse"><stop offset="0" stop-color="#d1a788"/><stop offset="1" stop-color="#f2d3b8"/></linearGradient><linearGradient id="linear-gradient-2" x1="42" y1="24" x2="42" y2="16" gradientUnits="userSpaceOnUse"><stop offset="0" stop-color="#9b756d"/><stop offset="1" stop-color="#bc9388"/></linearGradient><linearGradient id="linear-gradient-3" x1="44" y1="11" x2="44" y2="5" xlink:href="#linear-gradient-2"/><linearGradient id="linear-gradient-4" x1="31" y1="14" x2="31" y2="10" xlink:href="#linear-gradient-2"/><linearGradient id="linear-gradient-5" x1="51.5" y1="34" x2="51.5" y2="29" xlink:href="#linear-gradient-2"/><linearGradient id="linear-gradient-6" x1="56" y1="19" x2="56" y2="15" xlink:href="#linear-gradient-2"/><linearGradient id="linear-gradient-7" x1="22" y1="63" x2="22" y2="21" xlink:href="#linear-gradient"/><linearGradient id="linear-gradient-8" x1="34" y1="46" x2="34" y2="38" xlink:href="#linear-gradient-2"/><linearGradient id="linear-gradient-9" x1="11" y1="52" x2="11" y2="46" xlink:href="#linear-gradient-2"/><linearGradient id="linear-gradient-10" x1="8" y1="37.5" x2="8" y2="32.5" xlink:href="#linear-gradient-2"/><linearGradient id="linear-gradient-11" x1="21" y1="42.5" x2="21" y2="37.5" xlink:href="#linear-gradient-2"/><linearGradient id="linear-gradient-12" x1="19" y1="28" x2="19" y2="24" xlink:href="#linear-gradient-2"/><linearGradient id="linear-gradient-13" x1="24" y1="57" x2="24" y2="53" xlink:href="#linear-gradient-2"/></defs><title>Cookies</title><g id="Cookies"><path class="cls-1" d="M63,22A21,21,0,0,1,43,43L21,21A20.51,20.51,0,0,1,27.15,7.15C40.32-6,63,3.37,63,22Z"/><circle class="cls-2" cx="42" cy="20" r="4"/><circle class="cls-3" cx="44" cy="8" r="3"/><circle class="cls-4" cx="31" cy="12" r="2"/><circle class="cls-5" cx="51.5" cy="31.5" r="2.5"/><circle class="cls-6" cx="56" cy="17" r="2"/><path class="cls-7" d="M63,20.43A21,21,0,0,1,49.29,38.67a4,4,0,0,1-5.14-2.57C41,25.49,29.64,19.35,21.14,21c0-.24-.05-.48-.07-.72C21,21.41,18.69,18.69,43,43A21,21,0,0,0,63,20.43Z"/><path class="cls-8" d="M43,42A21,21,0,0,1,22,63C3.24,63-6,40.26,7.15,27.15S43,23.37,43,42Z"/><path class="cls-7" d="M22,63C8.73,63,.24,51.62,1.06,40.31a21,21,0,0,0,41.88.15A21,21,0,0,1,22,63Z"/><circle class="cls-9" cx="34" cy="42" r="4"/><circle class="cls-10" cx="11" cy="49" r="3"/><circle class="cls-11" cx="8" cy="35" r="2.5"/><circle class="cls-12" cx="21" cy="40" r="2.5"/><circle class="cls-13" cx="19" cy="26" r="2"/><circle class="cls-14" cx="24" cy="55" r="2"/><path class="cls-15" d="M64,22A21.62,21.62,0,0,0,50.4,1.73,21.91,21.91,0,0,0,20.08,20.07,21.53,21.53,0,0,0,6.44,26.44C-7.34,40.22,2.39,64,22,64A22,22,0,0,0,43.91,43.94C54.11,43.41,64,34.2,64,22ZM22,62A19.64,19.64,0,0,1,3.57,49.67,20,20,0,1,1,22,62ZM44,41.87A22,22,0,0,0,22.09,20,19.91,19.91,0,0,1,49.63,3.58C68.89,11.55,64.55,39.85,44,41.87Z"/><path class="cls-15" d="M34,37a5,5,0,1,0,5,5A5,5,0,0,0,34,37Zm0,8a3,3,0,1,1,3-3A3,3,0,0,1,34,45Z"/><path class="cls-15" d="M11,45a4,4,0,1,0,4,4A4,4,0,0,0,11,45Zm0,6a2,2,0,1,1,2-2A2,2,0,0,1,11,51Z"/><path class="cls-15" d="M11.5,35A3.5,3.5,0,1,0,8,38.5,3.5,3.5,0,0,0,11.5,35ZM8,33.5a1.5,1.5,0,0,1,0,3A1.5,1.5,0,0,1,8,33.5Z"/><path class="cls-15" d="M24.5,40A3.5,3.5,0,1,0,21,43.5,3.5,3.5,0,0,0,24.5,40ZM21,38.5a1.5,1.5,0,0,1,0,3A1.5,1.5,0,0,1,21,38.5Z"/><path class="cls-15" d="M22,26a3,3,0,1,0-3,3A3,3,0,0,0,22,26Zm-3-1a1,1,0,0,1,0,2A1,1,0,0,1,19,25Z"/><path class="cls-15" d="M24,52a3,3,0,1,0,3,3A3,3,0,0,0,24,52Zm0,4a1,1,0,0,1,0-2A1,1,0,0,1,24,56Z"/><path class="cls-15" d="M42,15a5,5,0,1,0,5,5A5,5,0,0,0,42,15Zm0,8a3,3,0,1,1,3-3A3,3,0,0,1,42,23Z"/><path class="cls-15" d="M44,12a4,4,0,1,0-4-4A4,4,0,0,0,44,12Zm0-6a2,2,0,1,1-2,2A2,2,0,0,1,44,6Z"/><path class="cls-15" d="M31,9a3,3,0,1,0,3,3A3,3,0,0,0,31,9Zm0,4a1,1,0,0,1,0-2A1,1,0,0,1,31,13Z"/><path class="cls-15" d="M51.5,28A3.5,3.5,0,1,0,55,31.5,3.5,3.5,0,0,0,51.5,28Zm0,5a1.5,1.5,0,0,1,0-3A1.5,1.5,0,0,1,51.5,33Z"/><path class="cls-15" d="M56,14a3,3,0,1,0,3,3A3,3,0,0,0,56,14Zm0,4a1,1,0,0,1,0-2A1,1,0,0,1,56,18Z"/></g></svg>