<svg xmlns="http://www.w3.org/2000/svg" xmlns:xlink="http://www.w3.org/1999/xlink" viewBox="0 0 64 64"><defs><style>.cls-1{fill:url(#linear-gradient);}.cls-2{fill:url(#linear-gradient-2);}.cls-3{fill:url(#linear-gradient-3);}.cls-4{fill:url(#linear-gradient-4);}.cls-5{fill:url(#linear-gradient-5);}.cls-6{fill:url(#linear-gradient-6);}.cls-7{fill:#c7cdd8;}.cls-8{fill:url(#linear-gradient-7);}.cls-9{fill:url(#linear-gradient-8);}.cls-10{fill:url(#linear-gradient-9);}.cls-11{fill:#231f20;}</style><linearGradient id="linear-gradient" x1="53" y1="64" x2="53" y2="34.01" gradientUnits="userSpaceOnUse"><stop offset="0" stop-color="#a0a6ba"/><stop offset="1" stop-color="#c6ccda"/></linearGradient><linearGradient id="linear-gradient-2" x1="37" x2="37" y2="22.87" xlink:href="#linear-gradient"/><linearGradient id="linear-gradient-3" y1="36.04" y2="22" xlink:href="#linear-gradient"/><linearGradient id="linear-gradient-4" x1="38" y1="25.05" x2="38" y2="5" xlink:href="#linear-gradient"/><linearGradient id="linear-gradient-5" x1="53" y1="36.04" x2="53" y2="22" gradientUnits="userSpaceOnUse"><stop offset="0" stop-color="#d4d8e1"/><stop offset="1" stop-color="#f3f4f5"/></linearGradient><linearGradient id="linear-gradient-6" x1="37" y1="25.05" x2="37" y2="5" xlink:href="#linear-gradient-5"/><linearGradient id="linear-gradient-7" x1="23" y1="63" x2="23" y2="1" xlink:href="#linear-gradient"/><linearGradient id="linear-gradient-8" x1="10" x2="10" y2="5.01" xlink:href="#linear-gradient"/><linearGradient id="linear-gradient-9" x1="22.99" y1="31.21" x2="22.99" y2="1" xlink:href="#linear-gradient-5"/></defs><title>Clutery</title><g id="Clutery"><path class="cls-1" d="M56,59c0,4.64-2.3,5-3,5s-3-.36-3-5c0-3.06,2-11.19,2-17V35a1,1,0,0,1,2,0v7C54,47.81,56,56,56,59Z"/><path class="cls-2" d="M37,64c-6.18,0-1-14.06-1-27,0-9.66.29-11.66-.86-12.26s-.26-2.66,1.28-1.54a.93.93,0,0,1,1.16,0c1.52-1.11,2.45.92,1.28,1.54S38,27.18,38,37C38,50,43.19,64,37,64Z"/><path class="cls-3" d="M58,30.08c0,7.94-10,7.94-10,0C48,26.21,50.24,22,53,22S58,26.21,58,30.08Z"/><path class="cls-4" d="M45,16.54c0,11.35-14,11.35-14,0C31,11,34.13,5,38,5S45,11,45,16.54Z"/><path class="cls-5" d="M58,30.08c0,7.94-10,7.94-10,0C48,26.21,50.24,22,53,22S58,26.21,58,30.08Z"/><path class="cls-6" d="M44,16.54c0,11.35-14,11.35-14,0C30,11,33.13,5,37,5S44,11,44,16.54Z"/><path class="cls-7" d="M48.06,29.05c.7,6.63,9.18,6.64,9.88,0C59,38.36,47,38.33,48.06,29.05Z"/><path class="cls-7" d="M30,15.54c.72,10,13.2,10,13.92,0C45.11,28.21,28.89,28.17,30,15.54Z"/><path class="cls-8" d="M27,1c-1.22,33.05-1,30.57-1,59,0,4.5-5,4-5-2,0-3.83,1.84-4.91,2-21.73A3.66,3.66,0,0,0,21,33c-1.59-.78-2.07-2.23-2-4C19.16,22.8,20.24,1,27,1Z"/><path class="cls-9" d="M13,6V19a1,1,0,0,1-1.87.49c-.19-.33-.13.7-.13-13.49A1,1,0,0,0,9,6c0,14.12.06,13.15-.13,13.5A1,1,0,0,1,7,19V6A1,1,0,0,0,5,6V21a4.94,4.94,0,0,0,2.83,4.48A2.59,2.59,0,0,1,9,28c0,11.29.23,12-1.25,22.75C6.81,57.7,5.93,64,10,64c3,0,3-2.91,3-6a64.44,64.44,0,0,0-.75-7.25C10.77,40,11,39.31,11,28a2.6,2.6,0,0,1,1.17-2.52A5,5,0,0,0,15,21V6A1,1,0,0,0,13,6Z"/><path class="cls-10" d="M27,1s-2-1-5,28c-.89,1.79-1.59,2-2.7,2.21A3.61,3.61,0,0,1,19,29.73C19,23.09,20.29,1,27,1Z"/><path class="cls-11" d="M53,21c-6,0-9.31,14.55-1,15.91V42c0,5.67-2,14-2,17,0,4.64,2.3,5,3,5s3-.36,3-5c0-3.09-2-11.13-2-17V36.91C62.32,35.55,59,21,53,21Zm0,2c3.89,0,6.59,12,0,12S49.06,23,53,23Zm.27,30.36A46.06,46.06,0,0,1,54,59c0,4-2,4-2,0a46.06,46.06,0,0,1,.73-5.64C53.09,51.15,52.91,51.15,53.27,53.36Z"/><path class="cls-11" d="M37,4c-7.82,0-12.37,19.34-1.8,21.79,1.15.78.8,3.16.8,11.21,0,13-5.19,27,1,27s1-14,1-27c0-8.32-.29-10.47.8-11.21C49.38,23.34,44.81,4,37,4Zm.26,47A61.76,61.76,0,0,1,38,58c0,3.36-.16,4-1,4s-1-.64-1-4a61.76,61.76,0,0,1,.74-7C37.09,48.41,36.91,48.41,37.26,51ZM37,24c-9.75,0-6-18,0-18S46.67,24,37,24Z"/><path class="cls-11" d="M17,29.72a4.66,4.66,0,0,0,2.55,4.17A2.63,2.63,0,0,1,21,36.26c-.15,17-2,17.61-2,21.74,0,7.48,7,7.74,7,2,0-27.32-.2-27.38,1-59C27.09-1.44,17.23-2.48,17,29.72ZM24,60c0,3.33-3,2.39-3-2,0-3.8,1.84-4.68,2-21.72a4.65,4.65,0,0,0-2.55-4.18A2.63,2.63,0,0,1,19,29.73c0-5.51,1.13-24.83,6-27.45C23.78,34.46,24,30.61,24,60Z"/><path class="cls-11" d="M13,5c0,15.32.05,14.19-.13,14.5A1,1,0,0,1,11,19V5A1,1,0,0,0,9,5V19a1,1,0,0,1-1.87.49C7,19.19,7,20.29,7,5A1,1,0,0,0,5,5c0,17.66-.41,17.64,1.47,19.54a5,5,0,0,0,1.36.94.86.86,0,0,0,.31.26c1.2.64.86,3,.86,11.26,0,13-5.19,27,1,27s1-14,1-27c0-8.55-.29-10.65.86-11.26a.86.86,0,0,0,.31-.26A5,5,0,0,0,15,21V5A1,1,0,0,0,13,5ZM10,21.22a2.94,2.94,0,0,0,2.86.65,3,3,0,0,1-5.72,0A3,3,0,0,0,10,21.22ZM10.26,51A61.76,61.76,0,0,1,11,58c0,3.36-.16,4-1,4s-1-.64-1-4a61.76,61.76,0,0,1,.74-7C10.09,48.41,9.91,48.41,10.26,51Z"/></g></svg>