<svg xmlns="http://www.w3.org/2000/svg" xmlns:xlink="http://www.w3.org/1999/xlink" viewBox="0 0 64 64"><defs><style>.cls-1{fill:url(#linear-gradient);}.cls-2{fill:url(#linear-gradient-2);}.cls-3{fill:#eab39b;}.cls-4{fill:url(#linear-gradient-3);}.cls-5{fill:url(#linear-gradient-4);}.cls-6{fill:#cba07a;}.cls-7{fill:url(#linear-gradient-5);}.cls-8{fill:#231f20;}</style><linearGradient id="linear-gradient" x1="20" y1="29" x2="20" y2="11" gradientUnits="userSpaceOnUse"><stop offset="0" stop-color="#f2c4b0"/><stop offset="1" stop-color="#ffe3d7"/></linearGradient><linearGradient id="linear-gradient-2" x1="43.99" x2="43.99" xlink:href="#linear-gradient"/><linearGradient id="linear-gradient-3" x1="32" x2="32" xlink:href="#linear-gradient"/><linearGradient id="linear-gradient-4" x1="32" y1="53" x2="32" y2="35" gradientUnits="userSpaceOnUse"><stop offset="0" stop-color="#d1a788"/><stop offset="1" stop-color="#f2d3b8"/></linearGradient><linearGradient id="linear-gradient-5" y1="35" y2="29" xlink:href="#linear-gradient-4"/></defs><title>Dimsum</title><g id="Dimsum"><path class="cls-1" d="M33.6,29H6.4c-1.78-6.14,2.46-11.46,8-14.48C17.08,13,17.2,11,17.82,11S19,12,19,12c.46-1.32,1.47-1.34,1.94,0,0,0,.59-1,1.21-1s.79,2,3.42,3.52C31.18,17.56,35.37,22.89,33.6,29Z"/><path class="cls-2" d="M57.6,29H30.4c-2.74-9.43,8.31-14.47,9.39-15.49,1.36-1.27,1.54-2.51,2-2.51S43,12,43,12c.46-1.32,1.47-1.34,1.94,0,0,0,.59-1,1.21-1s.74,2,3.42,3.52C55.15,17.54,59.38,22.88,57.6,29Z"/><path class="cls-3" d="M27.85,16c-.39.26-.55.31-.82.49-4.58,2.75-8.17,6.83-6.71,12l-3.84,1.12c-1.89-6.8,1.84-12.21,7.73-16C25.22,14.46,25.7,14.42,27.85,16Z"/><path class="cls-3" d="M47.52,29.56l-3.84-1.12c1.58-5.58-2.59-9.5-7.53-12.46,2.14-1.55,2.61-1.5,3.64-2.47C45.67,17.34,49.41,22.74,47.52,29.56Z"/><path class="cls-4" d="M45.6,29c1.78-6.18-2.49-11.47-8-14.48C34.92,13,34.8,11,34.18,11S33,12,33,12c-.46-1.32-1.47-1.34-1.94,0,0,0-.59-1-1.21-1s-.74,2-3.42,3.52c-5.51,3-9.79,8.29-8,14.48Z"/><rect class="cls-5" x="1" y="35" width="62" height="18"/><rect class="cls-6" x="1" y="50" width="62" height="3"/><rect class="cls-7" x="3" y="29" width="58" height="6"/><rect class="cls-6" x="3" y="33" width="58" height="2"/><path class="cls-3" d="M57.94,27a9.6,9.6,0,0,1-.34,2H6.4a9.6,9.6,0,0,1-.34-2Z"/><path class="cls-8" d="M63,34H62V29a1,1,0,0,0-1-1H58.83c1-6.41-3.28-11.24-8.74-14.35C47.44,12.14,47.73,10,46.18,10a1.85,1.85,0,0,0-1.11.4,1.63,1.63,0,0,0-2.14,0,1.85,1.85,0,0,0-1.11-.4c-1.61,0-1.13,2-3.82,3.59C35.35,12,35.76,10,34.18,10a1.85,1.85,0,0,0-1.11.4,1.63,1.63,0,0,0-2.14,0,1.85,1.85,0,0,0-1.11-.4c-1.61,0-1.13,2-3.82,3.59C23.35,12,23.76,10,22.18,10a1.85,1.85,0,0,0-1.11.4,1.63,1.63,0,0,0-2.14,0,1.85,1.85,0,0,0-1.11-.4c-1.59,0-1.17,2.09-3.91,3.65C8.58,16.69,4.15,21.5,5.17,28H3a1,1,0,0,0-1,1v5H1a1,1,0,0,0-1,1V53a1,1,0,0,0,1,1H63a1,1,0,0,0,1-1V35A1,1,0,0,0,63,34ZM42,12.27c.18.22.42.79,1.12.72a1,1,0,0,0,.88-.72,1,1,0,0,0,.87.73c.7.06,1-.51,1.13-.73a7.87,7.87,0,0,0,3.1,3.12c4.76,2.7,8.8,6.91,7.71,12.61h-10c.9-5.7-2.2-9.93-7-13.24A7.87,7.87,0,0,0,42,12.27Zm-12,0c.17.22.43.79,1.12.72a1,1,0,0,0,.88-.72,1,1,0,0,0,.87.73c.7.06,1-.51,1.13-.73a8.1,8.1,0,0,0,3.48,3.34c4.65,2.79,8.38,6.92,7.33,12.39H19.19A11.63,11.63,0,0,1,19,25.76c0-4.36,4.26-8.36,7.89-10.37A7.84,7.84,0,0,0,30,12.27ZM14.89,15.39A7.84,7.84,0,0,0,18,12.27c.18.22.42.79,1.12.72a1,1,0,0,0,.88-.72,1,1,0,0,0,.87.73c.7.06.95-.51,1.13-.73a7.87,7.87,0,0,0,2.15,2.49c-4.76,3.29-7.88,7.52-7,13.24h-10C6.09,22.25,10.23,18.05,14.89,15.39ZM4,30H60v4H4ZM2,36H7.18c-.26.74-.18,1.14-.18,3H6a1,1,0,0,0,0,2H7v6H6a1,1,0,0,0,0,2H7c0,2.1-.06,2.32.18,3H2ZM62,52H10a1,1,0,0,1-1-1V49h1a1,1,0,0,0,0-2H9V41h1a1,1,0,0,0,0-2H9V37a1,1,0,0,1,1-1H62Z"/></g></svg>