<svg xmlns="http://www.w3.org/2000/svg" xmlns:xlink="http://www.w3.org/1999/xlink" viewBox="0 0 64 64"><defs><style>.cls-1{fill:url(#linear-gradient);}.cls-2{fill:#cba07a;}.cls-3{fill:url(#linear-gradient-2);}.cls-4{fill:#f2b1d9;}.cls-5{fill:#d861b0;}.cls-6{fill:#231f20;}</style><linearGradient id="linear-gradient" x1="32" y1="63" x2="32" y2="1" gradientUnits="userSpaceOnUse"><stop offset="0" stop-color="#d1a788"/><stop offset="1" stop-color="#f2d3b8"/></linearGradient><linearGradient id="linear-gradient-2" x1="32" y1="57" x2="32" y2="1" gradientUnits="userSpaceOnUse"><stop offset="0" stop-color="#d96bb0"/><stop offset="1" stop-color="#e49fc6"/></linearGradient></defs><title>Donut</title><g id="Donut"><path class="cls-1" d="M32,1A31,31,0,1,0,63,32,31,31,0,0,0,32,1Zm0,20A11,11,0,1,1,21,32,11,11,0,0,1,32,21Z"/><path class="cls-2" d="M32,63C13.68,63,0,47.24,1,30.6A31,31,0,0,0,63,30.6C64.05,47.28,50.28,63,32,63Z"/><path class="cls-3" d="M57.06,20.28c-.6-2.26-.53-4.8-1.67-6.78s-3.42-3.21-5-4.84c-1-1-2.33-2.86-3.17-3.7A31.06,31.06,0,0,0,16.83,5c-.55.54.25.28-3.17,3.7C12,10.29,9.78,11.49,8.61,13.5S7.54,18,6.94,20.28,5,24.63,5,27s1.35,4.53,1.94,6.72.53,4.8,1.67,6.78,3.42,3.21,5.05,4.84c4,4,1.25,8.43,2.93,10.07A2,2,0,0,0,20,53.89v-1a1.6,1.6,0,0,1,2.31-1.43C24.22,52.45,24,52.69,24,55a2,2,0,0,0,.59,1.41A2,2,0,0,0,28,55a1.4,1.4,0,0,1,1.8-1.34c2.28.66,3.8.36,8.11-1.14A1.57,1.57,0,0,1,40,54a2,2,0,0,0,4,0V49a2,2,0,0,1,4,0v1a2,2,0,0,0,4,0c0-5.44,2.72-8.28,3.39-9.5,1.14-2,1.07-4.52,1.67-6.78S59,29.37,59,27,57.65,22.47,57.06,20.28ZM32,43A11,11,0,1,1,43,32,11,11,0,0,1,32,43Z"/><path class="cls-3" d="M57.06,20.28c-.6-2.26-.53-4.8-1.67-6.78s-3.42-3.21-5-4.84c-1-1-2.33-2.86-3.17-3.7A31.06,31.06,0,0,0,16.83,5c-.55.54.25.28-3.17,3.7C12,10.29,9.78,11.49,8.61,13.5S7.54,18,6.94,20.28,5,24.63,5,27s1.35,4.53,1.94,6.72.53,4.8,1.67,6.78,3.42,3.21,5.05,4.84c4,4,1.25,8.43,2.93,10.07A2,2,0,0,0,20,53.89v-1a1.6,1.6,0,0,1,2.31-1.43C24.22,52.45,24,52.69,24,55a2,2,0,0,0,.59,1.41A2,2,0,0,0,28,55a1.4,1.4,0,0,1,1.8-1.34c2.28.66,3.8.36,8.11-1.14A1.57,1.57,0,0,1,40,54a2,2,0,0,0,4,0V49a2,2,0,0,1,4,0v1a2,2,0,0,0,4,0c0-5.44,2.72-8.28,3.39-9.5,1.14-2,1.07-4.52,1.67-6.78S59,29.37,59,27,57.65,22.47,57.06,20.28ZM32,43A11,11,0,1,1,43,32,11,11,0,0,1,32,43Z"/><path class="cls-4" d="M57.06,20.28c-.6-2.26-.53-4.8-1.67-6.78s-3.42-3.21-5-4.84c-1-1-2.33-2.86-3.17-3.7A31.06,31.06,0,0,0,16.83,5c-.55.54.25.28-3.17,3.7C12,10.29,9.78,11.49,8.61,13.5S7.54,18,6.94,20.28C6.22,22.94,4.64,25.1,5.08,28c.29-2,1.35-3.84,1.86-5.72.6-2.26.53-4.8,1.67-6.78s3.42-3.21,5.05-4.84C17,7.33,16.32,7.49,16.82,7a31.14,31.14,0,0,1,5.84-2.54C26,3.9,26.7,3,32,3s6.25.94,9.34,1.43A27.25,27.25,0,0,1,47.18,7c1.12,1.16,2,2.57,3.16,3.69,1.63,1.63,3.88,2.83,5,4.84s1.07,4.52,1.67,6.78c.51,1.88,1.57,3.73,1.86,5.72C59.36,25.1,57.76,22.86,57.06,20.28Z"/><path class="cls-5" d="M43,33a11,11,0,0,1-21.9,0A11,11,0,1,0,43,33Z"/><path class="cls-6" d="M45.74,3.11C24.33-7.08,0,8.72,0,32A32,32,0,1,0,45.74,3.11ZM46,46a3,3,0,0,0-3,3v5a1,1,0,0,1-2,0,2.56,2.56,0,0,0-3.42-2.42c-4.31,1.49-5.59,1.68-7.5,1.12A2.4,2.4,0,0,0,27,55a1,1,0,0,1-1.71.69C24.9,55.32,25,55,25,53.47c0-1.75-1.27-2.37-2.24-2.85a2.57,2.57,0,0,0-2.53.11c-1.33.82-1.23,2-1.23,3.16a1,1,0,0,1-1.71.8c-.39-.37-.29-.5-.29-3.74a9,9,0,0,0-2.63-6.32,24.62,24.62,0,0,0-2-1.71c-5.34-4.26-2.63-5-5.32-11.86C4.54,24.63,7.27,25.29,8.4,18c.58-3.78,1-4.47,4-6.88C14,9.83,16.66,7.28,17.45,5.8c.29-.55,14.35-8.21,29.11,0,1,1.11,1.93,2.46,3.07,3.61C51.28,11,53.48,12.21,54.52,14s1,4.27,1.57,6.54S58,24.87,58,27s-1.32,4.27-1.91,6.46-.54,4.77-1.58,6.56C53.82,41.28,51,44.26,51,50a1,1,0,0,1-2,0V49A3,3,0,0,0,46,46ZM32,62C8.39,62-6,35.81,6.74,15.86,6.4,17.49,6.31,18.77,6,20c-.58,2.16-2,4.37-2,7s1.39,4.8,2,7,.51,4.83,1.78,7,3.56,3.4,5.23,5.08C15.35,48.44,15,51,15,54a3,3,0,0,0,3.27,3A3.09,3.09,0,0,0,21,53.89v-1a.59.59,0,0,1,.87-.53c.8.39,1.13.49,1.13,1.06,0,1.5-.17,2.62.87,3.64a3,3,0,0,0,4.24,0c1.17-1.15.67-2.16,1.05-2.44s1,.31,2.84.31a23.2,23.2,0,0,0,6.24-1.54A.58.58,0,0,1,39,54a3,3,0,0,0,6,0V49a1,1,0,0,1,2,0v1c0,3.86,6,4.26,6-.38s2.77-7.74,3.26-8.62c1.25-2.18,1.19-4.84,1.77-7s2-4.37,2-7-1.39-4.8-2-7c-.33-1.21-.43-2.54-.77-4.16C70,35.77,55.66,62,32,62Z"/><path class="cls-6" d="M32,20A12,12,0,1,0,44,32,12,12,0,0,0,32,20Zm0,22A10,10,0,1,1,42,32,10,10,0,0,1,32,42Z"/><path class="cls-6" d="M34,14h2a1,1,0,0,0,0-2H34A1,1,0,0,0,34,14Z"/><path class="cls-6" d="M40.55,18.89C42.75,20,42.68,20,43,20a1,1,0,0,0,.45-1.89l-2-1A1,1,0,0,0,40.55,18.89Z"/><path class="cls-6" d="M49,26a1,1,0,0,0,.45-1.89l-2-1a1,1,0,0,0-.9,1.78C48.75,26,48.68,26,49,26Z"/><path class="cls-6" d="M49,33h2a1,1,0,0,0,0-2H49A1,1,0,0,0,49,33Z"/><path class="cls-6" d="M56,28V26a1,1,0,0,0-2,0v2A1,1,0,0,0,56,28Z"/><path class="cls-6" d="M50,18V16a1,1,0,0,0-2,0v2A1,1,0,0,0,50,18Z"/><path class="cls-6" d="M44,9H42a1,1,0,0,0,0,2h2A1,1,0,0,0,44,9Z"/><path class="cls-6" d="M19,24V22a1,1,0,0,0-2,0v2A1,1,0,0,0,19,24Z"/><path class="cls-6" d="M13,22V19a1,1,0,0,0-2,0v3A1,1,0,0,0,13,22Z"/><path class="cls-6" d="M19.62,39.86l-3-1a1,1,0,0,0-.63,1.9l3,1A1,1,0,0,0,19.62,39.86Z"/><path class="cls-6" d="M26,45H23a1,1,0,0,0,0,2h3A1,1,0,0,0,26,45Z"/><path class="cls-6" d="M31.89,46.55a1,1,0,0,0-1.78.9c1,2,1.1,2.55,1.89,2.55a1,1,0,0,0,.89-1.45Z"/><path class="cls-6" d="M41.68,45.05l-3,1a1,1,0,0,0,.64,1.9l3-1A1,1,0,0,0,41.68,45.05Z"/><path class="cls-6" d="M50,41a1,1,0,0,0,.71-1.71l-2-2a1,1,0,0,0-1.42,1.42C49.47,40.89,49.46,41,50,41Z"/><path class="cls-6" d="M25,17l2,1a1,1,0,0,0,.89-1.79l-2-1A1,1,0,0,0,25,17Z"/><path class="cls-6" d="M15.59,32.66l-1-2a1,1,0,0,0-1.79.89l1,2A1,1,0,0,0,15.59,32.66Z"/><path class="cls-6" d="M32,7V5a1,1,0,0,0-2,0V7A1,1,0,0,0,32,7Z"/><path class="cls-6" d="M21.73,9.45c2.2,1.09,2.13,1.1,2.45,1.1a1,1,0,0,0,.45-1.89l-2-1A1,1,0,0,0,21.73,9.45Z"/><path class="cls-6" d="M18,16h2a1,1,0,0,0,0-2H18A1,1,0,0,0,18,16Z"/></g></svg>