<svg xmlns="http://www.w3.org/2000/svg" xmlns:xlink="http://www.w3.org/1999/xlink" viewBox="0 0 64 64"><defs><style>.cls-1{fill:url(#linear-gradient);}.cls-2{fill:url(#linear-gradient-2);}.cls-3{fill:url(#linear-gradient-3);}.cls-4{fill:#cba07a;}.cls-5{fill:#231f20;}</style><linearGradient id="linear-gradient" x1="38.42" y1="50.15" x2="38.42" y2="1.01" gradientUnits="userSpaceOnUse"><stop offset="0" stop-color="#d1a788"/><stop offset="1" stop-color="#f2d3b8"/></linearGradient><linearGradient id="linear-gradient-2" x1="33.59" y1="57.24" x2="33.59" y2="3.58" gradientUnits="userSpaceOnUse"><stop offset="0" stop-color="#da5466"/><stop offset="1" stop-color="#f4929c"/></linearGradient><linearGradient id="linear-gradient-3" x1="26.74" y1="63.05" x2="26.74" y2="11.47" xlink:href="#linear-gradient"/></defs><title>Hotdog</title><g id="Hotdog"><path class="cls-1" d="M60.38,50.15,31,32,13.85,3.62c2.33-3.06,6.84-3.94,11,.19s9.64,16.08,14.47,20.9,16.88,10.45,20.9,14.47S63.43,47.83,60.38,50.15Z"/><path class="cls-2" d="M52.33,57A6.5,6.5,0,0,0,57,45c-5.77-3.16-14.69-7.62-22.58-15.5S22.12,12.73,19,7A6.5,6.5,0,0,0,7,11.67L26,38Z"/><path class="cls-3" d="M15.17,48.83c-25.38-25.38-11-44.81-.8-34.57,4,4,9.64,16.08,14.47,20.9s16.88,10.45,20.9,14.47C60,59.86,40.58,74.24,15.17,48.83Z"/><path class="cls-4" d="M50.54,60.08c-2.41,2.42-15.27,8.85-35.37-11.25C3,36.68.56,27.17,1.06,21c.46,6.07,3.78,14.48,14.11,24.81,20.1,20.1,33,13.67,35.37,11.25a6.74,6.74,0,0,0,1.82-3.14A6.38,6.38,0,0,1,50.54,60.08Z"/><path class="cls-5" d="M64,45c0-6.11-7.28-9.86-12.88-13.27-11.44-7-11.88-7.41-18.86-18.86-2.43-4-4.73-7.77-6.74-9.77-4.39-4.4-9.35-3.74-12.12-.52A7.49,7.49,0,0,0,5.83,11c-7.24,3-11.21,18.69,8.63,38.54C21.66,56.73,31.37,64,41.5,64c4.37,0,9.69-1.48,11.5-5.82a7.5,7.5,0,0,0,8.41-7.58A7.56,7.56,0,0,0,64,45ZM24.11,4.52c3.87,3.88,9.55,16,14.47,20.9S55.63,36,59.48,39.89c3.05,3,3.06,6,1.47,8.25-1.08-2.93-3.16-3.84-5.15-4.91-18.16-9.83-25.18-16.84-35-35-1.12-2.08-2-4.08-4.91-5.15C17.89,1.59,20.92,1.33,24.11,4.52ZM39.59,61.9c-7.22-.72-15.42-5.48-23.71-13.78C-4.37,27.87,1.44,12.46,8.54,12.46c5,0,8.6,7,11.56,11.91,7.14,11.72,7.78,12.37,19.53,19.53,3.89,2.37,7.57,4.61,9.4,6.44C55,56.26,49.85,62.93,39.59,61.9Zm13.92-5.69c.72-6.41-6.92-10.41-12.84-14-11.44-7-11.89-7.42-18.86-18.86-3.48-5.72-7.54-13.56-14-12.84-.44-5.8,7.45-8.25,10.3-3,4.28,7.81,8.17,15.3,15.67,22.79C41,37.52,48.33,41.41,56.55,45.91,61.77,48.77,59.3,56.65,53.51,56.21Z"/><path class="cls-5" d="M55.29,46.64c-2.28-1.21-2.4,0-4.52-1.27C49.9,44.85,49.05,43,47.48,42c-1.39-.9-3.34-.84-4.45-1.62s-1.65-2.56-3-3.62-3.32-1.17-4.27-2S34.36,32,33.16,30.84s-3.09-1.61-3.92-2.57-.94-2.89-2-4.27-2.93-2-3.62-3-.72-3-1.61-4.44c-1-1.54-2.87-2.44-3.39-3.3-1.27-2.12-.05-2.22-1.27-4.52a1,1,0,0,0-1.77.93c.87,1.63-.22,2,1.33,4.62.83,1.39,2.59,2.07,3.42,3.36.63,1,.6,3,1.65,4.5s2.82,2,3.67,3.1.89,3,2.06,4.35,3.08,1.74,4,2.68,1.31,2.85,2.68,4,3.3,1.26,4.35,2.07S40.43,41,41.88,42s3.58,1.06,4.51,1.66c1.29.83,2,2.59,3.36,3.42,2.57,1.53,3,.46,4.61,1.32A1,1,0,0,0,55.29,46.64Z"/></g></svg>