<svg xmlns="http://www.w3.org/2000/svg" xmlns:xlink="http://www.w3.org/1999/xlink" viewBox="0 0 64 64"><defs><style>.cls-1{fill:#fce2d0;}.cls-2{fill:url(#linear-gradient);}.cls-3{fill:url(#linear-gradient-2);}.cls-4{fill:#cba07a;}.cls-5{fill:url(#linear-gradient-3);}.cls-6{fill:#e8c4a6;}.cls-7{fill:#c7cdd8;}.cls-8{fill:#231f20;}</style><linearGradient id="linear-gradient" x1="32" y1="46" x2="32" y2="33" gradientUnits="userSpaceOnUse"><stop offset="0" stop-color="#d1a788"/><stop offset="1" stop-color="#f2d3b8"/></linearGradient><linearGradient id="linear-gradient-2" y1="63" y2="46" xlink:href="#linear-gradient"/><linearGradient id="linear-gradient-3" x1="31.85" y1="29" x2="31.85" y2="1" gradientUnits="userSpaceOnUse"><stop offset="0" stop-color="#d4d8e1"/><stop offset="1" stop-color="#f3f4f5"/></linearGradient></defs><title>Ice Cream</title><g id="Ice_Cream" data-name="Ice Cream"><path class="cls-1" d="M46,33H18a2,2,0,0,1,0-4H46A2,2,0,0,1,46,33Z"/><path class="cls-2" d="M46,33,44,46H20c-.48-3.14-1.46-9.5-2-13Z"/><path class="cls-3" d="M42.5,46c-.58,4-1.34,9.09-2.5,17H24c-1.23-8.36-1.93-13.06-2.5-17Z"/><polygon class="cls-4" points="40.44 60 40 63 24 63 23.56 60 40.44 60"/><path class="cls-5" d="M46,29H20c-5,0-5-10,2-10-4,0-4-7,3-7,2,0,6-1,6-6s-2-5-2-5,8.75,0,9.88,9A15.7,15.7,0,0,1,39,12c5.06,1,6,4.06,4,7C46.55,20.19,48.72,24.45,46,29Z"/><polygon class="cls-6" points="46 33 45.69 35 18.31 35 18 33 46 33"/><polygon class="cls-6" points="42.5 46 42.21 48 21.79 48 21.5 46 42.5 46"/><path class="cls-7" d="M46.85,27.19A9.46,9.46,0,0,1,46,29H20a3.21,3.21,0,0,1-2.9-1.78A2,2,0,0,1,18,27C48.58,27,46.26,26.92,46.85,27.19Z"/><path class="cls-8" d="M47.45,28.39a7.39,7.39,0,0,0-3-9.86c1.39-3,.25-6.11-4.43-7.33C39.52.43,29.66,0,29,0a1,1,0,1,0-.12,2c1.26.51,2.86,9-3.91,9-6.11,0-7.95,5-5.93,7.62a6.69,6.69,0,0,0-2.42,9.72,3,3,0,0,0,.47,5.51L19,46.15A1,1,0,0,0,20,47h.64L23,63.15A1,1,0,0,0,24,64H40a1,1,0,0,0,1-.85L43.36,47H44a1,1,0,0,0,1-.85l1.89-12.3A3,3,0,0,0,47.45,28.39ZM22,20H34a1,1,0,0,0,0-2H22c-2.69,0-2.58-5,3-5,2.6,0,7-1.47,7-7a11.3,11.3,0,0,0-.49-3.6C34,3.13,37.59,5.19,38,11H34a1,1,0,0,0,0,2h4.89c3.07.64,5.09,2.22,3.55,5H38a1,1,0,0,0,0,2h4.81c2.85,1.05,4.49,4.37,2.6,8H20C16.35,28,16.31,20,22,20ZM39.14,62H24.86l-2.2-15H41.34Zm4-17H20.86L19.17,34H44.83ZM46,32H18a1,1,0,0,1,0-2H46A1,1,0,0,1,46,32Z"/></g></svg>