<svg xmlns="http://www.w3.org/2000/svg" xmlns:xlink="http://www.w3.org/1999/xlink" viewBox="0 0 64 64"><defs><style>.cls-1{fill:url(#linear-gradient);}.cls-2{fill:#8a6762;}.cls-3{fill:url(#linear-gradient-2);}.cls-4{fill:#f2b1d9;}.cls-5{fill:url(#linear-gradient-3);}.cls-6{fill:#e8c4a6;}.cls-7{fill:#231f20;}</style><linearGradient id="linear-gradient" x1="32" y1="44" x2="32" y2="1" gradientUnits="userSpaceOnUse"><stop offset="0" stop-color="#9b756d"/><stop offset="1" stop-color="#bc9388"/></linearGradient><linearGradient id="linear-gradient-2" x1="32" y1="37" x2="32" y2="1" gradientUnits="userSpaceOnUse"><stop offset="0" stop-color="#d96bb0"/><stop offset="1" stop-color="#e49fc6"/></linearGradient><linearGradient id="linear-gradient-3" x1="32" y1="63" x2="32" y2="44" gradientUnits="userSpaceOnUse"><stop offset="0" stop-color="#d1a788"/><stop offset="1" stop-color="#f2d3b8"/></linearGradient></defs><title>Stick Ice</title><g id="Stick_Ice" data-name="Stick Ice"><path class="cls-1" d="M42,44H22a4,4,0,0,1-4-4V15a14,14,0,0,1,28,0V40A4,4,0,0,1,42,44Z"/><path class="cls-2" d="M46,37v3a4,4,0,0,1-4,4H22a4,4,0,0,1-4-4V37a4,4,0,0,0,4,4H42A4,4,0,0,0,46,37Z"/><path class="cls-3" d="M18,15v7a5,5,0,0,1,5,5v4a3,3,0,0,0,6,0V27a3,3,0,0,1,6,0v7a3,3,0,0,0,6,0V32a5,5,0,0,1,5-5V15a14,14,0,0,0-28,0Z"/><path class="cls-4" d="M46,15v2a14,14,0,0,0-28,0V15a14,14,0,0,1,4.1-9.9C30.92-3.69,46,2.59,46,15Z"/><path class="cls-2" d="M23,29a5,5,0,0,0-5-5V22a5,5,0,0,1,3.54,1.46C23.28,25.22,23,27.09,23,29Z"/><path class="cls-2" d="M28.12,33.12A3,3,0,0,0,29,31v2a3,3,0,0,1-6,0V31A3,3,0,0,0,28.12,33.12Z"/><path class="cls-2" d="M40.12,36.12A3,3,0,0,0,41,34v2a3,3,0,0,1-6,0V34A3,3,0,0,0,40.12,36.12Z"/><path class="cls-2" d="M46,27v2a5,5,0,0,0-5,5V32A5,5,0,0,1,46,27Z"/><path class="cls-5" d="M32,63a3,3,0,0,1-3-3V44h6V60A3,3,0,0,1,32,63Z"/><rect class="cls-6" x="29" y="44" width="6" height="3"/><path class="cls-7" d="M32,0A15,15,0,0,0,17,15V40a5,5,0,0,0,5,5h6V60a4,4,0,0,0,8,0V45h6a5,5,0,0,0,5-5V15A15,15,0,0,0,32,0ZM19,15a13,13,0,0,1,26,0V26.08A6,6,0,0,0,40,32v2a2,2,0,0,1-4,0V27a4,4,0,0,0-8,0v4a2,2,0,0,1-4,0V27a6,6,0,0,0-5-5.92ZM34,60a2,2,0,0,1-4,0V45h4Zm8-17H22a3,3,0,0,1-3-3V23.14A4,4,0,0,1,22,27v4a4,4,0,0,0,8,0V27a2,2,0,0,1,4,0v7a4,4,0,0,0,8,0V32a4,4,0,0,1,3-3.86V40A3,3,0,0,1,42,43Z"/><path class="cls-7" d="M24.11,17.45l1,2a1,1,0,0,0,1.78-.9l-1-2A1,1,0,0,0,24.11,17.45Z"/><path class="cls-7" d="M32,16h2a1,1,0,0,0,0-2H32A1,1,0,0,0,32,16Z"/><path class="cls-7" d="M38.55,9.89C40.75,11,40.68,11,41,11a1,1,0,0,0,.45-1.89l-2-1A1,1,0,0,0,38.55,9.89Z"/><path class="cls-7" d="M33,8V6a1,1,0,0,0-2,0V8A1,1,0,0,0,33,8Z"/><path class="cls-7" d="M37.55,20.89C39.75,22,39.68,22,40,22a1,1,0,0,0,.45-1.89l-2-1A1,1,0,0,0,37.55,20.89Z"/><path class="cls-7" d="M23.89,11.45l1-2a1,1,0,0,0-1.78-.9l-1,2A1,1,0,0,0,23.89,11.45Z"/></g></svg>