<svg xmlns="http://www.w3.org/2000/svg" xmlns:xlink="http://www.w3.org/1999/xlink" viewBox="0 0 64 64"><defs><style>.cls-1{fill:url(#linear-gradient);}.cls-2{fill:#dd8b37;}.cls-3{fill:url(#linear-gradient-2);}.cls-4{fill:#77cacb;}.cls-5{fill:url(#linear-gradient-3);}.cls-6{fill:#f6b756;}.cls-7{fill:url(#linear-gradient-4);}.cls-8{fill:#231f20;}</style><linearGradient id="linear-gradient" x1="19" y1="23" x2="19" y2="3" gradientUnits="userSpaceOnUse"><stop offset="0" stop-color="#e9a254"/><stop offset="1" stop-color="#f4bb79"/></linearGradient><linearGradient id="linear-gradient-2" x1="33" y1="63" x2="33" y2="13" gradientUnits="userSpaceOnUse"><stop offset="0" stop-color="#9dd5df"/><stop offset="1" stop-color="#c3e1f5"/></linearGradient><linearGradient id="linear-gradient-3" x1="33" y1="58" x2="33" y2="26" gradientUnits="userSpaceOnUse"><stop offset="0" stop-color="#fbcc88"/><stop offset="1" stop-color="#ffe5c3"/></linearGradient><linearGradient id="linear-gradient-4" x1="24" y1="23" x2="24" y2="13" xlink:href="#linear-gradient-3"/></defs><title>Juice</title><g id="Juice"><circle class="cls-1" cx="19" cy="13" r="10"/><path class="cls-2" d="M19,23A10,10,0,0,1,9.05,12,10,10,0,0,0,29,12,10,10,0,0,1,19,23Z"/><path class="cls-3" d="M19,13H47a0,0,0,0,1,0,0V61a2,2,0,0,1-2,2H21a2,2,0,0,1-2-2V13A0,0,0,0,1,19,13Z"/><path class="cls-4" d="M47,58v3a2,2,0,0,1-2,2H21a2,2,0,0,1-2-2V58a2,2,0,0,0,2,2H45A2,2,0,0,0,47,58Z"/><path class="cls-5" d="M23,26H43a0,0,0,0,1,0,0V56a2,2,0,0,1-2,2H25a2,2,0,0,1-2-2V26A0,0,0,0,1,23,26Z"/><path class="cls-6" d="M43,53v3a2,2,0,0,1-2,2H25a2,2,0,0,1-2-2V53a2,2,0,0,0,2,2H41A2,2,0,0,0,43,53Z"/><path class="cls-7" d="M19,13c10.61,0,10,.1,10,0A10,10,0,0,1,19,23Z"/><path class="cls-6" d="M29,13A10,10,0,0,1,19,23V21a10,10,0,0,0,9.8-8Z"/><path class="cls-8" d="M29.5,16.25a1,1,0,0,0-1.92-.58,8.91,8.91,0,0,1-5.91,5.92,1,1,0,0,0,.58,1.91A10.92,10.92,0,0,0,29.5,16.25Z"/><path class="cls-8" d="M55,0H44a1,1,0,0,0-1,.83L41,12H30A11,11,0,1,0,18,24V61a3,3,0,0,0,3,3H45a3,3,0,0,0,3-3V13a1,1,0,0,0-1-1H43.07L44.84,2H55A1,1,0,0,0,55,0ZM10,13a9,9,0,0,1,9-9,8.92,8.92,0,0,1,8.92,8H19a1,1,0,0,0-1,1v8.92A8.92,8.92,0,0,1,10,13Zm36,1V61a1,1,0,0,1-1,1H21a1,1,0,0,1-1-1V14H40.69L38.75,25H23a1,1,0,0,0-1,1V56a3,3,0,0,0,3,3H41a3,3,0,0,0,3-3V26a1,1,0,0,0-1-1H40.78l1.94-11ZM36,52.17,40.43,27H42V56a1,1,0,0,1-1,1H25a1,1,0,0,1-1-1V27H38.4L34,51.83A1,1,0,0,0,36,52.17Z"/></g></svg>