<svg xmlns="http://www.w3.org/2000/svg" xmlns:xlink="http://www.w3.org/1999/xlink" viewBox="0 0 64 64"><defs><style>.cls-1{fill:url(#linear-gradient);}.cls-2{fill:#42455e;}.cls-3{fill:url(#linear-gradient-2);}.cls-4{fill:url(#linear-gradient-3);}.cls-5{fill:url(#linear-gradient-6);}.cls-6{fill:url(#linear-gradient-7);}.cls-7{fill:url(#linear-gradient-8);}.cls-8{fill:#c7cdd8;}.cls-9{fill:url(#linear-gradient-10);}.cls-10{fill:url(#linear-gradient-11);}.cls-11{fill:url(#linear-gradient-12);}.cls-12{fill:#231f20;}</style><linearGradient id="linear-gradient" x1="20.5" y1="39.5" x2="43.5" y2="16.5" gradientUnits="userSpaceOnUse"><stop offset="0" stop-color="#474f72"/><stop offset="1" stop-color="#878c9f"/></linearGradient><linearGradient id="linear-gradient-2" x1="4.05" y1="55.84" x2="28.95" y2="30.95" xlink:href="#linear-gradient"/><linearGradient id="linear-gradient-3" x1="35.05" y1="55.84" x2="59.95" y2="30.95" xlink:href="#linear-gradient"/><linearGradient id="linear-gradient-6" x1="16.5" y1="39" x2="16.5" y2="29" gradientUnits="userSpaceOnUse"><stop offset="0" stop-color="#d4d8e1"/><stop offset="1" stop-color="#f3f4f5"/></linearGradient><linearGradient id="linear-gradient-7" x1="16.5" y1="34.98" x2="16.5" y2="31.02" gradientUnits="userSpaceOnUse"><stop offset="0" stop-color="#da5466"/><stop offset="1" stop-color="#f4929c"/></linearGradient><linearGradient id="linear-gradient-8" x1="47.5" x2="47.5" xlink:href="#linear-gradient-6"/><linearGradient id="linear-gradient-10" x1="47.5" y1="34.98" x2="47.5" y2="31.02" xlink:href="#linear-gradient-7"/><linearGradient id="linear-gradient-11" x1="32" y1="25" x2="32" y2="15" xlink:href="#linear-gradient-6"/><linearGradient id="linear-gradient-12" x1="32" y1="20.98" x2="32" y2="17.02" xlink:href="#linear-gradient-7"/></defs><title>Kimbab</title><g id="Kimbab"><rect class="cls-1" x="17" y="20" width="30" height="16"/><path class="cls-2" d="M34,34c0,3.47-4.5,5.2-7.87,6H17V27C22.65,27.06,34,28.38,34,34Z"/><path class="cls-2" d="M47,27V40H37.87C34.51,39.2,30,37.47,30,34,30,28.39,41.32,27.06,47,27Z"/><path class="cls-3" d="M32,34V52c0,2.76-6.94,5-15.5,5S1,54.76,1,52V34"/><path class="cls-4" d="M63,34V52c0,2.76-6.94,5-15.5,5S32,54.76,32,52V34"/><path class="cls-3" d="M32,34V52c0,2.76-6.94,5-15.5,5S1,54.76,1,52V34"/><path class="cls-4" d="M63,34V52c0,2.76-6.94,5-15.5,5S32,54.76,32,52V34"/><path class="cls-2" d="M32,50v2c0,2.76-6.94,5-15.5,5S1,54.76,1,52V50c0,2.76,6.94,5,15.5,5S32,52.76,32,50Z"/><path class="cls-2" d="M63,50v2c0,2.76-6.94,5-15.5,5S32,54.76,32,52V50c0,2.76,6.94,5,15.5,5S63,52.76,63,50Z"/><ellipse class="cls-5" cx="16.5" cy="34" rx="15.5" ry="5"/><path class="cls-6" d="M25,33c0,2.64-17,2.64-17,0S25,30.36,25,33Z"/><ellipse class="cls-7" cx="47.5" cy="34" rx="15.5" ry="5"/><ellipse class="cls-7" cx="47.5" cy="34" rx="15.5" ry="5"/><path class="cls-8" d="M32,34c0,2.76-6.94,5-15.5,5S1,36.76,1,34a1.89,1.89,0,0,1,.31-1c3.33,5.31,27.05,5.31,30.38,0A1.89,1.89,0,0,1,32,34Z"/><path class="cls-8" d="M63,34c0,2.76-6.94,5-15.5,5S32,36.76,32,34a1.89,1.89,0,0,1,.31-1c3.33,5.31,27.05,5.31,30.38,0A1.89,1.89,0,0,1,63,34Z"/><path class="cls-9" d="M56,33c0,2.64-17,2.64-17,0S56,30.36,56,33Z"/><ellipse class="cls-10" cx="32" cy="20" rx="15" ry="5"/><path class="cls-8" d="M47,20c0,2.76-6.72,5-15,5s-15-2.24-15-5a2,2,0,0,1,.3-1c3.22,5.31,26.18,5.31,29.4,0A2,2,0,0,1,47,20Z"/><path class="cls-11" d="M40.23,19c0,2.64-16.46,2.64-16.46,0S40.23,16.36,40.23,19Z"/><path class="cls-12" d="M48,28V20c0-8-32-8-32,0v8c-8,.08-16,2.13-16,6V52c0,7.11,26.4,8,32,2.19C37.63,60,64,59.07,64,52V34C64,30.14,56,28.09,48,28Zm14,6c0,1.63-5.65,4-14.5,4S33,35.63,33,34s5.22-3.81,13.49-4c-2.65.08-8.49.53-8.49,3,0,2.86,7.91,3,9.5,3s9.5-.14,9.5-3c0-2.45-5.84-2.9-8.49-3C56.78,30.19,62,32.43,62,34ZM23.67,33c-2.91,1.33-11.43,1.33-14.34,0C12.24,31.67,20.76,31.67,23.67,33Zm31,0c-2.91,1.33-11.43,1.33-14.34,0C43.24,31.67,51.76,31.67,54.67,33ZM32,31.81c-2.25-2.31-8-3.6-14-3.79v-5c5.82,3.92,22.18,3.92,28,0v5C40,28.21,34.25,29.5,32,31.81ZM38.93,19c-2.77,1.33-11.07,1.34-13.86,0C27.84,17.67,36.14,17.66,38.93,19ZM31,16c-2.58.08-8.24.53-8.24,3,0,2.86,7.69,3,9.23,3s9.23-.14,9.23-3c0-2.45-5.66-2.9-8.24-3,8,.17,13,2.41,13,4s-5.45,4-14,4-14-2.37-14-4S23,16.19,31,16ZM15.49,30C12.84,30.1,7,30.55,7,33c0,2.86,7.91,3,9.5,3s9.5-.14,9.5-3c0-2.45-5.84-2.9-8.49-3C25.78,30.19,31,32.43,31,34s-5.65,4-14.5,4S2,35.63,2,34,7.22,30.19,15.49,30Zm1,26C7.65,56,2,53.63,2,52V37c6,4,23,4,29,0V52C31,53.63,25.35,56,16.5,56Zm31,0C38.65,56,33,53.63,33,52V37c6,4,23,4,29,0V52C62,53.63,56.35,56,47.5,56Z"/><path class="cls-12" d="M9,52a1,1,0,0,0,0,2A1,1,0,0,0,9,52Z"/><path class="cls-12" d="M5,49a1,1,0,0,0,0,2A1,1,0,0,0,5,49Z"/><path class="cls-12" d="M10,47a1,1,0,0,0,0,2A1,1,0,0,0,10,47Z"/><path class="cls-12" d="M40,51a1,1,0,0,0,0,2A1,1,0,0,0,40,51Z"/><path class="cls-12" d="M36,48a1,1,0,0,0,0,2A1,1,0,0,0,36,48Z"/><path class="cls-12" d="M41,46a1,1,0,0,0,0,2A1,1,0,0,0,41,46Z"/></g></svg>