<svg xmlns="http://www.w3.org/2000/svg" xmlns:xlink="http://www.w3.org/1999/xlink" viewBox="0 0 64 64"><defs><style>.cls-1{fill:url(#linear-gradient);}.cls-2{fill:#77cacb;}.cls-3{fill:#d7f1ff;}.cls-4{fill:url(#linear-gradient-3);}.cls-5{fill:url(#linear-gradient-5);}.cls-6{fill:#c7cdd8;}.cls-7{fill:#aae0e5;}.cls-8{fill:url(#linear-gradient-6);}.cls-9{fill:#231f20;}</style><linearGradient id="linear-gradient" x1="46.5" y1="63" x2="46.5" y2="27" gradientUnits="userSpaceOnUse"><stop offset="0" stop-color="#9dd5df"/><stop offset="1" stop-color="#c3e1f5"/></linearGradient><linearGradient id="linear-gradient-3" x1="18" x2="18" y2="7" xlink:href="#linear-gradient"/><linearGradient id="linear-gradient-5" x1="18" y1="7" x2="18" y2="1" gradientUnits="userSpaceOnUse"><stop offset="0" stop-color="#d4d8e1"/><stop offset="1" stop-color="#f3f4f5"/></linearGradient><linearGradient id="linear-gradient-6" y1="52" y2="36" xlink:href="#linear-gradient-5"/></defs><title>Mineral Water</title><g id="Mineral_Water" data-name="Mineral Water"><path class="cls-1" d="M53.16,63H39.84a3,3,0,0,1-3-2.83L35,27H58L56.16,60.17A3,3,0,0,1,53.16,63Z"/><path class="cls-1" d="M53.16,63H39.84a3,3,0,0,1-3-2.83L35,27H58L56.16,60.17A3,3,0,0,1,53.16,63Z"/><path class="cls-2" d="M56.15,60.24a3,3,0,0,1-3,2.76H39.84a3,3,0,0,1-3-2.76,2.93,2.93,0,0,0,2,.76C55.42,61,55,61.28,56.15,60.24Z"/><path class="cls-3" d="M53.39,39c-.28,5.17-.89,13.93-1.17,19H40.78c-.29-5.19-.89-13.93-1.17-19Z"/><path class="cls-4" d="M22,7V9s8,4,8,10c0,7-2,6-2,10,0,2,2,3,2,6V59a4,4,0,0,1-4,4H10a4,4,0,0,1-4-4V35c0-3,2-4,2-6,0-4-2-3-2-10,0-6,8-10,8-10V7Z"/><path class="cls-4" d="M22,7V9s8,4,8,10c0,7-2,6-2,10,0,2,2,3,2,6V59a4,4,0,0,1-4,4H10a4,4,0,0,1-4-4V35c0-3,2-4,2-6,0-4-2-3-2-10,0-6,8-10,8-10V7Z"/><path class="cls-2" d="M30,56v3a4,4,0,0,1-4,4H10a4,4,0,0,1-4-4V56a4,4,0,0,0,4,4H26A4,4,0,0,0,30,56Z"/><rect class="cls-5" x="13" y="1" width="10" height="6"/><rect class="cls-6" x="13" y="5" width="10" height="2"/><rect class="cls-7" x="14" y="7" width="8" height="2"/><rect class="cls-8" x="6" y="36" width="24" height="16"/><rect class="cls-6" x="6" y="49" width="24" height="3"/><path class="cls-9" d="M58.73,26.31C58.29,25.86,60.05,26,35,26a1,1,0,0,0-1,1.06l1.84,33.16a4,4,0,0,0,4,3.78H53.16a4,4,0,0,0,4-3.78C59.16,24.21,59.16,26.78,58.73,26.31Zm-3.57,33.8a2,2,0,0,1-2,1.89H39.84a2,2,0,0,1-2-1.89L36.06,28H56.94Z"/><path class="cls-9" d="M40.72,59H52.28a1,1,0,0,0,1-1c1.14-20.72,1.2-19.29.78-19.74S54.44,38,39.67,38a1,1,0,0,0-1,1l1,19A1,1,0,0,0,40.72,59ZM52.27,40l-.94,17H41.67l-.94-17Z"/><path class="cls-9" d="M31,19c0-5.64-6.09-9.52-8-10.6V8a1,1,0,0,0,1-1V1a1,1,0,0,0-1-1H13a1,1,0,0,0-1,1V7a1,1,0,0,0,1,1v.4c-1.91,1.08-8,5-8,10.6,0,4.21.72,5.76,1.3,7,1.21,2.6.67,3.68,0,4.86C4.58,33.8,5,31.93,5,59a5,5,0,0,0,5,5H26a5,5,0,0,0,5-5V35c0-3.23-2-4.46-2-6C29,25.45,31,26.09,31,19ZM14,2h8V6H14ZM29,51H7V37H29ZM26,62H10a3,3,0,0,1-3-3V53H29v6A3,3,0,0,1,26,62Zm1-33c0,2.26,2,3.43,2,6H7c0-2.67,2-3.62,2-6,0-4.32-2-3.23-2-10,0-5.3,7.37-9.07,7.45-9.11C15.11,9.56,15,9,15,8h6c0,.56-.18,1.53.55,1.89C21.63,9.93,29,13.68,29,19,29,25.58,27,24.8,27,29Z"/></g></svg>