<svg xmlns="http://www.w3.org/2000/svg" xmlns:xlink="http://www.w3.org/1999/xlink" viewBox="0 0 64 64"><defs><style>.cls-1{fill:url(#linear-gradient);}.cls-2{fill:url(#linear-gradient-2);}.cls-3{fill:url(#linear-gradient-3);}.cls-4{fill:url(#linear-gradient-4);}.cls-5{fill:#cba07a;}.cls-6{fill:url(#linear-gradient-5);}.cls-7{fill:url(#linear-gradient-6);}.cls-8{fill:#c7cdd8;}.cls-9{fill:url(#linear-gradient-7);}.cls-10{fill:#f6b756;}.cls-11{fill:#231f20;}</style><linearGradient id="linear-gradient" x1="32" y1="43" x2="32" y2="37" gradientUnits="userSpaceOnUse"><stop offset="0" stop-color="#d1a788"/><stop offset="1" stop-color="#f2d3b8"/></linearGradient><linearGradient id="linear-gradient-2" x1="32" y1="37" x2="32" y2="31" xlink:href="#linear-gradient"/><linearGradient id="linear-gradient-3" x1="32" y1="31.04" x2="32" y2="24.94" xlink:href="#linear-gradient"/><linearGradient id="linear-gradient-4" x1="32" y1="25" x2="32" y2="19" xlink:href="#linear-gradient"/><linearGradient id="linear-gradient-5" x1="32" y1="38.98" x2="32" y2="19" gradientUnits="userSpaceOnUse"><stop offset="0" stop-color="#fbcc88"/><stop offset="1" stop-color="#ffe5c3"/></linearGradient><linearGradient id="linear-gradient-6" x1="32" y1="51" x2="32" y2="42.96" gradientUnits="userSpaceOnUse"><stop offset="0" stop-color="#d4d8e1"/><stop offset="1" stop-color="#f3f4f5"/></linearGradient><linearGradient id="linear-gradient-7" x1="32" y1="19" x2="32" y2="13" xlink:href="#linear-gradient-5"/></defs><title>Pancake</title><g id="Pancake"><path class="cls-1" d="M55,37c4.26,0,5.4,6,2,6H7c-3.4,0-2.26-6,2-6Z"/><path class="cls-2" d="M55,31c4.26,0,5.4,6,2,6H7c-3.4,0-2.26-6,2-6Z"/><path class="cls-3" d="M7,31c-2.29,0-2.65-3-.83-4.83C7.81,24.55,4.87,25,55,25c3.38,0,4.94,3.92,3.41,5.41C57.58,31.27,60.84,31,7,31Z"/><path class="cls-4" d="M57,25c3.38,0,2.29-6-2-6H9c-4.25,0-5.42,6-2,6Z"/><path class="cls-5" d="M57,25H7c-1.35,0-2.43-1.24-1.82-3.18A2,2,0,0,0,7,23c50.93,0,51.12.53,51.82-1.18C59.43,23.76,58.34,25,57,25Z"/><path class="cls-5" d="M57,31H7c-1.35,0-2.43-1.24-1.82-3.18A2,2,0,0,0,7,29c50.93,0,51.12.53,51.82-1.18C59.43,29.76,58.34,31,57,31Z"/><path class="cls-5" d="M57,37H7c-1.35,0-2.43-1.24-1.82-3.18A2,2,0,0,0,7,35c50.93,0,51.12.53,51.82-1.18C59.43,35.76,58.34,37,57,37Z"/><path class="cls-5" d="M57,43H7c-1.35,0-2.43-1.24-1.82-3.18A2,2,0,0,0,7,41c50.93,0,51.12.53,51.82-1.18C59.43,41.76,58.34,43,57,43Z"/><path class="cls-6" d="M15,19a3,3,0,0,1,3,3V37a2,2,0,0,0,4,0V29a2,2,0,0,1,4,0v2a2,2,0,0,0,4,0V24a2,2,0,0,1,4,0v3a2,2,0,0,0,4,0,2,2,0,0,1,4,0v5a2,2,0,0,0,4,0V22a3,3,0,0,1,3-3Z"/><path class="cls-7" d="M11.25,51h41.5A10.57,10.57,0,0,0,63,43c0-.1,1.26,0-62,0A10.56,10.56,0,0,0,11.25,51Z"/><path class="cls-8" d="M62.69,44a10.54,10.54,0,0,1-9.94,7H11.25a10.55,10.55,0,0,1-9.94-7,10.93,10.93,0,0,0,9.27,5H53.42A11,11,0,0,0,62.69,44Z"/><rect class="cls-9" x="26" y="13" width="12" height="6"/><rect class="cls-10" x="26" y="17" width="12" height="2"/><path class="cls-11" d="M63.79,42.38c-.39-.5-.6-.38-4-.38a4.62,4.62,0,0,0-1.23-4.46c2.09-1.33,1.66-4.28,0-6,2.08-1.32,1.67-4.27,0-6,3-1.93.87-7.54-3.59-7.54H39V13a1,1,0,0,0-1-1H26a1,1,0,0,0-1,1v5H9c-4.52,0-6.58,5.64-3.59,7.53-1.68,1.75-2.07,4.69,0,6-1.68,1.75-2.07,4.69,0,6A4.64,4.64,0,0,0,4.18,42H1a1,1,0,0,0-1,1.24A11.54,11.54,0,0,0,11.25,52h41.5A11.54,11.54,0,0,0,64,43.24,1,1,0,0,0,63.79,42.38ZM25,30H23V29a1,1,0,0,1,1.71-.73C25.05,28.57,25,28.88,25,30Zm-2,2h2.17a3,3,0,0,0,5.66,0H41c0,4,6,3.92,6,0h8c2.46,0,3.61,2.82,2.69,3.71-.4.41,1.72.29-34.69.29Zm18-2H31V26h2v1c0,4,6,3.93,6,0a1,1,0,0,1,2,0ZM31,24a1,1,0,0,1,2,0Zm26.69,5.71c-.36.38.29.29-10.69.29V26h8C57.46,26,58.61,28.82,57.69,29.71ZM55,20c2.46,0,3.61,2.82,2.69,3.71-.36.38.29.29-10.69.29V22a2,2,0,0,1,2-2ZM27,14H37v4H27Zm18.54,6c-.72,1.23-.54,1.08-.54,12a1,1,0,0,1-2,0V27a3,3,0,0,0-6,0,1,1,0,0,1-2,0V24c0-3.92-6-4-6,0v7a1,1,0,0,1-2,0V29c0-3.92-6-4-6,0v8a1,1,0,0,1-2,0c0-15.95.21-15.71-.54-17ZM7,36c-1.91,0-1-4,2-4h8v4Zm0-6c-1.39,0-1.22-2-.13-3.12S8.53,26,17,26v4Zm-.13-9.12C8,19.73,8.74,20,15,20a2,2,0,0,1,2,2v2H7C5.61,24,5.78,22,6.87,20.88ZM9,38h8.17a3,3,0,0,0,5.66,0H55c2.46,0,3.61,2.82,2.69,3.71-.42.43,2.74.29-50.69.29C5.09,42,6,38,9,38ZM52.75,50H11.25a9.55,9.55,0,0,1-8.88-6H61.63A9.55,9.55,0,0,1,52.75,50Z"/></g></svg>