<svg xmlns="http://www.w3.org/2000/svg" xmlns:xlink="http://www.w3.org/1999/xlink" viewBox="0 0 64 64"><defs><style>.cls-1{fill:url(#linear-gradient);}.cls-2{fill:#8288a1;}.cls-3{fill:url(#linear-gradient-3);}.cls-4{fill:#cba07a;}.cls-5{fill:#231f20;}</style><linearGradient id="linear-gradient" x1="32" y1="47" x2="32" y2="33.08" gradientUnits="userSpaceOnUse"><stop offset="0" stop-color="#a0a6ba"/><stop offset="1" stop-color="#c6ccda"/></linearGradient><linearGradient id="linear-gradient-3" x1="32" y1="38" x2="32" y2="17" gradientUnits="userSpaceOnUse"><stop offset="0" stop-color="#d1a788"/><stop offset="1" stop-color="#f2d3b8"/></linearGradient></defs><title>Pie</title><g id="Pie"><path class="cls-1" d="M6.09,33.08l4,11.25A4,4,0,0,0,13.83,47H50.17a4,4,0,0,0,3.77-2.67l4-11.25Z"/><path class="cls-1" d="M6.09,33.08l4,11.25A4,4,0,0,0,13.83,47H50.17a4,4,0,0,0,3.77-2.67l4-11.25Z"/><path class="cls-2" d="M53.94,44.33A4,4,0,0,1,50.17,47H13.83a4,4,0,0,1-3.77-2.67c-4.51-12.78-5.55-15.89-1-3A4,4,0,0,0,12.83,44H51.17a4,4,0,0,0,3.77-2.67C59.45,28.54,58.49,31.43,53.94,44.33Z"/><path class="cls-3" d="M63,30c0,2-2,3-5,3-2,2-7,3-12,2-3,3-9,3-14,3s-11,0-14-3c-5,1-10,0-12-2-3,0-5-1-5-3s5-3,5-3S20,17,32,17,58,27,58,27,63,28,63,30Z"/><path class="cls-4" d="M58,33c-2,2-7,3-12,2-3,3-9,3-14,3s-11,0-14-3c-5,1-10,0-12-2-5,0-5.89-2.91-4.29-4.25A6.13,6.13,0,0,0,6,30c2,2,7,3,12,2,3,3,9,3,14,3s11,0,14-3c5,1,10,0,12-2a6.13,6.13,0,0,0,4.29-1.25C63.89,30.09,63,33,58,33Z"/><path class="cls-4" d="M34,27.67c.12,4.21-7.54,2.77-2-4.67C32,23,33.93,25.59,34,27.67Z"/><path class="cls-4" d="M42.32,24.51c2.2,3.59-5.15,6.17-4.07-3C38.25,21.47,41.22,22.75,42.32,24.51Z"/><path class="cls-4" d="M21.57,24.51c-2.2,3.59,5.15,6.17,4.07-3C25.64,21.47,22.67,22.75,21.57,24.51Z"/><path class="cls-5" d="M64,30c0-2.49-4-3.6-5.59-3.94C56.67,24.85,43.59,16,32,16S7.33,24.85,5.59,26.06C4,26.4,0,27.51,0,30s2,3.8,5.34,4L9.12,44.66A5,5,0,0,0,13.83,48H50.17a5,5,0,0,0,4.71-3.34L58.66,34C62,33.8,64,32.35,64,30ZM53,44a3,3,0,0,1-2.83,2H13.83A3,3,0,0,1,11,44L8,35.35a18.92,18.92,0,0,0,9.74.73C21.07,39,27.11,39,32,39s10.93,0,14.31-2.92a18.91,18.91,0,0,0,9.74-.73Zm5-12a1,1,0,0,0-.71.29C55.68,33.91,51.08,35,46.2,34a1,1,0,0,0-.91.27C42.59,37,36.72,37,32,37c-14.91,0-12.15-3.38-14.2-3-4.88,1-9.48-.11-11.09-1.73A1,1,0,0,0,6,32c-1.2,0-4-.2-4-2,0-.59,2.08-1.59,4.2-2,.52-.1,14-10,25.8-10s25.16,9.85,25.8,10c2.12.43,4.2,1.43,4.2,2C62,31.8,59.2,32,58,32Z"/><path class="cls-5" d="M32.8,22.4a1,1,0,0,0-1.6,0c-.22.29-2.12,2.91-2.2,5.24C28.84,33.63,39.53,31.43,32.8,22.4Zm-.16,6.35c-.73.75-2.88.11-.64-3.89C32.6,25.94,33.5,27.87,32.64,28.75Z"/><path class="cls-5" d="M38.65,20.55a1,1,0,0,0-1.39.8c-1,8.87,5.5,8.68,6.36,5.27C44.31,23.87,41.24,21.67,38.65,20.55Zm1.92,6.22c-1.18-.34-1.37-2.46-1.39-3.69C43,25.36,41.62,27.07,40.57,26.77Z"/><path class="cls-5" d="M25.24,20.55c-1.45.63-3.87,2.14-4.52,3.44-3.13,5.08,7.22,8.58,5.91-2.64A1,1,0,0,0,25.24,20.55ZM24.16,26c-1,1.87-4.21-.11.55-3A7,7,0,0,1,24.16,26Z"/></g></svg>