<svg xmlns="http://www.w3.org/2000/svg" xmlns:xlink="http://www.w3.org/1999/xlink" viewBox="0 0 64 64"><defs><style>.cls-1{fill:url(#linear-gradient);}.cls-2{fill:url(#linear-gradient-2);}.cls-3{fill:#cba07a;}.cls-4{fill:url(#linear-gradient-3);}.cls-5{fill:url(#linear-gradient-5);}.cls-6{fill:url(#linear-gradient-6);}.cls-7{fill:url(#linear-gradient-7);}.cls-8{fill:url(#linear-gradient-8);}.cls-9{fill:url(#linear-gradient-9);}.cls-10{fill:url(#linear-gradient-10);}.cls-11{fill:#f6b756;}.cls-12{fill:url(#linear-gradient-11);}.cls-13{fill:url(#linear-gradient-12);}.cls-14{fill:url(#linear-gradient-13);}.cls-15{fill:url(#linear-gradient-14);}.cls-16{fill:url(#linear-gradient-17);}.cls-17{fill:url(#linear-gradient-19);}.cls-18{fill:url(#linear-gradient-20);}.cls-19{fill:url(#linear-gradient-21);}.cls-20{fill:url(#linear-gradient-22);}.cls-21{fill:url(#linear-gradient-23);}.cls-22{fill:url(#linear-gradient-24);}.cls-23{fill:#231f20;}</style><linearGradient id="linear-gradient" x1="38.8" y1="26" x2="38.8" y2="9.35" gradientUnits="userSpaceOnUse"><stop offset="0" stop-color="#e9a254"/><stop offset="1" stop-color="#f4bb79"/></linearGradient><linearGradient id="linear-gradient-2" x1="54.46" y1="26" x2="54.46" y2="1.67" gradientUnits="userSpaceOnUse"><stop offset="0" stop-color="#d1a788"/><stop offset="1" stop-color="#f2d3b8"/></linearGradient><linearGradient id="linear-gradient-3" x1="30" y1="12.22" x2="30" y2="4" xlink:href="#linear-gradient-2"/><linearGradient id="linear-gradient-5" x1="9.54" y1="33" x2="9.54" y2="8.67" xlink:href="#linear-gradient-2"/><linearGradient id="linear-gradient-6" x1="9.54" y1="57.33" x2="9.54" y2="33" xlink:href="#linear-gradient-2"/><linearGradient id="linear-gradient-7" x1="30" y1="62" x2="30" y2="53.78" xlink:href="#linear-gradient-2"/><linearGradient id="linear-gradient-8" x1="50.46" y1="57.33" x2="50.46" y2="33" xlink:href="#linear-gradient-2"/><linearGradient id="linear-gradient-9" x1="18" y1="53.78" x2="18" y2="33" gradientUnits="userSpaceOnUse"><stop offset="0" stop-color="#fbcc88"/><stop offset="1" stop-color="#ffe5c3"/></linearGradient><linearGradient id="linear-gradient-10" x1="29.99" y1="33" x2="29.99" y2="9" xlink:href="#linear-gradient-9"/><linearGradient id="linear-gradient-11" y1="33" y2="12.22" xlink:href="#linear-gradient-9"/><linearGradient id="linear-gradient-12" x1="37.99" x2="37.99" y2="12.2" xlink:href="#linear-gradient"/><linearGradient id="linear-gradient-13" x1="30" y1="57" x2="30" xlink:href="#linear-gradient-9"/><linearGradient id="linear-gradient-14" x1="42" y1="53.78" x2="42" xlink:href="#linear-gradient-9"/><linearGradient id="linear-gradient-17" x1="46.02" y1="26" x2="46.02" y2="5.22" xlink:href="#linear-gradient-9"/><linearGradient id="linear-gradient-19" x1="46.5" y1="22" x2="46.5" y2="17" gradientUnits="userSpaceOnUse"><stop offset="0" stop-color="#da5466"/><stop offset="1" stop-color="#f4929c"/></linearGradient><linearGradient id="linear-gradient-20" x1="30.5" y1="21" x2="30.5" y2="16" xlink:href="#linear-gradient-19"/><linearGradient id="linear-gradient-21" x1="44.5" y1="46" x2="44.5" y2="41" xlink:href="#linear-gradient-19"/><linearGradient id="linear-gradient-22" x1="29.5" y1="49" x2="29.5" y2="44" xlink:href="#linear-gradient-19"/><linearGradient id="linear-gradient-23" x1="16.5" y1="44" x2="16.5" y2="39" xlink:href="#linear-gradient-19"/><linearGradient id="linear-gradient-24" x1="14.5" y1="28" x2="14.5" y2="23" xlink:href="#linear-gradient-19"/></defs><title>Pizza</title><g id="Pizza"><path class="cls-1" d="M43.61,9.35C43.52,9.59,34.1,26,34,26,43.25,10,41.43,13.11,43.61,9.35Z"/><path class="cls-2" d="M62.92,23.86a2,2,0,0,1-2,2.14H58A24,24,0,0,0,46,5.22l1.47-2.54A2,2,0,0,1,50.3,2,28.94,28.94,0,0,1,62.92,23.86Z"/><path class="cls-3" d="M62.92,23.83a2,2,0,0,1-2,2.17H58A24,24,0,0,0,46,5.22l.86-1.48a24,24,0,0,1,11,17.56c.31,2.77,4.14,3.71,5,1.38C62.85,23.06,62.89,23.44,62.92,23.83Z"/><path class="cls-4" d="M43.61,9.35,42,12.2a23.94,23.94,0,0,0-23.95,0L16.54,9.68a2,2,0,0,1,.84-2.8,29.09,29.09,0,0,1,25.24,0A2,2,0,0,1,43.61,9.35Z"/><path class="cls-3" d="M43.61,9.35,42,12.2a23.94,23.94,0,0,0-23.95,0C16.67,9.91,15.79,9,16.54,7.68l.51.88a2,2,0,0,0,2.59.79,24,24,0,0,1,20.69,0,2,2,0,0,0,2.59-.8l.52-.9A2,2,0,0,1,43.61,9.35Z"/><path class="cls-1" d="M43.61,9.35C43.52,9.59,34.1,26,34,26,43.25,10,41.43,13.11,43.61,9.35Z"/><path class="cls-5" d="M18,12.22A24,24,0,0,0,6,33H3.08a2,2,0,0,1-2-2.14A29,29,0,0,1,13.69,9a2,2,0,0,1,2.85.67Z"/><path class="cls-3" d="M18,12.22A24,24,0,0,0,6,33H3.08a2,2,0,0,1-2-2.17c0-.39.07-.77.11-1.15C2,32,5.84,31.07,6.15,28.3a24,24,0,0,1,11-17.56Z"/><path class="cls-6" d="M18,53.78l-1.47,2.54a2,2,0,0,1-2.85.67A29,29,0,0,1,1.08,35.14a2,2,0,0,1,2-2.14H6A24,24,0,0,0,18,53.78Z"/><path class="cls-7" d="M42.62,59.12a29.09,29.09,0,0,1-25.24,0,2,2,0,0,1-.84-2.8L18,53.78a23.92,23.92,0,0,0,24,0l1.47,2.54A2,2,0,0,1,42.62,59.12Z"/><path class="cls-3" d="M42.62,59.12a29.09,29.09,0,0,1-25.24,0,2,2,0,0,1-.84-2.79,2,2,0,0,0,.84.79,29.09,29.09,0,0,0,25.24,0,2,2,0,0,0,.84-.79A2,2,0,0,1,42.62,59.12Z"/><path class="cls-8" d="M58.92,35.14A29,29,0,0,1,46.31,57a2,2,0,0,1-2.85-.67L42,53.78A24,24,0,0,0,54,33h2.92A2,2,0,0,1,58.92,35.14Z"/><path class="cls-3" d="M18,53.78l-1.47,2.54a2,2,0,0,1-2.85.67A29,29,0,0,1,1.08,35.14a2,2,0,0,1,.11-.82A29,29,0,0,0,13.69,55a2,2,0,0,0,2.85-.67l.61-1.06C17.43,53.44,17.72,53.61,18,53.78Z"/><path class="cls-3" d="M46.31,57a2,2,0,0,1-2.85-.67L42,53.78c.29-.17.58-.34.86-.52l.61,1.06a2,2,0,0,0,2.85.67,29,29,0,0,0,12.5-20.67C59.51,36.34,57.56,49.33,46.31,57Z"/><path class="cls-9" d="M30,33,18,53.78A24,24,0,0,1,6,33Z"/><path class="cls-10" d="M30,33,18,12.22a23.94,23.94,0,0,1,24,0Z"/><path class="cls-11" d="M30,33,18,12.22c.43-.25.87-.49,1.32-.71L28.27,27a2,2,0,0,0,3.46,0l8.91-15.51c.45.22.89.46,1.32.71Z"/><path class="cls-12" d="M30,33H6A24,24,0,0,1,18,12.22Z"/><path class="cls-11" d="M30,33H6c0-.67,0-1.34.09-2H28.85Z"/><path class="cls-13" d="M42,12.22C33.66,26.66,34.1,26,34,26,42.06,12,41.89,12.12,42,12.22Z"/><path class="cls-14" d="M42,53.78a23.92,23.92,0,0,1-24,0L30,33Z"/><path class="cls-11" d="M42,53.78a23.92,23.92,0,0,1-24,0l.88-1.52a23.91,23.91,0,0,0,22.22,0Z"/><path class="cls-15" d="M54,33A24,24,0,0,1,42,53.78L30,33Z"/><path class="cls-9" d="M30,33,18,53.78A24,24,0,0,1,6,33Z"/><path class="cls-15" d="M54,33A24,24,0,0,1,42,53.78L30,33Z"/><path class="cls-11" d="M53.32,38.66A24,24,0,0,1,42,53.78L30,33h1.8l9.1,15.13a3,3,0,0,0,4.33.89A24.14,24.14,0,0,0,53.32,38.66Z"/><path class="cls-11" d="M6.68,38.66A24,24,0,0,0,18,53.78L30,33H28.2L19.1,48.13a3,3,0,0,1-4.33.89A24.14,24.14,0,0,1,6.68,38.66Z"/><path class="cls-16" d="M58,26H34C46.47,4.45,43.4,9.71,46,5.22A24,24,0,0,1,58,26Z"/><path class="cls-11" d="M58,26H34l1.15-2H57.91C58,24.66,58,25.33,58,26Z"/><path class="cls-1" d="M43.61,9.35C43.52,9.59,34.1,26,34,26,43.25,10,41.43,13.11,43.61,9.35Z"/><circle class="cls-17" cx="46.5" cy="19.5" r="2.5"/><circle class="cls-18" cx="30.5" cy="18.5" r="2.5"/><circle class="cls-19" cx="44.5" cy="43.5" r="2.5"/><circle class="cls-20" cx="29.5" cy="46.5" r="2.5"/><circle class="cls-21" cx="16.5" cy="41.5" r="2.5"/><circle class="cls-22" cx="14.5" cy="25.5" r="2.5"/><path class="cls-23" d="M50.87,1.19a3,3,0,0,0-4.28,1L44,6.69c-1.76-2-14.51-6.78-27-.71a3,3,0,0,0-1.52,1.76,3,3,0,0,0-2.29.45,29.82,29.82,0,0,0-13,22.6A3,3,0,0,0,.84,33a3,3,0,0,0-.76,2.21,29.82,29.82,0,0,0,13.05,22.6,2.92,2.92,0,0,0,2.29.44A3,3,0,0,0,16.94,60a30.06,30.06,0,0,0,26.12,0,3,3,0,0,0,1.52-1.77,2.92,2.92,0,0,0,2.29-.44,29.82,29.82,0,0,0,13.05-22.6A3,3,0,0,0,59.13,33c-1.21-1.29-.19-1-27.4-1l2.89-5h26.3a3,3,0,0,0,3-3.21A29.82,29.82,0,0,0,50.87,1.19ZM40.62,53.4a22.94,22.94,0,0,1-21.24,0L30,35ZM30,31,19.38,12.61a22.91,22.91,0,0,1,21.2,0C30,31,33.69,24.61,30,31Zm-1.73,1H7A23,23,0,0,1,17.65,13.61Zm0,2L17.65,52.39A23,23,0,0,1,7,34Zm-11-25.63a1,1,0,0,1,.5-.59,28.09,28.09,0,0,1,24.38,0,1,1,0,0,1,.5.59c.15.51-.09.72-1.11,2.49a24.92,24.92,0,0,0-23.2,0C17.49,9.33,17.13,9,17.31,8.37Zm-3,1.47A1,1,0,0,1,15,9.7c.57.13.63.45,1.63,2.18A25,25,0,0,0,5,32H3.08a1,1,0,0,1-1-1.06A27.88,27.88,0,0,1,14.26,9.84Zm0,46.32A27.86,27.86,0,0,1,2.07,35.06a1,1,0,0,1,.27-.74C2.73,33.9,3,34,5,34A25,25,0,0,0,16.65,54.12C15.58,56,15.56,56.18,15,56.3A1,1,0,0,1,14.26,56.16Zm28.43,1.47a1,1,0,0,1-.5.59,28.09,28.09,0,0,1-24.38,0,1,1,0,0,1-.5-.59c-.17-.56.07-.77,1.07-2.5a25,25,0,0,0,23.24,0C42.51,56.67,42.87,57,42.69,57.63Zm15-23.31a1,1,0,0,1,.27.74,27.86,27.86,0,0,1-12.19,21.1,1,1,0,0,1-1.41-.34l-1-1.7A25,25,0,0,0,55,34C57,34,57.27,33.9,57.66,34.32ZM42.35,52.39,31.73,34H53A23,23,0,0,1,42.35,52.39ZM35.77,25c.86-1.48,9.73-16.92,10.58-18.39A23.08,23.08,0,0,1,57,25Zm25.89-.32c-.4.42-.69.32-2.69.32A25.05,25.05,0,0,0,47.34,4.88l1-1.7a1,1,0,0,1,1.41-.34,27.86,27.86,0,0,1,12.19,21.1A1,1,0,0,1,61.66,24.68Z"/><path class="cls-23" d="M46.5,16A3.5,3.5,0,1,0,50,19.5,3.5,3.5,0,0,0,46.5,16Zm0,5a1.5,1.5,0,0,1,0-3A1.5,1.5,0,0,1,46.5,21Z"/><path class="cls-23" d="M27,18.5A3.5,3.5,0,1,0,30.5,15,3.5,3.5,0,0,0,27,18.5ZM30.5,17a1.5,1.5,0,0,1,0,3A1.5,1.5,0,0,1,30.5,17Z"/><path class="cls-23" d="M44.5,40A3.5,3.5,0,1,0,48,43.5,3.5,3.5,0,0,0,44.5,40Zm0,5a1.5,1.5,0,0,1,0-3A1.5,1.5,0,0,1,44.5,45Z"/><path class="cls-23" d="M29.5,43A3.5,3.5,0,1,0,33,46.5,3.5,3.5,0,0,0,29.5,43Zm0,5a1.5,1.5,0,0,1,0-3A1.5,1.5,0,0,1,29.5,48Z"/><path class="cls-23" d="M16.5,45A3.5,3.5,0,1,0,13,41.5,3.5,3.5,0,0,0,16.5,45Zm0-5a1.5,1.5,0,0,1,0,3A1.5,1.5,0,0,1,16.5,40Z"/><path class="cls-23" d="M11,25.5A3.5,3.5,0,1,0,14.5,22,3.5,3.5,0,0,0,11,25.5ZM14.5,24a1.5,1.5,0,0,1,0,3A1.5,1.5,0,0,1,14.5,24Z"/><path class="cls-23" d="M47.29,11.71l2.5,2.5a1,1,0,0,0,1.42-1.42l-2.5-2.5A1,1,0,0,0,47.29,11.71Z"/><path class="cls-23" d="M42,38h4a1,1,0,0,0,0-2H42A1,1,0,0,0,42,38Z"/><path class="cls-23" d="M32.24,54l4-1A1,1,0,0,0,35.76,51l-4,1A1,1,0,0,0,32.24,54Z"/><path class="cls-23" d="M21.45,38.83a1,1,0,0,0,1.1-1.66l-3-2a1,1,0,0,0-1.1,1.66Z"/><path class="cls-23" d="M19.55,27.89C23.87,30.05,23.67,30,24,30a1,1,0,0,0,.45-1.89l-4-2A1,1,0,0,0,19.55,27.89Z"/><path class="cls-23" d="M27.55,12.11l-4,2A1,1,0,0,0,24,16c.34,0,.13.05,4.45-2.11A1,1,0,0,0,27.55,12.11Z"/></g></svg>