<svg xmlns="http://www.w3.org/2000/svg" xmlns:xlink="http://www.w3.org/1999/xlink" viewBox="0 0 64 64"><defs><style>.cls-1{fill:url(#linear-gradient);}.cls-2{fill:url(#linear-gradient-2);}.cls-3{fill:url(#linear-gradient-3);}.cls-4{fill:url(#linear-gradient-4);}.cls-5{fill:#cf4055;}.cls-6{fill:url(#linear-gradient-5);}.cls-7{fill:#e8677d;}.cls-8{fill:url(#linear-gradient-6);}.cls-9{fill:#c7cdd8;}.cls-10{fill:url(#linear-gradient-7);}.cls-11{fill:#dd8b37;}.cls-12{fill:#231f20;}</style><linearGradient id="linear-gradient" x1="28.32" y1="34" x2="28.32" y2="26" gradientUnits="userSpaceOnUse"><stop offset="0" stop-color="#e9a254"/><stop offset="1" stop-color="#f4bb79"/></linearGradient><linearGradient id="linear-gradient-2" x1="28.15" y1="28.5" x2="52" y2="28.5" xlink:href="#linear-gradient"/><linearGradient id="linear-gradient-3" x1="39" y1="10" x2="39" y2="6" gradientUnits="userSpaceOnUse"><stop offset="0" stop-color="#d1a788"/><stop offset="1" stop-color="#f2d3b8"/></linearGradient><linearGradient id="linear-gradient-4" y1="6" y2="2" xlink:href="#linear-gradient-3"/><linearGradient id="linear-gradient-5" x1="28" y1="58" x2="28" y2="34" gradientUnits="userSpaceOnUse"><stop offset="0" stop-color="#da5466"/><stop offset="1" stop-color="#f4929c"/></linearGradient><linearGradient id="linear-gradient-6" x1="14.27" y1="34" x2="14.27" y2="21.99" gradientUnits="userSpaceOnUse"><stop offset="0" stop-color="#d4d8e1"/><stop offset="1" stop-color="#f3f4f5"/></linearGradient><linearGradient id="linear-gradient-7" x1="14" x2="14" y2="28.93" xlink:href="#linear-gradient"/></defs><title>Artboard 2</title><g id="Ramen"><path class="cls-1" d="M36,34H23.81a12.11,12.11,0,0,0-3.18-6.74C27.14,23.9,36,27.62,36,34Z"/><path class="cls-2" d="M52,34H36c0-3.83-3.36-7-7.85-7.81C36.86,19.38,52,24.17,52,34Z"/><polygon class="cls-3" points="63 10 15 9 15 6 63 6 63 10"/><polygon class="cls-4" points="63 2 15 3 15 6 63 6 63 2"/><polyline class="cls-5" points="39 56.59 39 63 17 63 17 56.59"/><path class="cls-6" d="M55,34c0,5.28-.63,7-1.9,10.15C49.41,52.29,40.7,58,30.55,58h-5.1C11.66,58,1,47.62,1,35.43V34Z"/><path class="cls-7" d="M54.49,40a19.57,19.57,0,0,1-1.33,4H2.84a19.57,19.57,0,0,1-1.33-4Z"/><path class="cls-8" d="M23.81,34H5.08C4.14,29.39,5,24.45,8.23,22.68,13.84,19.59,23.3,27.43,23.81,34Z"/><path class="cls-9" d="M23.81,34H5.08a19.66,19.66,0,0,1-.29-2H23.41A8.65,8.65,0,0,1,23.81,34Z"/><path class="cls-10" d="M19,34A5,5,0,1,0,9,34Z"/><path class="cls-11" d="M19,34H9a5,5,0,0,1,.38-2h9.23A5,5,0,0,1,19,34Z"/><path class="cls-12" d="M63.7,1.29C63.25.84,65.5,1,32,1.65V1a1,1,0,0,0-2,0v.69l-2,0V1a1,1,0,0,0-2,0v.77l-2,0V1a1,1,0,0,0-2,0v.85l-2,0V1a1,1,0,0,0-2,0v.94L15,2a1,1,0,0,0-1,1V9a1,1,0,0,0,1,1l3,.06V14a4,4,0,0,1-4,4,1,1,0,0,0-1,1c0,2.42,7,.5,7-5V10.1l2,.05V25.64c-.38.12-.75.26-1.11.41-3.7-4-9.23-6.4-13.14-4.25C4.24,23.74,3.31,28.62,3.9,33H1a1,1,0,0,0-1,1,24.94,24.94,0,0,0,.43,5.73A24,24,0,0,0,16,57.32V63a1,1,0,0,0,1,1H39a1,1,0,0,0,1-1V57.32A24.61,24.61,0,0,0,54,44.57,23,23,0,0,0,56,34a1,1,0,0,0-1-1H52.94C52.09,24.86,41.45,19.71,32,23V10.35L63,11a1,1,0,0,0,1-1C64,1.34,64.11,1.68,63.7,1.29ZM62,3V5H32V3.65ZM30,3.69V5H28V3.73ZM28,7h2V8.31l-2,0ZM26,8.23l-2,0V7h2Zm0-4.46V5H24V3.81Zm-4,.08V5H20V3.9ZM16,4l2,0V5H16Zm0,4V7h2V8.06Zm4,.08V7h2V8.15Zm4,2.09,2,0V25a13.27,13.27,0,0,0-2,.17ZM34.9,33H32.78C31.93,31,28.56,29,24,29c-1.25,0-.53.34-1.78-1.35C27.42,25.76,34,28.16,34.9,33Zm2,0a7.45,7.45,0,0,0-.38-1.53c3.55-1,7.89-.29,9.83,1.53Zm11.85,0c-1.26-3-7.56-5.17-13.14-3.32A9.2,9.2,0,0,0,34.12,28c6.15-2.61,13.4.54,14.72,5.05Zm-24.1,0a11,11,0,0,0-.58-2,9.47,9.47,0,0,1,6.28,2Zm-16-9.44c4.48-2.47,12.63,3.68,13.93,9.44H19.91C18.83,26.18,9.1,26.41,8.08,33H5.92C5.24,28.68,6.35,24.86,8.71,23.56ZM17.89,33H10.11A4,4,0,0,1,17.89,33ZM52.5,43H3.5a19,19,0,0,1-.7-2H53.2A19,19,0,0,1,52.5,43ZM38,62H18V58c4.39,1.24,7.41,1,12.55,1A27.41,27.41,0,0,0,38,58Zm-7.45-5c-7.14,0-7.76.2-13.28-1.36A22.79,22.79,0,0,1,4.44,45H51.56C47.46,52.63,39.13,57,30.55,57ZM54,35.43A19.36,19.36,0,0,1,53.66,39H2.34A19.82,19.82,0,0,1,2,35C59.47,35,54,34.79,54,35.43ZM50.93,33h0c-1.28-6.5-11.16-10.38-18.61-6.38a10.92,10.92,0,0,0-1.73-.8C38.61,21.44,50,25.41,50.93,33ZM30,23.83a15,15,0,0,0-2,1.24V10.27l2,0C30,24.86,30,23.55,30,23.83ZM62,9,32,8.35V7H62Z"/></g></svg>