<svg xmlns="http://www.w3.org/2000/svg" xmlns:xlink="http://www.w3.org/1999/xlink" viewBox="0 0 64 64"><defs><style>.cls-1{fill:url(#linear-gradient);}.cls-2{fill:#c7cdd8;}.cls-3{fill:url(#linear-gradient-2);}.cls-4{fill:url(#linear-gradient-3);}.cls-5{fill:url(#linear-gradient-4);}.cls-6{fill:#cba07a;}.cls-7{fill:url(#linear-gradient-5);}.cls-8{fill:url(#linear-gradient-6);}.cls-9{fill:#231f20;}</style><linearGradient id="linear-gradient" x1="32" y1="63" x2="32" y2="1" gradientUnits="userSpaceOnUse"><stop offset="0" stop-color="#d4d8e1"/><stop offset="1" stop-color="#f3f4f5"/></linearGradient><linearGradient id="linear-gradient-2" x1="19.79" y1="37" x2="19.79" y2="23.01" gradientUnits="userSpaceOnUse"><stop offset="0" stop-color="#da5466"/><stop offset="1" stop-color="#f4929c"/></linearGradient><linearGradient id="linear-gradient-3" x1="39" y1="50" x2="39" y2="14" gradientUnits="userSpaceOnUse"><stop offset="0" stop-color="#d1a788"/><stop offset="1" stop-color="#f2d3b8"/></linearGradient><linearGradient id="linear-gradient-4" x1="22" y1="18.98" x2="33.24" y2="18.98" gradientUnits="userSpaceOnUse"><stop offset="0" stop-color="#fbcc88"/><stop offset="1" stop-color="#ffe5c3"/></linearGradient><linearGradient id="linear-gradient-5" x1="22.52" y1="35.87" x2="22.52" y2="45.18" gradientUnits="userSpaceOnUse"><stop offset="0" stop-color="#6ab891"/><stop offset="1" stop-color="#85cba9"/></linearGradient><linearGradient id="linear-gradient-6" x1="37" y1="28" x2="41" y2="28" xlink:href="#linear-gradient"/></defs><title>Salmon Steak</title><g id="Salmon_Steak" data-name="Salmon Steak"><circle class="cls-1" cx="32" cy="32" r="31"/><circle class="cls-2" cx="32" cy="32" r="19"/><path class="cls-3" d="M26.61,27.7a7,7,0,1,0-.6,5.89Z"/><path class="cls-4" d="M52,34c0,7.79-4,16-9,16-1.84,0-.73-3.32,0-5,3-7-1-15-4-15s-7,8-4,15c1.22,2.84,1.47,5,0,5-5,0-9-8.21-9-16,0-12.43,6.4-19.38,12.21-20A7.09,7.09,0,0,1,39,14C45,14,52,21,52,34Z"/><path class="cls-5" d="M33.24,16.08A6,6,0,0,0,28,13a5.87,5.87,0,0,0-4.46,2,6,6,0,0,0,3.78,10Z"/><path class="cls-6" d="M35.86,47.5C36.2,49,36,50,35,50c-5,0-9-8.21-9-16,0-.37,0-.74,0-1.1.29,7.51,4.17,15.1,9,15.1A.88.88,0,0,0,35.86,47.5Z"/><path class="cls-6" d="M44,38.68C43.69,33.93,41.1,30,39,30s-4.69,3.93-5,8.68C33.59,33.07,36.61,28,39,28S44.41,33.07,44,38.68Z"/><path class="cls-6" d="M52,34c0,7.79-4,16-9,16-1.17,0-1.11-1.36-.85-2.5A.85.85,0,0,0,43,48c4.81,0,8.69-7.6,9-15.11C52,33.25,52,33.62,52,34Z"/><path class="cls-7" d="M26.08,35.87c-2.68.08-7.32,1.36-8.06,9A.77.77,0,0,0,18,45c3.79.63,7.4-.37,9-4C27,41,27.07,41.18,26.08,35.87Z"/><circle class="cls-8" cx="39" cy="28" r="2"/><path class="cls-9" d="M32,0A32,32,0,1,0,64,32,32,32,0,0,0,32,0Zm0,62A30,30,0,1,1,62,32,30,30,0,0,1,32,62Z"/><path class="cls-9" d="M40,13.07V12a1,1,0,0,0-2,0v.93a20,20,0,0,0-8.53-.76,6.88,6.88,0,0,0-6.54,2A20,20,0,0,0,12.71,26.7,7.94,7.94,0,0,0,12,30.76a19.79,19.79,0,0,0,5,14.48,1,1,0,0,0,.65.69,19.88,19.88,0,0,0,23.49,3.83A1.83,1.83,0,0,0,43,51c5.89,0,10-9,10-17C53,21.49,46.55,13.79,40,13.07ZM42.08,44.6a14.44,14.44,0,0,0-.95,2.9A17.23,17.23,0,0,1,37,49.3c.13-.78,0-2.18-1-4.69C33.14,38.12,37,31,39,31S44.84,38.16,42.08,44.6ZM14.4,35.71A8,8,0,0,0,19.49,38,10.87,10.87,0,0,0,17.4,42.5,17.73,17.73,0,0,1,14.4,35.71ZM32.91,14c.49,0,1,.07,1.48.14C33.17,14.79,33.76,14.86,32.91,14ZM38,15.09V25.18a3,3,0,0,0-1.27,4.75c-3.08,2.53-5.22,9.45-2.65,15.46,1,2.22,1,3.3.9,3.61-2.86,0-5.61-3.57-7-8.33v0C25,30.43,29.22,16.35,38,15.09ZM25.18,37a26.31,26.31,0,0,0,.79,4c-1.23,2.37-3.52,3.45-6.85,3.19C19.87,38.94,22.63,37.31,25.18,37Zm.39-9.14A32.74,32.74,0,0,0,25,33.26a6,6,0,1,1,.55-5.45Zm1.21,15.52A13.73,13.73,0,0,0,31.69,50a17.72,17.72,0,0,1-10.8-3.85A7.93,7.93,0,0,0,26.78,43.33ZM38,28a1,1,0,0,1,2,0A1,1,0,0,1,38,28ZM31.88,15.87a18.47,18.47,0,0,0-5.23,7.93,5,5,0,1,1,5.23-7.93ZM21.13,17.68a7,7,0,0,0,.66,4.55,7.7,7.7,0,0,0-5.23.56A18,18,0,0,1,21.13,17.68ZM43,49c-.19-.86.55-2.8.9-3.61,2.54-5.93.46-12.91-2.65-15.46A3,3,0,0,0,40,25.18V15.08c4.87.72,11,6.67,11,18.92C51,41.67,47.16,48.92,43,49Z"/><path class="cls-9" d="M19,26v2.27l-2-1.14a1,1,0,0,0-1,1.74L18,30l-2,1.13a1,1,0,0,0,.5,1.87c.35,0,.32,0,2.46-1.27V34a1,1,0,0,0,2,0V31.73C23.12,33,23.11,33,23.46,33a1,1,0,0,0,.5-1.87L22,30l2-1.13a1,1,0,0,0-1-1.74l-2,1.14V26A1,1,0,0,0,19,26Z"/></g></svg>