<svg xmlns="http://www.w3.org/2000/svg" xmlns:xlink="http://www.w3.org/1999/xlink" viewBox="0 0 64 64"><defs><style>.cls-1{fill:url(#linear-gradient);}.cls-2{fill:url(#linear-gradient-2);}.cls-3{fill:url(#linear-gradient-3);}.cls-4{fill:url(#linear-gradient-4);}.cls-5{fill:url(#linear-gradient-5);}.cls-6{fill:#c7cdd8;}.cls-7{fill:#8a6762;}.cls-8{fill:url(#linear-gradient-6);}.cls-9{fill:#8288a1;}.cls-10{fill:#aae0e5;}.cls-11{fill:#231f20;}</style><linearGradient id="linear-gradient" x1="49" y1="57" x2="49" y2="16" gradientUnits="userSpaceOnUse"><stop offset="0" stop-color="#9dd5df"/><stop offset="1" stop-color="#c3e1f5"/></linearGradient><linearGradient id="linear-gradient-2" x1="49" y1="16" x2="49" y2="7" gradientUnits="userSpaceOnUse"><stop offset="0" stop-color="#a0a6ba"/><stop offset="1" stop-color="#c6ccda"/></linearGradient><linearGradient id="linear-gradient-3" x1="15" x2="15" xlink:href="#linear-gradient"/><linearGradient id="linear-gradient-4" x1="15" y1="55" x2="15" y2="37" gradientUnits="userSpaceOnUse"><stop offset="0" stop-color="#d4d8e1"/><stop offset="1" stop-color="#f3f4f5"/></linearGradient><linearGradient id="linear-gradient-5" x1="49" y1="55" x2="49" y2="37" gradientUnits="userSpaceOnUse"><stop offset="0" stop-color="#9b756d"/><stop offset="1" stop-color="#bc9388"/></linearGradient><linearGradient id="linear-gradient-6" x1="15" x2="15" xlink:href="#linear-gradient-2"/></defs><title>Salt Paper</title><g id="Salt_Paper" data-name="Salt Paper"><path class="cls-1" d="M63,52.28A4.72,4.72,0,0,1,58.28,57H39.72A4.72,4.72,0,0,1,35,51.72l3.59-29.58A5,5,0,0,1,42,18V16H56v2a5,5,0,0,1,3.38,4.14C63.21,53.72,63,51.85,63,52.28Z"/><path class="cls-2" d="M58,11v2a3.41,3.41,0,0,0-1,2.41V16H41v-.59A3.41,3.41,0,0,0,40,13V11a4,4,0,0,1,4-4H54A4,4,0,0,1,58,11Z"/><path class="cls-3" d="M29,52.28A4.72,4.72,0,0,1,24.28,57H5.72A4.72,4.72,0,0,1,1,51.72L4.62,22.14A5,5,0,0,1,8,18V16H22v2a5,5,0,0,1,3.38,4.14C29.21,53.72,29,51.85,29,52.28Z"/><path class="cls-4" d="M27,52.29A2.72,2.72,0,0,1,24.28,55H5.72A2.72,2.72,0,0,1,3,52L4.83,37H25.17C27.1,53,27,52.05,27,52.29Z"/><path class="cls-5" d="M61,52.29A2.72,2.72,0,0,1,58.28,55H39.72A2.72,2.72,0,0,1,37,52l1.81-15H59.17C61.1,53,61,52.05,61,52.29Z"/><path class="cls-6" d="M27,52.29A2.72,2.72,0,0,1,24.28,55H5.72A2.72,2.72,0,0,1,3,52L3.13,51a2.71,2.71,0,0,0,2.09,1H24.78a2.71,2.71,0,0,0,2.09-1C27,51.66,27,52,27,52.29Z"/><path class="cls-7" d="M61,52.29A2.72,2.72,0,0,1,58.28,55H39.72A2.72,2.72,0,0,1,37,52l.19-1.61A2.74,2.74,0,0,0,39.72,52c21.11,0,20.19.22,21.2-.55C61,51.73,61,52.06,61,52.29Z"/><path class="cls-8" d="M24,11v2a3.41,3.41,0,0,0-1,2.41V16H7v-.59A3.41,3.41,0,0,0,6,13V11a4,4,0,0,1,4-4H20A4,4,0,0,1,24,11Z"/><path class="cls-9" d="M6,13H24a3.41,3.41,0,0,0-1,2.41V16H7v-.59A3.41,3.41,0,0,0,6,13Z"/><path class="cls-9" d="M58,13a3.41,3.41,0,0,0-1,2.41V16H41v-.59A3.41,3.41,0,0,0,40,13Z"/><rect class="cls-10" x="42" y="16" width="14" height="2"/><rect class="cls-10" x="8" y="16" width="14" height="2"/><path class="cls-11" d="M64,51.6,60.37,22A6,6,0,0,0,57,17.33V17a1,1,0,0,0,1-1v-.59a2.37,2.37,0,0,1,.71-1.7c.39-.39.29-.66.29-2.71a5,5,0,0,0-5-5H44a5,5,0,0,0-5,5v2c0,.81,1,.95,1,2.41V16a1,1,0,0,0,1,1v.33A6,6,0,0,0,37.63,22C33.79,53.63,34,51.77,34,52.29A5.72,5.72,0,0,0,39.72,58H58.28A5.73,5.73,0,0,0,64,51.6ZM41,11a3,3,0,0,1,3-3H54a3,3,0,0,1,3,3v1.62A4.8,4.8,0,0,0,56,15H42a4.34,4.34,0,0,0-1-2.38ZM58.28,56H39.72A3.72,3.72,0,0,1,36,52.29c0-.35-.22,1.59,3.61-30A4,4,0,0,1,42.32,19c.81-.27.68-1,.68-1.95H55c0,1.06-.11,1.68.68,1.95a4,4,0,0,1,2.71,3.31L62,51.84A3.71,3.71,0,0,1,58.28,56Z"/><path class="cls-11" d="M58.15,36.88a1,1,0,0,0-1-.88H40.85a1,1,0,0,0-1,.88L38,52.17A1.71,1.71,0,0,0,39.72,54H58.28A1.75,1.75,0,0,0,60,52.2C60,52.1,60.11,53.05,58.15,36.88ZM40,52l1.7-14H56.27L58,52Z"/><path class="cls-11" d="M44,11a1,1,0,0,0,0-2A1,1,0,0,0,44,11Z"/><path class="cls-11" d="M49,11a1,1,0,0,0,0-2A1,1,0,0,0,49,11Z"/><path class="cls-11" d="M54,11a1,1,0,0,0,0-2A1,1,0,0,0,54,11Z"/><path class="cls-11" d="M26.37,22A6,6,0,0,0,23,17.33V17a1,1,0,0,0,1-1v-.59c0-1.45,1-1.6,1-2.41V11a5,5,0,0,0-5-5H10a5,5,0,0,0-5,5c0,2.19-.08,2.34.29,2.71A2.37,2.37,0,0,1,6,15.41V16a1,1,0,0,0,1,1v.33A6,6,0,0,0,3.63,22L0,51.6A5.73,5.73,0,0,0,5.72,58H24.28A5.72,5.72,0,0,0,30,52.29C30,51.78,30.21,53.66,26.37,22ZM7,11a3,3,0,0,1,3-3H20a3,3,0,0,1,3,3v1.62A4.8,4.8,0,0,0,22,15H8a4.34,4.34,0,0,0-1-2.38ZM24.28,56H5.72A3.72,3.72,0,0,1,2,52.29c0-.35-.22,1.59,3.61-30A4,4,0,0,1,8.32,19c.81-.27.68-1,.68-1.95H21c0,1.06-.11,1.68.68,1.95a4,4,0,0,1,2.71,3.31L28,51.84A3.71,3.71,0,0,1,24.28,56Z"/><path class="cls-11" d="M24.15,36.88a1,1,0,0,0-1-.88H6.85a1,1,0,0,0-1,.88L4,52.17A1.71,1.71,0,0,0,5.72,54H24.28A1.75,1.75,0,0,0,26,52.2C26,52.1,26.11,53.05,24.15,36.88ZM6,52l1.7-14H22.27L24,52Z"/><path class="cls-11" d="M10,11a1,1,0,0,0,0-2A1,1,0,0,0,10,11Z"/><path class="cls-11" d="M15,11a1,1,0,0,0,0-2A1,1,0,0,0,15,11Z"/><path class="cls-11" d="M20,11a1,1,0,0,0,0-2A1,1,0,0,0,20,11Z"/></g></svg>