<svg xmlns="http://www.w3.org/2000/svg" xmlns:xlink="http://www.w3.org/1999/xlink" viewBox="0 0 64 64"><defs><style>.cls-1{fill:url(#linear-gradient);}.cls-2{fill:#cba07a;}.cls-3{fill:url(#linear-gradient-3);}.cls-4{fill:url(#linear-gradient-4);}.cls-5{fill:url(#linear-gradient-5);}.cls-6{fill:url(#linear-gradient-6);}.cls-7{fill:#cf4055;}.cls-8{fill:#d861b0;}.cls-9{fill:url(#linear-gradient-7);}.cls-10{fill:#fce2d0;}.cls-11{fill:url(#linear-gradient-8);}.cls-12{fill:#231f20;}</style><linearGradient id="linear-gradient" x1="32" y1="53" x2="32" y2="44.1" gradientUnits="userSpaceOnUse"><stop offset="0" stop-color="#d1a788"/><stop offset="1" stop-color="#f2d3b8"/></linearGradient><linearGradient id="linear-gradient-3" x1="32" y1="46" x2="32" y2="25.99" xlink:href="#linear-gradient"/><linearGradient id="linear-gradient-4" x1="5.04" y1="42.49" x2="24" y2="42.49" gradientUnits="userSpaceOnUse"><stop offset="0" stop-color="#da5466"/><stop offset="1" stop-color="#f4929c"/></linearGradient><linearGradient id="linear-gradient-5" x1="33.92" y1="48.16" x2="33.92" y2="35" gradientUnits="userSpaceOnUse"><stop offset="0" stop-color="#d96bb0"/><stop offset="1" stop-color="#e49fc6"/></linearGradient><linearGradient id="linear-gradient-6" x1="48.99" y1="47.99" x2="48.99" y2="39" xlink:href="#linear-gradient-4"/><linearGradient id="linear-gradient-7" x1="1" y1="40.5" x2="62.99" y2="40.5" gradientUnits="userSpaceOnUse"><stop offset="0" stop-color="#8cdd79"/><stop offset="1" stop-color="#d4e6b6"/></linearGradient><linearGradient id="linear-gradient-8" x1="32" y1="38" x2="32" y2="29.1" xlink:href="#linear-gradient"/></defs><title>Sandwitch</title><g id="Sandwitch"><path class="cls-1" d="M56.46,46H61.1A1.9,1.9,0,0,0,63,44.1V51a2,2,0,0,1-2,2H3a2,2,0,0,1-2-2V44.1A1.9,1.9,0,0,0,2.9,46H7.54"/><path class="cls-1" d="M56.46,46H61.1A1.9,1.9,0,0,0,63,44.1V51a2,2,0,0,1-2,2H3a2,2,0,0,1-2-2V44.1A1.9,1.9,0,0,0,2.9,46H7.54"/><path class="cls-2" d="M63,49v2a2,2,0,0,1-2,2H3a2,2,0,0,1-2-2V49a2,2,0,0,0,2,2H61A2,2,0,0,0,63,49Z"/><path class="cls-3" d="M61.1,46H2.9A1.89,1.89,0,0,1,2,42.46C32.56,25.11,30.56,26,32,26s-.44-.82,30,16.46A1.89,1.89,0,0,1,61.1,46Z"/><path class="cls-4" d="M22,46l.38.08C16.65,49.83,5.88,47.78,5,42.55L9.13,38,24,37C21.8,46.88,22.07,45.71,22,46Z"/><path class="cls-5" d="M49.3,38c-2.13,2.23-6,6.25-7.7,8-.17.17-9.65,2.83-14.6,2-3.25-.56-6-2.88-8.47-5.1,3.82-8.71,1.92-4.37,3.47-7.9Z"/><path class="cls-6" d="M59,40c0,2.23.23,3.33-1.3,5-5.49,5.85-20.3,2.56-18.58-3.87L41,39Z"/><path class="cls-7" d="M18.53,42.9s1.16,1.05,2.33,2c-4.46.7-5.16-1.9-7.47-1.9s-2.66,2.29-7.09,2A4.6,4.6,0,0,1,5,42.55L9.13,38,21,37.2Z"/><path class="cls-8" d="M49.3,38,48,39.39,41,39l-1.88,2.08A3.57,3.57,0,0,0,39,42c0,1.68.78,1-.81,1-2.08,0-2.62,2-6.2,2s-4.07-2-6.2-2c-1.89,0-2.39,1.51-4.93,1.9-1.17-.95-2.33-2-2.33-2,2.85-6.49,2.32-5.3,3-6.9C33.57,36,27.46,35.6,49.3,38Z"/><path class="cls-7" d="M41,39l-1.88,2.08a3.62,3.62,0,0,0,.06,2.06c.88.25,1.68,1.27,3.55,1.69,4.48.93,5.62-1.83,7.86-1.83s2.93,2.4,7.11,2c1.53-1.62,1.27-2.72,1.3-5Z"/><path class="cls-9" d="M61.73,41.14C59.82,41.59,59.4,43,56.79,43c-3.1,0-3.1-2-6.2-2s-3.1,2-6.21,2-3.09-2-6.19-2-3.1,2-6.2,2-3.1-2-6.2-2-3.1,2-6.2,2-3.1-2-6.2-2-3.1,2-6.2,2c-2.6,0-3-1.41-4.92-1.86A1.59,1.59,0,0,1,2.58,38H61.42A1.59,1.59,0,0,1,61.73,41.14Z"/><path class="cls-10" d="M61.1,31H2.9A1.89,1.89,0,0,1,2,27.46C32.56,10.11,30.56,11,32,11s-.44-.82,30,16.46A1.89,1.89,0,0,1,61.1,31Z"/><path class="cls-11" d="M63,29.1V36a2,2,0,0,1-2,2H3a2,2,0,0,1-2-2V29.1A1.9,1.9,0,0,0,2.9,31H61.1A1.9,1.9,0,0,0,63,29.1Z"/><path class="cls-2" d="M63,34v2a2,2,0,0,1-2,2H3a2,2,0,0,1-2-2V34a2,2,0,0,0,2,2H61A2,2,0,0,0,63,34Z"/><path class="cls-12" d="M64,29.1a2.88,2.88,0,0,0-1.47-2.51l-28.17-16a4.89,4.89,0,0,0-4.72,0l-28.17,16A2.88,2.88,0,0,0,0,29.1c0,7.39-.22,7.66.67,8.77a2.55,2.55,0,0,0,.56,3.9A2.86,2.86,0,0,0,0,44.1V51a3,3,0,0,0,3,3H61a3,3,0,0,0,3-3V44.1a2.84,2.84,0,0,0-1.23-2.33,2.55,2.55,0,0,0,.56-3.9C64.22,36.76,64,36.47,64,29.1ZM61.42,39a.58.58,0,0,1,.08,1.16c-2.23.53-2.41,1.84-4.71,1.84-2.59,0-2.85-2-6.2-2s-3.6,2-6.21,2-2.79-2-6.19-2-3.61,2-6.2,2-2.84-2-6.2-2-3.59,2-6.2,2-2.84-2-6.2-2-3.59,2-6.2,2C4.91,42,4.7,40.68,2.5,40.16A.58.58,0,0,1,2.58,39Zm.13,4.33A.89.89,0,0,1,61.1,45H59a5.38,5.38,0,0,0,.88-1.78l.72-.45Zm-59.1,0c1.25-.71.76-.67,1.72-.11A5.38,5.38,0,0,0,5.05,45H2.9A.9.9,0,0,1,2.45,43.33ZM6.79,44c3.67.2,3.93-2,6.6-2,2.28,0,2.48,1.3,4.68,1.83a29.15,29.15,0,0,0,2.44,2.08C15.63,48.07,9.09,46.8,6.79,44Zm14.3-.15c2.21-.52,2.43-1.83,4.7-1.83,2.59,0,2.84,2,6.2,2s3.6-1.91,6-2a5.29,5.29,0,0,0,1.49,3.55C27.84,48.64,24.85,46.91,21.09,43.83Zm19-1.41C41.12,43,42,44,44.38,44c3.38,0,3.6-2,6.21-2s2.93,2.19,6.62,2C53.15,49,40.79,47.23,40,42.42ZM2,31.86c.81.26,59.32.16,59.78.05S62,31.25,62,36a1,1,0,0,1-1,1H3a1,1,0,0,1-1-1Zm.45-3.53C33.08,11,30.94,12,32,12s-1.15-1.07,29.55,16.33A.89.89,0,0,1,61.1,30H2.9A.9.9,0,0,1,2.45,28.33ZM62,51a1,1,0,0,1-1,1H3a1,1,0,0,1-1-1V46.86c.57.18.83.14,5.29.14a15.94,15.94,0,0,0,15.1.2,11.75,11.75,0,0,0,6.83,2A48.32,48.32,0,0,0,41.4,47.1c4.2,2.52,11,2.58,15.31-.1,4.91,0,4.58,0,5.07-.09C62.09,46.84,62,46.25,62,51Z"/></g></svg>