<svg xmlns="http://www.w3.org/2000/svg" xmlns:xlink="http://www.w3.org/1999/xlink" viewBox="0 0 64 64"><defs><style>.cls-1{fill:url(#linear-gradient);}.cls-2{fill:url(#linear-gradient-2);}.cls-3{fill:url(#linear-gradient-3);}.cls-4{fill:url(#linear-gradient-4);}.cls-5{fill:url(#linear-gradient-5);}.cls-6{fill:url(#linear-gradient-6);}.cls-7{fill:url(#linear-gradient-7);}.cls-8{fill:#cf4055;}.cls-9{fill:#c7cdd8;}.cls-10{fill:#f6b756;}.cls-11{fill:url(#linear-gradient-8);}.cls-12{fill:#ffd39f;}.cls-13{fill:#e8677d;}.cls-14{fill:#dfe3ea;}.cls-15{fill:url(#linear-gradient-9);}.cls-16{fill:#231f20;}</style><linearGradient id="linear-gradient" x1="32" y1="62" x2="32" y2="18" gradientUnits="userSpaceOnUse"><stop offset="0" stop-color="#da5466"/><stop offset="1" stop-color="#f4929c"/></linearGradient><linearGradient id="linear-gradient-2" y1="18" y2="14" xlink:href="#linear-gradient"/><linearGradient id="linear-gradient-3" y1="14" y2="2" xlink:href="#linear-gradient"/><linearGradient id="linear-gradient-4" x1="54" y1="62" x2="54" y2="18" gradientUnits="userSpaceOnUse"><stop offset="0" stop-color="#d4d8e1"/><stop offset="1" stop-color="#f3f4f5"/></linearGradient><linearGradient id="linear-gradient-5" y1="18" y2="14" xlink:href="#linear-gradient-4"/><linearGradient id="linear-gradient-6" y1="14" y2="2" xlink:href="#linear-gradient-4"/><linearGradient id="linear-gradient-7" x1="9.98" y1="62" x2="9.98" y2="18" gradientUnits="userSpaceOnUse"><stop offset="0" stop-color="#fbcc88"/><stop offset="1" stop-color="#ffe5c3"/></linearGradient><linearGradient id="linear-gradient-8" x1="10" y1="18" x2="10" y2="14" xlink:href="#linear-gradient-7"/><linearGradient id="linear-gradient-9" x1="7" y1="8" x2="13" y2="8" xlink:href="#linear-gradient-7"/></defs><title>Souce</title><g id="Souce"><path class="cls-1" d="M37,18H27c-2.05,1-4,1.57-4,3.85V60a2,2,0,0,0,2,2H39a2,2,0,0,0,2-2V21.85C41,19.57,39.05,19,37,18Z"/><rect class="cls-2" x="26" y="14" width="12" height="4"/><polygon class="cls-3" points="35 14 29 14 31 2 33 2 35 14"/><path class="cls-4" d="M59,18H49c-2,1-4,1.57-4,3.85V60a2,2,0,0,0,2,2H61a2,2,0,0,0,2-2V21.85C63,19.57,61.05,19,59,18Z"/><rect class="cls-5" x="48" y="14" width="12" height="4"/><polygon class="cls-6" points="57 14 51 14 53 2 55 2 57 14"/><path class="cls-7" d="M19,21.85V60a2,2,0,0,1-2,2H3a2,2,0,0,1-2-2c0-41.7-.27-38.87.65-40,.58-.75,1.26-.95,3.35-2H15C17,19,19,19.57,19,21.85Z"/><path class="cls-8" d="M41,57v3a2,2,0,0,1-2,2H25a2,2,0,0,1-2-2V57a2,2,0,0,0,2,2H39A2,2,0,0,0,41,57Z"/><path class="cls-9" d="M63,57v3a2,2,0,0,1-2,2H47a2,2,0,0,1-2-2V57a2,2,0,0,0,2,2H61A2,2,0,0,0,63,57Z"/><path class="cls-10" d="M19,57v3a2,2,0,0,1-2,2H3a2,2,0,0,1-2-2V57a2,2,0,0,0,2,2H17A2,2,0,0,0,19,57Z"/><rect class="cls-11" x="4" y="14" width="12" height="4"/><path class="cls-12" d="M18.35,20H1.65c.58-.75,1.26-.95,3.35-2H15C17.44,19.22,17.84,19.33,18.35,20Z"/><path class="cls-13" d="M40.35,20H23.65c.58-.75,1.26-.95,3.35-2H37C39.44,19.22,39.84,19.33,40.35,20Z"/><path class="cls-14" d="M62.35,20H45.65c.58-.75,1.26-.95,3.35-2H59C61.44,19.22,61.84,19.33,62.35,20Z"/><polygon class="cls-15" points="13 14 7 14 9 2 11 2 13 14"/><path class="cls-16" d="M39.79,18.28l-.79-.4V14a1,1,0,0,0-1-1H35.85L34,1.84A1,1,0,0,0,33,1H31a1,1,0,0,0-1,.84L28.15,13H26a1,1,0,0,0-1,1v3.88l-.79.4A4,4,0,0,0,22,21.85V60a3,3,0,0,0,3,3H39a3,3,0,0,0,3-3V21.85A4,4,0,0,0,39.79,18.28ZM31.85,3c.44,0,.12-1.12,2,10H30.18ZM27,15H37v2H27ZM40,60a1,1,0,0,1-1,1H25a1,1,0,0,1-1-1V21.85C24,20.3,25.28,20,27.24,19h9.52c1.84.92,3.24,1.29,3.24,2.85Z"/><path class="cls-16" d="M61.79,18.28l-.79-.4V14a1,1,0,0,0-1-1H57.85L56,1.84A1,1,0,0,0,55,1H53a1,1,0,0,0-1,.84L50.15,13H48a1,1,0,0,0-1,1v3.88l-.79.4A4,4,0,0,0,44,21.85V60a3,3,0,0,0,3,3H61a3,3,0,0,0,3-3V21.85A4,4,0,0,0,61.79,18.28ZM53.85,3c.44,0,.12-1.12,2,10H52.18ZM49,15H59v2H49ZM62,60a1,1,0,0,1-1,1H47a1,1,0,0,1-1-1V21.85C46,20.3,47.28,20,49.24,19h9.52c1.84.92,3.24,1.29,3.24,2.85Z"/><path class="cls-16" d="M17.79,18.28l-.79-.4V14a1,1,0,0,0-1-1H13.85L12,1.84A1,1,0,0,0,11,1H9a1,1,0,0,0-1,.84L6.15,13H4a1,1,0,0,0-1,1v3.88l-.79.4A4,4,0,0,0,0,21.85V60a3,3,0,0,0,3,3H17a3,3,0,0,0,3-3V21.85A4,4,0,0,0,17.79,18.28ZM9.85,3c.44,0,.12-1.12,2,10H8.18ZM5,15H15v2H5ZM18,60a1,1,0,0,1-1,1H3a1,1,0,0,1-1-1V21.85C2,20.3,3.28,20,5.24,19h9.52c1.84.92,3.24,1.29,3.24,2.85Z"/></g></svg>