<svg xmlns="http://www.w3.org/2000/svg" xmlns:xlink="http://www.w3.org/1999/xlink" viewBox="0 0 64 64"><defs><style>.cls-1{fill:url(#linear-gradient);}.cls-2{fill:#c7cdd8;}.cls-3{fill:url(#linear-gradient-3);}.cls-4{fill:#cf4055;}.cls-5{fill:url(#linear-gradient-4);}.cls-6{fill:#cba07a;}.cls-7{fill:url(#linear-gradient-5);}.cls-8{fill:url(#linear-gradient-6);}.cls-9{fill:#231f20;}</style><linearGradient id="linear-gradient" x1="31.98" y1="37" x2="31.98" y2="23" gradientUnits="userSpaceOnUse"><stop offset="0" stop-color="#d4d8e1"/><stop offset="1" stop-color="#f3f4f5"/></linearGradient><linearGradient id="linear-gradient-3" x1="31.93" y1="29.94" x2="31.93" y2="14.99" gradientUnits="userSpaceOnUse"><stop offset="0" stop-color="#da5466"/><stop offset="1" stop-color="#f4929c"/></linearGradient><linearGradient id="linear-gradient-4" x1="32" y1="43" x2="32" y2="37" gradientUnits="userSpaceOnUse"><stop offset="0" stop-color="#d1a788"/><stop offset="1" stop-color="#f2d3b8"/></linearGradient><linearGradient id="linear-gradient-5" x1="9" y1="49" x2="9" y2="43" xlink:href="#linear-gradient-4"/><linearGradient id="linear-gradient-6" x1="55" y1="49" x2="55" y2="43" xlink:href="#linear-gradient-4"/></defs><title>Sushi</title><g id="Sushi"><path class="cls-1" d="M51.67,29.88a7.24,7.24,0,0,1,.24,1.79C51.91,36.31,43,37,32,37S12,36.31,12,31.67a7.77,7.77,0,0,1,.23-1.78L32,23Z"/><path class="cls-1" d="M51.67,29.88a7.24,7.24,0,0,1,.24,1.79C51.91,36.31,43,37,32,37S12,36.31,12,31.67a7.77,7.77,0,0,1,.23-1.78L32,23Z"/><path class="cls-2" d="M51.91,31.67C51.91,36.31,43,37,32,37S12,36.31,12,31.67a6.78,6.78,0,0,1,.11-1.16C13.19,34.4,21.67,35,32,35s18.79-.61,19.83-4.5A8.16,8.16,0,0,1,51.91,31.67Z"/><path class="cls-3" d="M49.71,29.8c-1.61-.31-10.45-3.73-16-4.36-4.73-.62-12.38,2.06-17.7,3.83-3.36,1.24-6,1-5.31-2.58,1.82-9.89,20.13-15.16,34-9.15a19.27,19.27,0,0,1,5.13,3.28,10.55,10.55,0,0,1,3.44,5.87C53.78,29.94,51.64,30.19,49.71,29.8Z"/><path class="cls-4" d="M53.28,27.48c.16,3.17-3,2.6-4.91,2C32.24,24.09,32,24,15.48,29.44c-1.92.64-5.07,1.21-4.91-2,1,.81,3,.4,4.36,0,17-5.49,17.43-5.34,34,0C50.28,27.88,52.24,28.29,53.28,27.48Z"/><rect class="cls-5" x="1" y="37" width="62" height="6"/><rect class="cls-6" x="1" y="41" width="62" height="2"/><rect class="cls-7" x="5" y="43" width="8" height="6"/><rect class="cls-8" x="51" y="43" width="8" height="6"/><rect class="cls-6" x="5" y="47" width="8" height="2"/><rect class="cls-6" x="51" y="47" width="8" height="2"/><path class="cls-9" d="M19,31a1,1,0,0,0,0,2A1,1,0,0,0,19,31Z"/><path class="cls-9" d="M23,29a1,1,0,0,0,0,2A1,1,0,0,0,23,29Z"/><path class="cls-9" d="M23,33a1,1,0,0,0,0,2A1,1,0,0,0,23,33Z"/><path class="cls-9" d="M63,36H49.64c2.82-1.29,3.54-3.08,3.17-5.48,1.45-.8,1.65-2.4,1.36-4-3-16.69-41.49-16.49-44.49,0-.3,1.67-.07,3.28,1.45,4-.34,2.36.37,4.15,3.18,5.44H1a1,1,0,0,0-1,1v6a1,1,0,0,0,1,1H4v5a1,1,0,0,0,1,1h8a1,1,0,0,0,1-1V44H50v5a1,1,0,0,0,1,1h8a1,1,0,0,0,1-1V44h3a1,1,0,0,0,1-1V37A1,1,0,0,0,63,36ZM52.2,26.87c.32,1.78-.15,2.38-2.29,1.95A24,24,0,0,0,50,22.5,9,9,0,0,1,52.2,26.87ZM21.61,26.4A23.89,23.89,0,0,0,16.78,20a21.2,21.2,0,0,1,3.55-1.84A20.81,20.81,0,0,1,24,25.74C23.15,26,22.37,26.18,21.61,26.4Zm4.28-1.16a23.53,23.53,0,0,0-3.57-7.78,28.73,28.73,0,0,1,3.1-.8,20.73,20.73,0,0,1,3.14,8C27.7,24.83,26.8,25,25.89,25.24Zm4.65-.84a23.22,23.22,0,0,0-3-8.1A32.67,32.67,0,0,1,31.11,16a20.24,20.24,0,0,1,2.53,8.42A11.57,11.57,0,0,0,30.54,24.4Zm5.12.35A22.88,22.88,0,0,0,33.4,16c1.09.05,2.19.15,3.28.31A20.54,20.54,0,0,1,38,25.25C37.21,25.06,36.42,24.89,35.66,24.75Zm3.31-8a30.91,30.91,0,0,1,3.66,1.06,20.72,20.72,0,0,1,.45,8.83c-1-.31-2.06-.62-3.13-.91A22.5,22.5,0,0,0,39,16.77Zm6,2a18.83,18.83,0,0,1,2.64,1.54A21.14,21.14,0,0,1,48,28.25c-.74-.26-1.78-.61-3-1A23.08,23.08,0,0,0,44.92,18.78Zm-29.8,2.44A21.38,21.38,0,0,1,19.66,27l-2.28.74a23.53,23.53,0,0,0-3.88-4.82A12.93,12.93,0,0,1,15.12,21.22Zm-3.25,7.46c-.77-.67.05-3.07.54-4.05a23.18,23.18,0,0,1,3,3.77C15.23,28.47,12.68,29.38,11.87,28.68Zm1.17,3c0-1.26-.15-.32,2.75-1.28,4-1.34,11.9-4,16.08-4.08,5.64,0,15.58,4.08,16.19,4.08h0c3,1,2.85,0,2.85,1.28C50.91,35.49,41.34,36,32,36S13,35.49,13,31.67ZM12,48H6V44h6Zm46,0H52V44h6Zm4-6H2V38H62Z"/></g></svg>