<svg xmlns="http://www.w3.org/2000/svg" xmlns:xlink="http://www.w3.org/1999/xlink" viewBox="0 0 64 64"><defs><style>.cls-1{fill:url(#linear-gradient);}.cls-2{fill:#e27dc0;}.cls-3{fill:url(#linear-gradient-2);}.cls-4{fill:#d861b0;}.cls-5{fill:url(#linear-gradient-3);}.cls-6{fill:#8288a1;}.cls-7{fill:url(#linear-gradient-4);}.cls-8{fill:url(#linear-gradient-5);}.cls-9{fill:#f2b1d9;}.cls-10{fill:url(#linear-gradient-6);}.cls-11{fill:url(#linear-gradient-7);}.cls-12{fill:#231f20;}</style><linearGradient id="linear-gradient" x1="32" y1="37" x2="32" y2="26" gradientUnits="userSpaceOnUse"><stop offset="0" stop-color="#d96bb0"/><stop offset="1" stop-color="#e49fc6"/></linearGradient><linearGradient id="linear-gradient-2" y1="58" y2="43.6" xlink:href="#linear-gradient"/><linearGradient id="linear-gradient-3" x1="32" y1="63" x2="32" y2="57.96" gradientUnits="userSpaceOnUse"><stop offset="0" stop-color="#a0a6ba"/><stop offset="1" stop-color="#c6ccda"/></linearGradient><linearGradient id="linear-gradient-4" x1="32" y1="44" x2="32" y2="37" gradientUnits="userSpaceOnUse"><stop offset="0" stop-color="#d4d8e1"/><stop offset="1" stop-color="#f3f4f5"/></linearGradient><linearGradient id="linear-gradient-5" x1="32.01" y1="26" x2="32.01" y2="19" xlink:href="#linear-gradient-4"/><linearGradient id="linear-gradient-6" x1="32" y1="19" x2="32" y2="7" gradientUnits="userSpaceOnUse"><stop offset="0" stop-color="#fbcc88"/><stop offset="1" stop-color="#ffe5c3"/></linearGradient><linearGradient id="linear-gradient-7" x1="32" y1="7" x2="32" y2="1" gradientUnits="userSpaceOnUse"><stop offset="0" stop-color="#da5466"/><stop offset="1" stop-color="#f4929c"/></linearGradient></defs><title>Tart</title><g id="Tart"><rect class="cls-1" x="15" y="26" width="34" height="11"/><path class="cls-2" d="M15,23v4.67a9.15,9.15,0,0,0,7.09-.92A4.58,4.58,0,0,1,24.74,26a4.59,4.59,0,0,1,2.66.75,9,9,0,0,0,9.19,0,5.07,5.07,0,0,1,5.31,0,9.26,9.26,0,0,0,7.1.92V23Z"/><rect class="cls-3" x="5" y="43.6" width="54" height="14.4"/><rect class="cls-4" x="5" y="56" width="54" height="2"/><path class="cls-5" d="M58,63H6a5,5,0,0,1-5-5c0-.1-1.6,0,62,0A5,5,0,0,1,58,63Z"/><path class="cls-6" d="M62.86,59.18A5,5,0,0,1,58,63H6a5,5,0,0,1-4.86-3.82A5,5,0,0,0,5,61H59A5,5,0,0,0,62.86,59.18Z"/><rect class="cls-4" x="15" y="35" width="34" height="2"/><path class="cls-2" d="M59,40.6v5c-2.17,0-2.73-1.6-5.25-1.6-2.79,0-3.18,2-7.26,2S42,44,39.24,44,36.08,46,32,46s-4.45-2-7.25-2-3.16,2-7.25,2S13,44,10.25,44c-2.5,0-3.1,1.6-5.25,1.6v-5Z"/><path class="cls-7" d="M61,39v2.59a2,2,0,0,1-2.86,1.82C56.9,42.82,56.06,42,53.75,42c-3.63,0-3.63,2-7.26,2s-3.62-2-7.25-2S35.62,44,32,44s-3.62-2-7.25-2-3.62,2-7.25,2-3.62-2-7.24-2c-2.31,0-3.15.81-4.39,1.4A2,2,0,0,1,3,41.59V39a2,2,0,0,1,2-2H59A2,2,0,0,1,61,39Z"/><path class="cls-8" d="M51,21c0,2,.29,3.37-1,4.1a6.48,6.48,0,0,1-3.46.9c-3.62,0-3.62-2-7.25-2S35.62,26,32,26s-3.62-2-7.25-2-3.62,2-7.25,2c-1.9,0-4.49-.77-4.49-2.66V21a2,2,0,0,1,2-2H49A2,2,0,0,1,51,21Z"/><circle class="cls-9" cx="32" cy="51" r="2"/><circle class="cls-9" cx="22" cy="51" r="2"/><circle class="cls-9" cx="12" cy="51" r="2"/><circle class="cls-9" cx="42" cy="51" r="2"/><circle class="cls-9" cx="32" cy="31" r="2"/><circle class="cls-9" cx="22" cy="31" r="2"/><circle class="cls-9" cx="42" cy="31" r="2"/><circle class="cls-9" cx="52" cy="51" r="2"/><rect class="cls-10" x="30" y="7" width="4" height="12"/><path class="cls-11" d="M34,5a2,2,0,0,1-4,0c0-1.1,2-4,2-4S34,3.9,34,5Z"/><path class="cls-12" d="M63,57H60V44.41c2.4-.85,2-3.1,2-5.41a3,3,0,0,0-3-3H50V26.2c2.36-1.19,2-2.57,2-5.2a3,3,0,0,0-3-3H35V9a1,1,0,0,0-1-1c-1.2,0-1,.06-1-.18A3,3,0,0,0,35,5c0-1.28-1.52-3.62-2.18-4.57a1,1,0,0,0-1.64,0C30.52,1.38,29,3.72,29,5a3,3,0,0,0,2,2.82c0,.24.2.18-1,.18a1,1,0,0,0-1,1v9H15a3,3,0,0,0-3,3c0,2.15-.32,3.94,1.57,5,.61.33.43-.9.43,10H5a3,3,0,0,0-3,3c0,2.29-.43,4.54,2,5.41V57H1c-2.42,0-.5,7,5,7H58C63.52,64,65.41,57,63,57ZM32,2.85A7.36,7.36,0,0,1,33,5a1,1,0,0,1-2,0A7.48,7.48,0,0,1,32,2.85ZM31,10h2v8H31ZM14,21a1,1,0,0,1,1-1H49a1,1,0,0,1,1,1v2.33C50,24.52,47.7,25,46.49,25c-3.18,0-3.39-2-7.25-2S35.19,25,32,25s-3.39-2-7.25-2-4,2-7.25,2C16.28,25,14,24.52,14,23.34Zm2,5.87c4.61.81,5.41-1.87,8.74-1.87a5.57,5.57,0,0,1,3.15.88,8,8,0,0,0,8.21,0A5.65,5.65,0,0,1,39.24,25c3.52,0,4,2.71,8.76,1.87V36H16ZM4,39a1,1,0,0,1,1-1H59a1,1,0,0,1,1,1v2.6a1,1,0,0,1-1.43.9c-1.19-.56-2.22-1.5-4.82-1.5-3.86,0-4.06,2-7.26,2s-3.39-2-7.25-2S35.19,43,32,43s-3.39-2-7.25-2-4,2-7.25,2-3.4-2-7.24-2c-2.58,0-3.6.92-4.82,1.5A1,1,0,0,1,4,41.59Zm2,5.4c1.3-.47,3.61-2.61,7.39-.52a7.94,7.94,0,0,0,8.21,0A5.65,5.65,0,0,1,24.74,43a5.57,5.57,0,0,1,3.15.88,8,8,0,0,0,8.21,0A5.65,5.65,0,0,1,39.24,43a5.57,5.57,0,0,1,3.15.88,8,8,0,0,0,8.21,0c3.76-2.07,6.11.06,7.4.52V57H6ZM58,62H6a4,4,0,0,1-3.87-3H61.87A4,4,0,0,1,58,62Z"/><path class="cls-12" d="M32,48a3,3,0,1,0,3,3A3,3,0,0,0,32,48Zm0,4a1,1,0,0,1,0-2A1,1,0,0,1,32,52Z"/><path class="cls-12" d="M22,48a3,3,0,1,0,3,3A3,3,0,0,0,22,48Zm0,4a1,1,0,0,1,0-2A1,1,0,0,1,22,52Z"/><path class="cls-12" d="M12,48a3,3,0,1,0,3,3A3,3,0,0,0,12,48Zm0,4a1,1,0,0,1,0-2A1,1,0,0,1,12,52Z"/><path class="cls-12" d="M42,48a3,3,0,1,0,3,3A3,3,0,0,0,42,48Zm0,4a1,1,0,0,1,0-2A1,1,0,0,1,42,52Z"/><path class="cls-12" d="M32,28a3,3,0,1,0,3,3A3,3,0,0,0,32,28Zm0,4a1,1,0,0,1,0-2A1,1,0,0,1,32,32Z"/><path class="cls-12" d="M22,28a3,3,0,1,0,3,3A3,3,0,0,0,22,28Zm0,4a1,1,0,0,1,0-2A1,1,0,0,1,22,32Z"/><path class="cls-12" d="M42,28a3,3,0,1,0,3,3A3,3,0,0,0,42,28Zm0,4a1,1,0,0,1,0-2A1,1,0,0,1,42,32Z"/><path class="cls-12" d="M52,48a3,3,0,1,0,3,3A3,3,0,0,0,52,48Zm0,4a1,1,0,0,1,0-2A1,1,0,0,1,52,52Z"/></g></svg>