<svg xmlns="http://www.w3.org/2000/svg" xmlns:xlink="http://www.w3.org/1999/xlink" viewBox="0 0 64 64"><defs><style>.cls-1{fill:url(#linear-gradient);}.cls-2{fill:url(#linear-gradient-2);}.cls-3{fill:#c7cdd8;}.cls-4{fill:url(#linear-gradient-3);}.cls-5{fill:#4da67f;}.cls-6{fill:url(#linear-gradient-4);}.cls-7{fill:url(#linear-gradient-5);}.cls-8{fill:#231f20;}</style><linearGradient id="linear-gradient" x1="20" y1="63" x2="20" y2="1" gradientUnits="userSpaceOnUse"><stop offset="0" stop-color="#6ab891"/><stop offset="1" stop-color="#85cba9"/></linearGradient><linearGradient id="linear-gradient-2" x1="20" y1="58" x2="20" y2="34" gradientUnits="userSpaceOnUse"><stop offset="0" stop-color="#d4d8e1"/><stop offset="1" stop-color="#f3f4f5"/></linearGradient><linearGradient id="linear-gradient-3" y1="14" y2="1" xlink:href="#linear-gradient-2"/><linearGradient id="linear-gradient-4" x1="46" y1="47" x2="46" y2="27" gradientUnits="userSpaceOnUse"><stop offset="0" stop-color="#9dd5df"/><stop offset="1" stop-color="#c3e1f5"/></linearGradient><linearGradient id="linear-gradient-5" x1="46" y1="45" x2="46" y2="35.05" gradientUnits="userSpaceOnUse"><stop offset="0" stop-color="#da5466"/><stop offset="1" stop-color="#f4929c"/></linearGradient></defs><title>Wine</title><g id="Wine"><path class="cls-1" d="M24,20V1H16c0,19.61-.1,19,0,19A11.55,11.55,0,0,0,9,30.62V63H31V30.62A11.55,11.55,0,0,0,24,20Z"/><rect class="cls-2" x="9" y="34" width="22" height="24"/><rect class="cls-3" x="9" y="55" width="22" height="3"/><rect class="cls-4" x="16" y="1" width="8" height="13"/><rect class="cls-3" x="16" y="12" width="8" height="2"/><rect class="cls-5" x="9" y="61" width="22" height="2"/><path class="cls-6" d="M55,35.89C55,43,48.57,47,46,47s-9-4-9-11.11A26.81,26.81,0,0,1,38.29,27H53.71A26.81,26.81,0,0,1,55,35.89Z"/><path class="cls-7" d="M46,45c-1.34,0-7-3-7-9.11,0,0,2,1.89,7,0s7,0,7,0C53,42,47.34,45,46,45Z"/><path class="cls-8" d="M25,19.36V6a1,1,0,0,0,0-2V1a1,1,0,0,0-1-1H16a1,1,0,0,0-1,1V4a1,1,0,0,0,0,2V19.36A12.53,12.53,0,0,0,8,30.62V63a1,1,0,0,0,1,1H31a1,1,0,0,0,1-1V30.62A12.53,12.53,0,0,0,25,19.36ZM17,2h6V4H17Zm6,4v7H17V6Zm7,51H10V35H30ZM10,62V59H30v3ZM30,33H10V30.62a10.54,10.54,0,0,1,6.39-9.7c.84-.36.61-.83.61-5.92h6c0,5.25-.2,5.57.61,5.92A10.54,10.54,0,0,1,30,30.62Z"/><path class="cls-8" d="M52,62H49a2,2,0,0,1-2-2V48.86a12.65,12.65,0,0,0,9-12,27.91,27.91,0,0,0-1.35-9.25,1,1,0,0,0-.94-.64c-16.53,0-16-.26-16.36.64A27.91,27.91,0,0,0,36,36.89a12.65,12.65,0,0,0,9,12V60a2,2,0,0,1-2,2H40a1,1,0,0,0,0,2H52A1,1,0,0,0,52,62ZM38,36.89A29.11,29.11,0,0,1,39,29H53a29.11,29.11,0,0,1,1,7.89C54,43.41,48,47,46,47S38,43.41,38,36.89Z"/></g></svg>