<svg xmlns="http://www.w3.org/2000/svg" viewBox="0 0 64 64"><defs><style>.cls-1{fill:#231f20;}</style></defs><title>baguette</title><g id="baguette"><path class="cls-1" d="M15.7,23C6.6,26.4,0,32.3,0,37c0,5,9,7,32,7s32-2,32-7C64,28.05,39.76,13.83,15.7,23Zm31.21,1.63a17.08,17.08,0,0,1-.91,5,18.71,18.71,0,0,1-1-5.62C45.17,24,45.67,24.16,46.91,24.61ZM33,22a20.76,20.76,0,0,1-1,6.59A20.76,20.76,0,0,1,31,22C31.67,22,32.09,22,33,22ZM19,24A18.71,18.71,0,0,1,18,29.6a17.08,17.08,0,0,1-.91-5C17.72,24.38,18.23,24.21,19,24ZM32,42c-7.42,0-30,0-30-5,0-3.15,4.89-8.23,13.14-11.64.27,3.29,1,6.64,2.86,6.64,2.36,0,2.87-5.51,3-8.59A44.26,44.26,0,0,1,29,22.12c.08,3,.55,8.88,3,8.88s2.9-5.87,3-8.88A44.26,44.26,0,0,1,43,23.41c.1,3.08.61,8.59,3,8.59,1.86,0,2.59-3.35,2.86-6.64C57.11,28.76,62,33.85,62,37,62,42,39.42,42,32,42Z"/></g></svg>