<svg xmlns="http://www.w3.org/2000/svg" viewBox="0 0 64 64"><defs><style>.cls-1{fill:#231f20;}</style></defs><title>Banana</title><g id="Banana"><path class="cls-1" d="M62.47,48.67c-2.22-2.22-4.19.53-8.15.53-2.84,0-2.78-1.51-6.17-3.2s-11.51-3.31-17.92-9.73a25.27,25.27,0,0,1-5.05-8.09c2.63-.86,8.91,2.1,13.22,4.14C41.5,33.79,46.19,36.4,47,34c1.37-4.1-6.85-12.59-8.51-14.25-5.52-5.53-9.57-1.76-15,3.71a85,85,0,0,1-2.85-13.07C20.05,6.58,18,2,14.74.91c-6.14-2-16.15,12.93-7.8,36a26.24,26.24,0,0,0-2.1,1.87C1.6,42-3.31,46.9,3.19,53.39a61.48,61.48,0,0,0,7.52,5.68c4.55,3.13,4.47,3.31,5.45,3.31a2.28,2.28,0,0,0,1.67-3.83,18,18,0,0,1-4.72-9.74C19,57.13,27.52,63.29,37.77,63.29A30,30,0,0,0,55.85,56.7c1.19-1.19,4.58.38,6.62-1.66S64.52,50.72,62.47,48.67ZM37.08,21.15c5.48,5.48,8.14,10,8.09,11.83-4.35-.71-17.86-10.6-22.58-5.34a12.58,12.58,0,0,1,1.85-2.36C30.67,19.05,33,17.1,37.08,21.15ZM11.21,3.79C14.68.33,17.94,6,18.61,10.66a85.12,85.12,0,0,0,3.28,14.49A14.06,14.06,0,0,0,19,35.33c-2.63-1.67-6.09-2.29-10.32.34C5.14,25.69,3.71,11.29,11.21,3.79ZM16.36,60.3c-.25.25-.11.16-4.51-2.88A62.89,62.89,0,0,1,4.6,52C-.48,46.9,2.94,43.47,6.25,40.16c2.76-2.75,6.31-5.11,10-3.9-5.64,2.47-8.45,14.17.08,23.63A.3.3,0,0,1,16.36,60.3Zm44.69-6.67c-1.19,1.18-4.61-.35-6.56,1.61-.56.48-13.73,11.78-29.41,2.37a36.36,36.36,0,0,1-12-12.49c.71-6.22,4.67-8.39,6.55-6.71a35.1,35.1,0,0,0,5.11,6.69,1,1,0,0,0,1.45-1.37A34.88,34.88,0,0,1,21.4,37.5a12,12,0,0,1,2.2-7.93C30.45,45.16,44,44.77,49.79,49.48a6.14,6.14,0,0,0,4.53,1.72c4,0,5.8-2.05,6.73-1.12C62.31,51.34,62.31,52.37,61.05,53.63Z"/><path class="cls-1" d="M50.19,53.34a34.87,34.87,0,0,1-18-4.54,1,1,0,0,0-1,1.71,36.86,36.86,0,0,0,19,4.83A1,1,0,0,0,50.19,53.34Z"/></g></svg>