<svg xmlns="http://www.w3.org/2000/svg" viewBox="0 0 64 64"><defs><style>.cls-1{fill:#231f20;}</style></defs><title>Banana Split</title><g id="Banana_Split" data-name="Banana Split"><path class="cls-1" d="M64,29c0-4-2.1-4-5-4a7,7,0,0,0-1,.09,11.07,11.07,0,0,0-6.36-5.3,5,5,0,0,0-3.84-6.71C47,6.83,43.76,4.32,43.6,4.2a1,1,0,0,0-1.21,1.6c.13.09,2.69,2.15,3.42,7.36a5,5,0,0,0-3.47,6.62,13,13,0,0,0-2.2,1,12.16,12.16,0,0,0-3.5-2,5,5,0,0,0-3.82-6.75C32,5.83,28.76,3.32,28.6,3.2a1,1,0,0,0-1.21,1.6c.13.09,2.69,2.15,3.42,7.36a5,5,0,0,0-3.45,6.67,12,12,0,0,0-3.5,2,13,13,0,0,0-2.2-1,5,5,0,0,0-3.84-6.7C17,6.83,13.76,4.32,13.6,4.2a1,1,0,0,0-1.21,1.6c.13.09,2.69,2.15,3.42,7.36a5,5,0,0,0-3.47,6.63A11.07,11.07,0,0,0,6,25.09,7,7,0,0,0,5,25c-2.9,0-5,0-5,4,0,1.91,2,4,5.37,6C1.31,35,1,39.83,4.09,40.84c.92,5,10.06,9,22.31,9.95a1,1,0,0,0,.37.18c2.32.56,1.05,2.76-1.05,4H24c-4.64,0-6.28,6-4,6H44c2.28,0,.65-6-4-6H38.28C36.76,54.08,36,53.06,36,52c0-.83,1.28-1,1.61-1.24,12.24-.94,21.38-4.93,22.3-9.95C63,39.86,62.77,35,58.63,35,62.05,33,64,30.91,64,29ZM46,15.19c0,.27,0,.53,0,.81a1,1,0,0,0,2,0c0-.29,0-.55,0-.82a3,3,0,1,1-2,0Zm4.55,6.34a9.46,9.46,0,0,1,5.49,4c-3,.92-6.92,2.67-12.09,3.95a9.47,9.47,0,0,0-2.29-7.26,10.64,10.64,0,0,1,1.82-.73A5,5,0,0,0,50.53,21.53ZM22.18,30c-.91-4.26,2-8.06,6.32-9.43a5,5,0,0,0,7,0c4.3,1.36,7.23,5.16,6.32,9.43A48.13,48.13,0,0,1,22.18,30ZM31,14.19c0,.27,0,.53,0,.81a1,1,0,0,0,2,0c0-.29,0-.55,0-.82a3,3,0,1,1-2,0Zm-15,1c0,.27,0,.53,0,.81a1,1,0,0,0,2,0c0-.29,0-.55,0-.82a3,3,0,1,1-2,0Zm-2.51,6.34a5,5,0,0,0,7.07,0,10.64,10.64,0,0,1,1.82.73,9.44,9.44,0,0,0-2.29,7.26C14.88,28.23,11,26.49,8,25.57A9.46,9.46,0,0,1,13.47,21.53ZM42.83,59H21.17A3,3,0,0,1,24,57H40A3,3,0,0,1,42.83,59Zm-7.67-4H28.84a4,4,0,0,0,.92-4c1.62,0,2.83,0,4.48,0A4,4,0,0,0,35.16,55ZM32,49C17.64,49,7.63,45,6.19,41H57.81C56.37,45,46.36,49,32,49ZM59,39H5a1,1,0,0,1,0-2H59A1,1,0,0,1,59,39Zm-5-4H10C4.13,32.58,2,30.09,2,29c0-2,0-2,3-2,1.22,0,3.18.71,5.66,1.62,16.12,5.87,26.54,5.87,42.68,0C55.82,27.71,57.78,27,59,27c3,0,3,0,3,2C62,30.09,59.87,32.58,54.05,35Z"/></g></svg>