<svg xmlns="http://www.w3.org/2000/svg" viewBox="0 0 64 64"><defs><style>.cls-1{fill:#231f20;}</style></defs><title>BBQ</title><g id="BBQ"><path class="cls-1" d="M62.29.29,59,3.59,57.65,2.23a3.09,3.09,0,0,0-4.25,0C50.78,4.86,49.85,5.41,49.85,7s1,2.22,2.24,3.47L51,11.59,47.23,7.82c-1.7-1.7-5.72,4.83-2.09,9.62l-.64.65-3.27-3.27a1,1,0,0,0-1.41,0l-3,3a1,1,0,0,0,0,1.41l3.27,3.27L38.5,24.09l-1.35-1.36a3.09,3.09,0,0,0-4.25,0c-2.62,2.63-3.55,3.18-3.55,4.8s1,2.22,2.24,3.47L30.5,32.09l-3.77-3.77c-1.7-1.7-5.72,4.83-2.09,9.62L23.5,39.09l-1.77-1.77a3.19,3.19,0,0,0-4.41,0,3.11,3.11,0,0,0,0,4.41l1.77,1.77L7.75,54.83a5,5,0,1,0,1.42,1.42L20.5,44.91c3.6,3.6,3.45,3.59,4,3.59s.43,0,3.71-3.29a1,1,0,0,0,0-1.42l-3.3-3.29,1.14-1.14C30.84,43,37.42,39,35.71,37.29l-3.8-3.79L33,32.41c1.34,1.35,2,2.26,3.5,2.26s2.09-.84,4.79-3.55a3,3,0,0,0,0-4.24L39.91,25.5l1.59-1.59,1.79,1.8a3.13,3.13,0,0,0,4.42-4.42l-1.8-1.79.64-.64c4.79,3.65,11.37-.36,9.66-2.07L52.41,13l1.09-1.09c1.34,1.35,2,2.26,3.5,2.26s2.09-.84,4.79-3.55a3,3,0,0,0,0-4.24L60.41,5l3.3-3.29A1,1,0,0,0,62.29.29ZM5,62a3,3,0,1,1,3-3A3,3,0,0,1,5,62ZM24.5,46.09c-6.18-6.19-6.1-5.92-6.1-6.56a1.14,1.14,0,0,1,1.13-1.13c.64,0,.4-.06,6.56,6.1ZM26.09,30.5l7.43,7.44C28.66,41.27,22.75,35.35,26.09,30.5Zm13.79-.79-2.67,2.67a1,1,0,0,1-1.42,0C31.4,28,31.35,28.1,31.35,27.53s.07-.48,3-3.38a1,1,0,0,1,1.41,0l4.15,4.14A1,1,0,0,1,39.88,29.71Zm6.74-6.21a1.12,1.12,0,0,1-1.91.79l-5.77-5.76,1.59-1.59C46.72,23.13,46.62,22.86,46.62,23.5Zm0-13.5L54,17.44C49.17,20.76,43.25,14.86,46.59,10Zm13.79-.79-2.67,2.67a1,1,0,0,1-1.42,0C51.9,7.49,51.85,7.6,51.85,7s.07-.48,3-3.38a1,1,0,0,1,1.41,0l4.15,4.14A1,1,0,0,1,60.38,9.21Z"/></g></svg>