<svg xmlns="http://www.w3.org/2000/svg" viewBox="0 0 64 64"><defs><style>.cls-1{fill:#231f20;}</style></defs><title>Boba</title><g id="Boba"><path class="cls-1" d="M49,20H48A13,13,0,0,0,35,8V1a1,1,0,0,0-1-1H30a1,1,0,0,0-1,1V8A13,13,0,0,0,16.05,20H15a1,1,0,0,0-1,1v4a1,1,0,0,0,1,1h1.08L19,63.08A1,1,0,0,0,20,64H44a1,1,0,0,0,1-.92L47.92,26H49a1,1,0,0,0,1-1V21A1,1,0,0,0,49,20Zm-3,0H35V10A11,11,0,0,1,46,20ZM31,20V10h2V20ZM31,2h2V8H31Zm-2,8V20H18A11,11,0,0,1,29,10ZM43.08,62H20.92L18.08,26H29v2c-8,0-7.87-.13-8.29.32s-.44-1.73,1.89,30.75a1,1,0,0,0,1,.93H40.4a1,1,0,0,0,1-.93l2.15-30a1,1,0,0,0-1-1.07H35V26H45.92ZM33,26v2H31V26Zm8.48,4-2,28H24.53l-2-28ZM48,24H16V22H48Z"/><path class="cls-1" d="M27.5,53a1.5,1.5,0,0,0,0,3A1.5,1.5,0,0,0,27.5,53Z"/><path class="cls-1" d="M37.5,54a1.5,1.5,0,0,0,0,3A1.5,1.5,0,0,0,37.5,54Z"/><path class="cls-1" d="M32.5,54a1.5,1.5,0,0,0,0,3A1.5,1.5,0,0,0,32.5,54Z"/><path class="cls-1" d="M35.5,53a1.5,1.5,0,0,0,0-3A1.5,1.5,0,0,0,35.5,53Z"/><path class="cls-1" d="M29,51.5a1.5,1.5,0,0,0,3,0A1.5,1.5,0,0,0,29,51.5Z"/><path class="cls-1" d="M26.5,51a1.5,1.5,0,0,0,0-3A1.5,1.5,0,0,0,26.5,51Z"/><path class="cls-1" d="M32.5,49a1.5,1.5,0,0,0,0-3A1.5,1.5,0,0,0,32.5,49Z"/><path class="cls-1" d="M28.5,47a1.5,1.5,0,0,0,0-3A1.5,1.5,0,0,0,28.5,47Z"/><path class="cls-1" d="M37.5,49a1.5,1.5,0,0,0,0-3A1.5,1.5,0,0,0,37.5,49Z"/></g></svg>