<svg xmlns="http://www.w3.org/2000/svg" viewBox="0 0 64 64"><defs><style>.cls-1{fill:#231f20;}</style></defs><title>Bread</title><g id="Bread"><path class="cls-1" d="M46,16H17c-6.45,0-17,.41-17,8a7.81,7.81,0,0,0,1.57,5C3.38,31.74,3,31.61,3,48a5.74,5.74,0,0,0,6,6H55a5.74,5.74,0,0,0,6-6c0-16.27-.41-16.22,1.43-19A7.81,7.81,0,0,0,64,24C64,16,52.29,16,46,16ZM5,48c0-16.13.48-16.72-1.77-20.08A5.85,5.85,0,0,1,2,24c0-6,10.41-6,16-6s16,0,16,6a5.85,5.85,0,0,1-1.23,3.92C30.54,31.25,31,31.7,31,48a3.75,3.75,0,0,1-4,4H9A3.75,3.75,0,0,1,5,48ZM60.77,27.92C58.54,31.25,59,31.7,59,48a3.75,3.75,0,0,1-4,4H31.62C33.46,49.83,33,48.79,33,34c0-5.72,3-4.51,3-10a6.4,6.4,0,0,0-4-6H46c5.59,0,16,0,16,6A5.85,5.85,0,0,1,60.77,27.92Z"/><path class="cls-1" d="M48,30H38a1,1,0,0,0,0,2H48A1,1,0,0,0,48,30Z"/><path class="cls-1" d="M56,30H52a1,1,0,0,0,0,2h4A1,1,0,0,0,56,30Z"/></g></svg>