<svg xmlns="http://www.w3.org/2000/svg" viewBox="0 0 64 64"><defs><style>.cls-1{fill:#231f20;}</style></defs><title>Burrito</title><g id="Burrito"><path class="cls-1" d="M52,10c0-2.45-2.37-2.11-2.15-3.55a3.94,3.94,0,0,0-4.36-4.29C43.87,2.44,44.34,0,41,0c-3.19,0-3.42,1.73-4.51.88A4,4,0,0,0,31.88.62C30.67,1.38,30.76,0,28,0a3.5,3.5,0,0,0-2.79,1.54,3.85,3.85,0,0,0-6.61.72c-.44,1-1.42,0-3.05.85a3.2,3.2,0,0,0-1.69,4.35,1,1,0,0,1-.48,1.2c-2.71,1.61-1,5.5,1.62,6.21V60c0,3.81,14.16,4,17,4s17-.19,17-4V14.68A4.62,4.62,0,0,0,52,10ZM47,59c-13.32-.46-24-10.14-24-22S33.68,15.48,47,15ZM37.17,15a9.91,9.91,0,0,0-9.39-6A8,8,0,0,1,42,13.61,29,29,0,0,0,37.17,15Zm-1.86.8A27.54,27.54,0,0,0,32,17.69a28.23,28.23,0,0,0-9.91-4.07A8,8,0,0,1,35.31,15.82Zm-5.07,3.12c-12.32,9.59-12.33,26.53,0,36.12A26.82,26.82,0,0,1,17,59V15A26.82,26.82,0,0,1,30.24,18.94ZM19.33,60.8A28.54,28.54,0,0,0,32,56.31a28.72,28.72,0,0,0,12.65,4.5C38.3,62.4,25.66,62.4,19.33,60.8ZM47.8,13a30.44,30.44,0,0,0-3.84.27c-.73-10-14.2-12.83-18.82-3.84a10,10,0,0,0-5.31,3.82A32.27,32.27,0,0,0,16,13a2.21,2.21,0,0,1-2-2,.66.66,0,0,1,.4-.62,3,3,0,0,0,1.32-3.63,1.27,1.27,0,0,1,.73-1.86,1.29,1.29,0,0,1,.75-.16A3,3,0,0,0,20.41,3.1,1.62,1.62,0,0,1,22,2c2,0,1.33,1.5,3.18,1.55C26.84,3.57,26.85,2,28,2a2.91,2.91,0,0,1,1.56.35,3.11,3.11,0,0,0,3.38,0,1.94,1.94,0,0,1,2.32.14,3,3,0,0,0,3.46.16c1.05-.7,3.18-1,3.92.16a3.1,3.1,0,0,0,3.19,1.35,2,2,0,0,1,2,2,3.09,3.09,0,0,0,1.65,3.2c.44.23.48.46.48.66C50,10.94,50,12.23,47.8,13Z"/><path class="cls-1" d="M32,31a1,1,0,0,0,0-2A1,1,0,0,0,32,31Z"/><path class="cls-1" d="M30,43a1,1,0,0,0,0-2A1,1,0,0,0,30,43Z"/><path class="cls-1" d="M43,42a1,1,0,0,0,0-2A1,1,0,0,0,43,42Z"/><path class="cls-1" d="M43,26a1,1,0,0,0,0-2A1,1,0,0,0,43,26Z"/><path class="cls-1" d="M23,22a1,1,0,0,0,0-2A1,1,0,0,0,23,22Z"/><path class="cls-1" d="M20,53a1,1,0,0,0,0-2A1,1,0,0,0,20,53Z"/><path class="cls-1" d="M39,53a1,1,0,0,0,0-2A1,1,0,0,0,39,53Z"/></g></svg>