<svg xmlns="http://www.w3.org/2000/svg" viewBox="0 0 64 64"><defs><style>.cls-1{fill:#231f20;}</style></defs><title>Cheese cake</title><g id="Cheese_cake" data-name="Cheese cake"><path class="cls-1" d="M63,48H50V33.58a1.19,1.19,0,0,1,.82-1.13c3.42-1.15,2.61-6.45-1-6.45H48a4,4,0,0,0-3.86,3H36.89a7,7,0,0,0-3.31-11.81c.92-2.55,3.33-6.07,9.6-7.21a1,1,0,0,0-.36-2c-7.54,1.37-10.27,5.92-11.26,9a7,7,0,0,0-4.45,12H14a3,3,0,0,0-3,3V48H1a1,1,0,0,0-1,1v1a1,1,0,0,0,.83,1l16.69,3,1.77,1.78c.42.42-.26.29,12.71.29,12.76,0,12.29.13,12.71-.29l1.77-1.78,16.69-3c1-.16.83-1.08.83-2A1,1,0,0,0,63,48ZM13,35H44v7a2,2,0,0,1-2,2H13ZM27,24a5,5,0,0,1,4.08-4.91C31,19.64,31,20,31,20a1,1,0,0,0,2,0,7.48,7.48,0,0,1,.08-.88A5,5,0,1,1,27,24ZM13,32a1,1,0,0,1,1-1H44v2H13Zm0,14H42a4,4,0,0,0,4-4V30a2,2,0,0,1,2-2c1.69,0,3-.3,3,1.42a1.19,1.19,0,0,1-.82,1.13,3.2,3.2,0,0,0-2.18,3V48H13Zm32.83,6c-.45.07-.54.27-2.24,2H20.41c-1.65-1.65-1.79-1.91-2.24-2L6.75,50h50.5Z"/><path class="cls-1" d="M18,40a1,1,0,0,0,0,2A1,1,0,0,0,18,40Z"/><path class="cls-1" d="M23,37a1,1,0,0,0,0,2A1,1,0,0,0,23,37Z"/><path class="cls-1" d="M28,40a1,1,0,0,0,0,2A1,1,0,0,0,28,40Z"/><path class="cls-1" d="M33,37a1,1,0,0,0,0,2A1,1,0,0,0,33,37Z"/><path class="cls-1" d="M38,40a1,1,0,0,0,0,2A1,1,0,0,0,38,40Z"/></g></svg>