<svg xmlns="http://www.w3.org/2000/svg" viewBox="0 0 64 64"><defs><style>.cls-1{fill:#231f20;}</style></defs><title>Chocolate</title><g id="Chocolate"><path class="cls-1" d="M29,14h6a1,1,0,0,0,1-1V5a1,1,0,0,0-1-1H29a1,1,0,0,0-1,1v8A1,1,0,0,0,29,14Zm1-8h4v6H30Z"/><path class="cls-1" d="M39,14h6a1,1,0,0,0,1-1V5a1,1,0,0,0-1-1H39a1,1,0,0,0-1,1v8A1,1,0,0,0,39,14Zm1-8h4v6H40Z"/><path class="cls-1" d="M19,14h6a1,1,0,0,0,1-1V5a1,1,0,0,0-1-1H19a1,1,0,0,0-1,1v8A1,1,0,0,0,19,14Zm1-8h4v6H20Z"/><path class="cls-1" d="M57.91,25.59c-2.86-6.44-3-7.48-4.85-8.69A5.66,5.66,0,0,0,50,16V1a1,1,0,0,0-1-1H15a1,1,0,0,0-1,1c0,30.1.05,28-.11,28a4.52,4.52,0,0,0-4.37,3.79c-1.61,9.66-1.71,9.36-1.28,9.86A1,1,0,0,0,9,43a6.38,6.38,0,0,0,4-1.9V63a1,1,0,0,0,1,1H50a1,1,0,0,0,1-1V28.53a11.93,11.93,0,0,0,6.5-1.66A1,1,0,0,0,57.91,25.59ZM16,2H48V16.6c-2.4.83-2,.85-2,.4a1,1,0,0,0-1-1H39a1,1,0,0,0-1,1v3.41l-2,.79V17a1,1,0,0,0-1-1H29a1,1,0,0,0-1,1v7.33c-2.36.9-2,.79-2,.67V17a1,1,0,0,0-1-1H19a1,1,0,0,0-1,1v8a1,1,0,0,0,1,1h4.53c-2.76,1-5.36,1.87-7.53,2.47ZM44,18.06l-4,1.56V18C44.45,18,44,18,44,18.06Zm-14,5.5V18h4v4ZM24,24H20V18h4ZM15,62V39.15a36.6,36.6,0,0,1,3.91-3.88A6.8,6.8,0,0,0,20,36V55a1,1,0,0,0,1,1H43a1,1,0,0,0,1-1c0-30.9-.12-28.65.25-28.84A13.2,13.2,0,0,0,49,28.26V62ZM28.11,32.13C31.57,37.3,36,38,36,36c0-3.93,3.43-6.89,6-8.55V54H22V36.69C24.74,36.93,26.79,34.56,28.11,32.13ZM45,24.25A1,1,0,0,0,44,24.08c-.39.17-9,3.93-9.91,10.78-2.39-.72-4.5-4-5.18-5.31a1,1,0,0,0-1.83.1c-.45,1.24-2.09,4.55-4.19,5a2.47,2.47,0,0,1-1.52-.18c-1.53-.66-1.83-2-2.87-1.34-2.91,1.76-5.73,6.19-8.24,7.51l1.26-7.53A2.52,2.52,0,0,1,14,31c3.74,0,30.53-11.28,36.14-13a3.73,3.73,0,0,1,1.83.58c1.2.78,1.21,1.27,3.74,7A10,10,0,0,1,45,24.25Z"/></g></svg>