<svg id="Cocktail" xmlns="http://www.w3.org/2000/svg" viewBox="0 0 64 64"><defs><style>.cls-1{fill:#231f20;}</style></defs><title>Cocktail</title><path class="cls-1" d="M48.41,7l5.3-5.29A1,1,0,0,0,52.29.29L45.59,7H11a1,1,0,0,0-.78,1.63L31,34.35V60a2,2,0,0,1-2,2H20a1,1,0,0,0,0,2H44a1,1,0,0,0,0-2H35a2,2,0,0,1-2-2V34.35C55.43,6.58,54.29,8.39,53.9,7.57S53.21,7,48.41,7ZM32,32.41,13.09,9h30.5L36,16.57A4,4,0,0,0,30.57,22l-2.28,2.27a1,1,0,0,0,1.42,1.42L32,23.43A4,4,0,0,0,37.43,18l9-9h4.5ZM36,20a2,2,0,1,1-2-2A2,2,0,0,1,36,20Z"/></svg>