<svg xmlns="http://www.w3.org/2000/svg" viewBox="0 0 64 64"><defs><style>.cls-1{fill:#231f20;}</style></defs><title>Coffee</title><g id="Coffee"><path class="cls-1" d="M32,45A10,10,0,1,0,22,35,10,10,0,0,0,32,45Zm0-18a8,8,0,1,1-8,8A8,8,0,0,1,32,27Z"/><path class="cls-1" d="M51,6c-.4,0,0,.75-2-5.32A1,1,0,0,0,48,0H16a1,1,0,0,0-.95.68L13.28,6A5,5,0,0,0,8,11v2a1,1,0,0,0,1,1h1.09l.71,7a1,1,0,0,0-.9,1.08l2.6,26a1,1,0,0,0,1,.9c.14,0-.06-1.5,1.5,14.1a1,1,0,0,0,1,.9H48a1,1,0,0,0,1-.9L50.41,49a1,1,0,0,0,1.09-.9c2.83-28.32,2.77-26.3,2.34-26.77C53,20.44,53,23,53.91,14H55a1,1,0,0,0,1-1V11A5,5,0,0,0,51,6ZM16.72,2H47.28l1.33,4H15.39ZM47.1,62H16.9L15.61,49H48.39Zm2.5-15H14.4L12,23H52Zm1.6-26H12.8l-.7-7H51.9ZM54,12H10V11a3,3,0,0,1,3-3H51a3,3,0,0,1,3,3Z"/></g></svg>