<svg xmlns="http://www.w3.org/2000/svg" viewBox="0 0 64 64"><defs><style>.cls-1{fill:#231f20;}</style></defs><title>Cola Can</title><g id="Cola_Can" data-name="Cola Can"><path class="cls-1" d="M51,12c0-.39,0-.25-3.51-6.41A3,3,0,0,0,46,0H18a3,3,0,0,0-1.49,5.59C13,11.79,13,11.62,13,12c0,.1-.09,45.17.17,45.56C17.38,63.87,17.26,64,18,64c30.2,0,28.4.21,28.83-.45C51.07,57.19,51,57.43,51,57,51.05,54,51,70.54,51,12ZM15,56V13H34.61c-1.39,3-4,10.09-1.56,17.32C37,42.06,36.86,49.56,32.66,56ZM35,29.68C32.52,22.4,35.84,15,36.83,13h6.33A19.28,19.28,0,0,0,37,29.09C38,40.14,43.72,43.91,41.2,56H35C38.92,49.25,38.87,41.45,35,29.68Zm4-.77A17.5,17.5,0,0,1,46.3,13H49V56H43.23C45.67,43.62,40,39.36,39,28.91ZM18,2H46a1,1,0,0,1,0,2H18A1,1,0,0,1,18,2Zm.58,4H45.42l2.86,5H15.72ZM45.46,62H18.54l-2.67-4H48.13Z"/></g></svg>