<svg xmlns="http://www.w3.org/2000/svg" viewBox="0 0 64 64"><defs><style>.cls-1{fill:#231f20;}</style></defs><title>Cookies</title><g id="Cookies"><path class="cls-1" d="M64,22C64,2.48,40.26-7.38,26.44,6.44A21.39,21.39,0,0,0,20.1,20.07,21.65,21.65,0,0,0,6.44,26.44C-7.31,40.2,2.35,64,22,64A22,22,0,0,0,43.91,43.88,21.92,21.92,0,0,0,64,22ZM22,62C4.17,62-4.67,40.38,7.86,27.86S42,24.23,42,42A20,20,0,0,1,22,62ZM44,41.87A22,22,0,0,0,22.11,20,19.89,19.89,0,0,1,49.63,3.58C68.89,11.55,64.55,39.85,44,41.87Z"/><path class="cls-1" d="M34,37a5,5,0,1,0,5,5A5,5,0,0,0,34,37Zm0,8a3,3,0,1,1,3-3A3,3,0,0,1,34,45Z"/><path class="cls-1" d="M11,45a4,4,0,1,0,4,4A4,4,0,0,0,11,45Zm0,6a2,2,0,1,1,2-2A2,2,0,0,1,11,51Z"/><path class="cls-1" d="M11.5,35A3.5,3.5,0,1,0,8,38.5,3.5,3.5,0,0,0,11.5,35Zm-5,0a1.5,1.5,0,0,1,3,0A1.5,1.5,0,0,1,6.5,35Z"/><path class="cls-1" d="M24.5,40A3.5,3.5,0,1,0,21,43.5,3.5,3.5,0,0,0,24.5,40Zm-5,0a1.5,1.5,0,0,1,3,0A1.5,1.5,0,0,1,19.5,40Z"/><path class="cls-1" d="M22,26a3,3,0,1,0-3,3A3,3,0,0,0,22,26Zm-4,0a1,1,0,0,1,2,0A1,1,0,0,1,18,26Z"/><path class="cls-1" d="M24,52a3,3,0,1,0,3,3A3,3,0,0,0,24,52Zm0,4a1,1,0,0,1,0-2A1,1,0,0,1,24,56Z"/><path class="cls-1" d="M42,15a5,5,0,1,0,5,5A5,5,0,0,0,42,15Zm0,8a3,3,0,1,1,3-3A3,3,0,0,1,42,23Z"/><path class="cls-1" d="M44,12a4,4,0,1,0-4-4A4,4,0,0,0,44,12Zm0-6a2,2,0,1,1-2,2A2,2,0,0,1,44,6Z"/><path class="cls-1" d="M31,9a3,3,0,1,0,3,3A3,3,0,0,0,31,9Zm0,4a1,1,0,0,1,0-2A1,1,0,0,1,31,13Z"/><path class="cls-1" d="M51.5,28A3.5,3.5,0,1,0,55,31.5,3.5,3.5,0,0,0,51.5,28Zm0,5a1.5,1.5,0,0,1,0-3A1.5,1.5,0,0,1,51.5,33Z"/><path class="cls-1" d="M56,14a3,3,0,1,0,3,3A3,3,0,0,0,56,14Zm0,4a1,1,0,0,1,0-2A1,1,0,0,1,56,18Z"/></g></svg>