<svg xmlns="http://www.w3.org/2000/svg" viewBox="0 0 64 64"><defs><style>.cls-1{fill:#231f20;}</style></defs><title>Dimsum</title><g id="Dimsum"><path class="cls-1" d="M63,34H62V29a1,1,0,0,0-1-1H58.83c1-6.41-3.28-11.24-8.74-14.35C47.44,12.14,47.73,10,46.18,10a1.85,1.85,0,0,0-1.11.4,1.63,1.63,0,0,0-2.14,0,1.85,1.85,0,0,0-1.11-.4c-1.61,0-1.13,2-3.82,3.59C35.35,12,35.76,10,34.18,10a1.85,1.85,0,0,0-1.11.4,1.63,1.63,0,0,0-2.14,0,1.85,1.85,0,0,0-1.11-.4c-1.61,0-1.13,2-3.82,3.59C23.35,12,23.76,10,22.18,10a1.85,1.85,0,0,0-1.11.4,1.63,1.63,0,0,0-2.14,0,1.85,1.85,0,0,0-1.11-.4c-1.59,0-1.17,2.09-3.91,3.65C8.58,16.69,4.15,21.5,5.17,28H3a1,1,0,0,0-1,1v5H1a1,1,0,0,0-1,1V53a1,1,0,0,0,1,1H63a1,1,0,0,0,1-1V35A1,1,0,0,0,63,34ZM42,12.27c.18.22.42.79,1.12.72a1,1,0,0,0,.88-.72,1,1,0,0,0,.87.73c.7.06,1-.51,1.13-.73a7.87,7.87,0,0,0,3.1,3.12c4.76,2.7,8.8,6.91,7.71,12.61h-10c.9-5.7-2.2-9.93-7-13.24A7.87,7.87,0,0,0,42,12.27Zm-12,0c.17.22.43.79,1.12.72a1,1,0,0,0,.88-.72,1,1,0,0,0,.87.73c.7.06,1-.51,1.13-.73a8.1,8.1,0,0,0,3.48,3.34c4.65,2.79,8.38,6.92,7.33,12.39H19.19A11.63,11.63,0,0,1,19,25.76c0-4.36,4.26-8.36,7.89-10.37A7.84,7.84,0,0,0,30,12.27ZM14.89,15.39A7.84,7.84,0,0,0,18,12.27c.18.22.42.79,1.12.72a1,1,0,0,0,.88-.72,1,1,0,0,0,.87.73c.7.06.95-.51,1.13-.73a7.87,7.87,0,0,0,2.15,2.49c-4.76,3.29-7.88,7.52-7,13.24h-10C6.09,22.25,10.23,18.05,14.89,15.39ZM4,30H60v4H4ZM2,36H7.18c-.26.74-.18,1.14-.18,3H6a1,1,0,0,0,0,2H7v6H6a1,1,0,0,0,0,2H7c0,2.1-.06,2.32.18,3H2ZM62,52H10a1,1,0,0,1-1-1V49h1a1,1,0,0,0,0-2H9V41h1a1,1,0,0,0,0-2H9V37a1,1,0,0,1,1-1H62Z"/></g></svg>