<svg xmlns="http://www.w3.org/2000/svg" viewBox="0 0 64 64"><defs><style>.cls-1{fill:#231f20;}</style></defs><title>Fried Fries</title><g id="Fried_Fries" data-name="Fried Fries"><path class="cls-1" d="M56.76,22.35c-.36-.42-.67-.35-1.9-.35,1.53-13.52,1.57-12.75,1.2-13.21S55.8,8.46,51,7.92V3a1,1,0,0,0-1-1H44a1,1,0,0,0-1,1V9H41V4a1,1,0,0,0-1-1H34a1,1,0,0,0-1,1v8H32V1a1,1,0,0,0-1-1H25a1,1,0,0,0-1,1V4H20V1a1,1,0,0,0-1-1H13a1,1,0,0,0-1,1V9l-3.3.35a1,1,0,0,0-.89,1.1L9,22H8a1,1,0,0,0-1,1.16C13.43,62.73,13,60.37,13.29,60.71c3.13,3.12,3.24,3.5,4,3.24,7.7-2.57,21.61-2.59,29.36,0a1,1,0,0,0,1-.24C51,60.45,50.92,60.6,51,60.16,57.5,20,57.2,22.87,56.76,22.35ZM52.85,22c-4.6,0-3.74,0-4,0L50.19,9.85l4,.44ZM45,4h4V7.8c-.87.28-.56-.28-2.4,16l-.6.42V10a1,1,0,0,0-1-1Zm-5,7h4V25.37a22.43,22.43,0,0,1-4,1.56ZM35,5h4V9a1,1,0,0,0-1,1V27.42a28.09,28.09,0,0,1-3,.43ZM33,28a26.29,26.29,0,0,1-4-.12V14h4ZM28,11v1a1,1,0,0,0-1,1V27.59a25.72,25.72,0,0,1-3-.66V11ZM26,2h4v8a1,1,0,0,0-1-1H26ZM24,6V9H23a1,1,0,0,0-1,1V26.27a21.16,21.16,0,0,1-2-.9V6ZM14,2h4V24.21c-.27-.19-.52-.36-.74-.53C15.58,7.92,16.25,8.59,14,8.83ZM9.9,11.27l4-.42L15.07,22c-.33,0,.44,0-4,0ZM49.06,59.52l-2.34,2.35a59.06,59.06,0,0,0-29.44,0l-2.34-2.35L9.17,24h5.39c7.85,8,27,8,34.88,0h5.39Z"/><path class="cls-1" d="M32,36a9,9,0,1,0,9,9A9,9,0,0,0,32,36Zm0,16a7,7,0,1,1,7-7A7,7,0,0,1,32,52Z"/></g></svg>