<svg xmlns="http://www.w3.org/2000/svg" viewBox="0 0 64 64"><defs><style>.cls-1{fill:#231f20;}</style></defs><title>Stick Ice</title><g id="Stick_Ice" data-name="Stick Ice"><path class="cls-1" d="M32,0A15,15,0,0,0,17,15V40a5,5,0,0,0,5,5h6V60a4,4,0,0,0,8,0V45h6a5,5,0,0,0,5-5V15A15,15,0,0,0,32,0ZM19,15a13,13,0,0,1,26,0V26.08A6,6,0,0,0,40,32v2a2,2,0,0,1-4,0V27a4,4,0,0,0-8,0v4a2,2,0,0,1-4,0V27a6,6,0,0,0-5-5.92ZM34,60a2,2,0,0,1-4,0V45h4Zm8-17H22a3,3,0,0,1-3-3V23.14A4,4,0,0,1,22,27v4a4,4,0,0,0,8,0V27a2,2,0,0,1,4,0v7a4,4,0,0,0,8,0V32a4,4,0,0,1,3-3.86V40A3,3,0,0,1,42,43Z"/><path class="cls-1" d="M24.11,17.45l1,2a1,1,0,0,0,1.78-.9l-1-2A1,1,0,0,0,24.11,17.45Z"/><path class="cls-1" d="M32,16h2a1,1,0,0,0,0-2H32A1,1,0,0,0,32,16Z"/><path class="cls-1" d="M38.55,9.89C40.75,11,40.68,11,41,11a1,1,0,0,0,.45-1.89l-2-1A1,1,0,0,0,38.55,9.89Z"/><path class="cls-1" d="M33,8V6a1,1,0,0,0-2,0V8A1,1,0,0,0,33,8Z"/><path class="cls-1" d="M37.55,20.89C39.75,22,39.68,22,40,22a1,1,0,0,0,.45-1.89l-2-1A1,1,0,0,0,37.55,20.89Z"/><path class="cls-1" d="M23.89,11.45l1-2a1,1,0,0,0-1.78-.9l-1,2A1,1,0,0,0,23.89,11.45Z"/></g></svg>