<svg xmlns="http://www.w3.org/2000/svg" viewBox="0 0 64 64"><defs><style>.cls-1{fill:#231f20;}</style></defs><title>Ice Cream</title><g id="Ice_Cream" data-name="Ice Cream"><path class="cls-1" d="M47.45,28.39a7.39,7.39,0,0,0-3-9.86c1.39-3,.25-6.11-4.43-7.33C39.52.43,29.66,0,29,0a1,1,0,1,0-.12,2c1.26.51,2.86,9-3.91,9-6.11,0-7.95,5-5.93,7.62a6.69,6.69,0,0,0-2.42,9.72,3,3,0,0,0,.47,5.51L19,46.15A1,1,0,0,0,20,47h.64L23,63.15A1,1,0,0,0,24,64H40a1,1,0,0,0,1-.85L43.36,47H44a1,1,0,0,0,1-.85l1.89-12.3A3,3,0,0,0,47.45,28.39ZM22,20H34a1,1,0,0,0,0-2H22c-2.69,0-2.58-5,3-5,2.6,0,7-1.47,7-7a11.3,11.3,0,0,0-.49-3.6C34,3.13,37.59,5.19,38,11H34a1,1,0,0,0,0,2h4.89c3.07.64,5.09,2.22,3.55,5H38a1,1,0,0,0,0,2h4.81c2.85,1.05,4.49,4.37,2.6,8H20C16.35,28,16.31,20,22,20ZM39.14,62H24.86l-2.2-15H41.34Zm4-17H20.86L19.17,34H44.83ZM46,32H18a1,1,0,0,1,0-2H46A1,1,0,0,1,46,32Z"/></g></svg>