<svg xmlns="http://www.w3.org/2000/svg" viewBox="0 0 64 64"><defs><style>.cls-1{fill:#231f20;}</style></defs><title>Kimbab</title><g id="Kimbab"><path class="cls-1" d="M48,28V20c0-8-32-8-32,0v8c-8,.08-16,2.13-16,6V52c0,7.11,26.4,8,32,2.19C37.63,60,64,59.07,64,52V34C64,30.14,56,28.09,48,28Zm14,6c0,1.63-5.65,4-14.5,4S33,35.63,33,34s5.22-3.81,13.49-4c-2.65.08-8.49.53-8.49,3,0,2.86,7.91,3,9.5,3s9.5-.14,9.5-3c0-2.45-5.84-2.9-8.49-3C56.78,30.19,62,32.43,62,34ZM23.67,33c-2.91,1.33-11.43,1.33-14.34,0C12.24,31.67,20.76,31.67,23.67,33Zm31,0c-2.91,1.33-11.43,1.33-14.34,0C43.24,31.67,51.76,31.67,54.67,33ZM32,31.81c-2.25-2.31-8-3.6-14-3.79v-5c5.82,3.92,22.18,3.92,28,0v5C40,28.21,34.25,29.5,32,31.81ZM38.93,19c-2.77,1.33-11.07,1.34-13.86,0C27.84,17.67,36.14,17.66,38.93,19ZM31,16c-2.58.08-8.24.53-8.24,3,0,2.86,7.69,3,9.23,3s9.23-.14,9.23-3c0-2.45-5.66-2.9-8.24-3,8,.17,13,2.41,13,4s-5.45,4-14,4-14-2.37-14-4S23,16.19,31,16ZM15.49,30C12.84,30.1,7,30.55,7,33c0,2.86,7.91,3,9.5,3s9.5-.14,9.5-3c0-2.45-5.84-2.9-8.49-3C25.78,30.19,31,32.43,31,34s-5.65,4-14.5,4S2,35.63,2,34,7.22,30.19,15.49,30Zm1,26C7.65,56,2,53.63,2,52V37c6,4,23,4,29,0V52C31,53.63,25.35,56,16.5,56Zm31,0C38.65,56,33,53.63,33,52V37c6,4,23,4,29,0V52C62,53.63,56.35,56,47.5,56Z"/><path class="cls-1" d="M9,52a1,1,0,0,0,0,2A1,1,0,0,0,9,52Z"/><path class="cls-1" d="M5,49a1,1,0,0,0,0,2A1,1,0,0,0,5,49Z"/><path class="cls-1" d="M10,47a1,1,0,0,0,0,2A1,1,0,0,0,10,47Z"/><path class="cls-1" d="M40,51a1,1,0,0,0,0,2A1,1,0,0,0,40,51Z"/><path class="cls-1" d="M36,48a1,1,0,0,0,0,2A1,1,0,0,0,36,48Z"/><path class="cls-1" d="M41,46a1,1,0,0,0,0,2A1,1,0,0,0,41,46Z"/></g></svg>