<svg xmlns="http://www.w3.org/2000/svg" viewBox="0 0 64 64"><defs><style>.cls-1{fill:#231f20;}</style></defs><title>lollipop</title><g id="lollipop"><path class="cls-1" d="M52,20A20,20,0,1,0,29,39.75V63a1,1,0,0,0,1,1h4a1,1,0,0,0,1-1V39.75A20,20,0,0,0,52,20ZM33,40V62H31V40Zm-1-2A18,18,0,1,1,49.66,16.54,15.72,15.72,0,0,1,34,32.15,12.38,12.38,0,0,1,21.6,19.79a9.7,9.7,0,0,1,9.69-9.69,7.56,7.56,0,0,1,7.55,7.55A5.85,5.85,0,0,1,33,23.49,4.47,4.47,0,0,1,28.53,19a3.37,3.37,0,0,1,3.37-3.38,2.51,2.51,0,0,1,2.51,2.5,1,1,0,0,0,1,1c2.13,0,.76-5.5-3.51-5.5A5.38,5.38,0,0,0,26.53,19,6.47,6.47,0,0,0,33,25.49a7.85,7.85,0,0,0,7.84-7.84A9.56,9.56,0,0,0,31.29,8.1,11.7,11.7,0,0,0,19.6,19.79,14.37,14.37,0,0,0,34,34.15a17.72,17.72,0,0,0,15.16-8.6A18,18,0,0,1,32,38Z"/></g></svg>