<svg xmlns="http://www.w3.org/2000/svg" viewBox="0 0 64 64"><defs><style>.cls-1{fill:#231f20;}</style></defs><title>Milk</title><g id="Milk"><path class="cls-1" d="M18,8a4,4,0,1,0,4,4A4,4,0,0,0,18,8Zm0,6a2,2,0,1,1,2-2A2,2,0,0,1,18,14Z"/><path class="cls-1" d="M62.73,26.31c-.43-.45,1-.31-20.73-.31,0-8.56,0-6.74,0-7s.44.67-7-14.2V3a3,3,0,0,0-3-3H12A3,3,0,0,0,9,3V4.73C.74,19.2,1,18.61,1,19V63a1,1,0,0,0,1,1c42,0,39.44.26,39.87-.53,1.29.73.61.53,15.29.53a4,4,0,0,0,4-3.78C63.16,24.21,63.16,26.78,62.73,26.31ZM26,45C14.93,44.07,13.5,28.11,3,27.12V20H26ZM3,29.14c9.05,1.09,10.81,17,23,17.81v5c-11.29-.45-12.71-8.4-23-8.93ZM28,47H39.11l.28,5H28ZM39,26a1,1,0,0,0-1,1.06L39,45H28V20H40v6ZM28.62,18,34,7.24,39.38,18ZM11,3a1,1,0,0,1,1-1H32a1,1,0,0,1,1,1V4H11Zm-.42,3h21.8l-6,12H3.72ZM3,45.05c9.33.54,11.06,8.49,23,8.93v8H3ZM28,62V54H39.5c.71,12.86.5,4.53.5,8Zm31.16-1.89a2,2,0,0,1-2,1.89H43.84a2,2,0,0,1-2-1.89L40.06,28H60.94Z"/><path class="cls-1" d="M44.72,59H56.28a1,1,0,0,0,1-1c1.14-20.72,1.2-19.29.78-19.74S58.44,38,43.67,38a1,1,0,0,0-1,1l1,19A1,1,0,0,0,44.72,59ZM56.27,40l-.94,17H45.67l-.94-17Z"/></g></svg>