<svg xmlns="http://www.w3.org/2000/svg" viewBox="0 0 64 64"><defs><style>.cls-1{fill:#231f20;}</style></defs><title>Mineral Water</title><g id="Mineral_Water" data-name="Mineral Water"><path class="cls-1" d="M58.73,26.31C58.29,25.86,60.05,26,35,26a1,1,0,0,0-1,1.06l1.84,33.16a4,4,0,0,0,4,3.78H53.16a4,4,0,0,0,4-3.78C59.16,24.21,59.16,26.78,58.73,26.31Zm-3.57,33.8a2,2,0,0,1-2,1.89H39.84a2,2,0,0,1-2-1.89L36.06,28H56.94Z"/><path class="cls-1" d="M40.72,59H52.28a1,1,0,0,0,1-1c1.14-20.72,1.2-19.29.78-19.74S54.44,38,39.67,38a1,1,0,0,0-1,1l1,19A1,1,0,0,0,40.72,59ZM52.27,40l-.94,17H41.67l-.94-17Z"/><path class="cls-1" d="M31,19c0-5.64-6.09-9.52-8-10.6V8a1,1,0,0,0,1-1V1a1,1,0,0,0-1-1H13a1,1,0,0,0-1,1V7a1,1,0,0,0,1,1v.4c-1.91,1.08-8,5-8,10.6,0,4.21.72,5.76,1.3,7,1.21,2.6.67,3.68,0,4.86C4.58,33.8,5,31.93,5,59a5,5,0,0,0,5,5H26a5,5,0,0,0,5-5V35c0-3.23-2-4.46-2-6C29,25.45,31,26.09,31,19ZM14,2h8V6H14ZM29,51H7V37H29ZM26,62H10a3,3,0,0,1-3-3V53H29v6A3,3,0,0,1,26,62Zm1-33c0,2.26,2,3.43,2,6H7c0-2.67,2-3.62,2-6,0-4.32-2-3.23-2-10,0-5.3,7.37-9.07,7.45-9.11C15.11,9.56,15,9,15,8h6c0,.56-.18,1.53.55,1.89C21.63,9.93,29,13.68,29,19,29,25.58,27,24.8,27,29Z"/></g></svg>