<svg xmlns="http://www.w3.org/2000/svg" viewBox="0 0 64 64"><defs><style>.cls-1{fill:#231f20;}</style></defs><title>muffin</title><g id="muffin"><path class="cls-1" d="M54,40h-.73c4.29-4.59.17-14-7.32-14.94-.33-3.71-2.67-6.62-7-8.67a7,7,0,0,0-5.4-7.2c.92-2.55,3.33-6.07,9.6-7.21a1,1,0,0,0-.36-2C35.28,1.39,32.55,5.94,31.56,9a7,7,0,0,0-2.16.49C26.78,8.09,23.83,7.62,19.9,8a1,1,0,0,0,.1,2c2.68,0,1.7,5.53-1.45,7.11C13,19.89,10.19,25.54,13.7,28.49c-5.38,1.75-5.79,8.26-3,11.51-.73,0-1.12-.07-1.47.39s-.7-1,5.83,22.87A1,1,0,0,0,16,64H48a1,1,0,0,0,1-.74l6-22A1,1,0,0,0,54,40ZM33,12a7.48,7.48,0,0,1,.08-.88,5,5,0,1,1-2,0C31,11.64,31,12,31,12A1,1,0,0,0,33,12ZM19.45,18.89c3.39-1.69,4.92-6.39,3.65-9a12.16,12.16,0,0,1,4.28.88,7,7,0,1,0,11.18,7.66C42.2,20.28,44,22.76,44,26c0,3.6-20.07,2.13-24.87,2-.77-.11-4.35.07-4.9-2.25C13.78,23.9,15.62,20.81,19.45,18.89Zm-7.07,20C10.15,36.65,9.89,30,17,30c10.85,0,26.85,2,28.8-2.95,7.65,1,10.45,13,2.2,13H15.13A3.72,3.72,0,0,1,12.38,38.91ZM11.31,42h5.85l3.47,20H16.76Zm7.88,0h6.87L27.3,62H22.66ZM29.3,62,28.06,42h7.88L34.7,62Zm7.4,0,1.24-20h6.87L41.34,62Zm10.54,0H43.37l3.47-20h5.85Z"/></g></svg>