<svg xmlns="http://www.w3.org/2000/svg" viewBox="0 0 64 64"><defs><style>.cls-1{fill:#231f20;}</style></defs><title>Onigiri</title><g id="Onigiri"><path class="cls-1" d="M63,43H47c13.6-7-4-36-15-36S3.37,36,17,43H1a1,1,0,0,0-1,1v6a1,1,0,0,0,1,1H4v5a1,1,0,0,0,1,1h8a1,1,0,0,0,1-1V51H50v5a1,1,0,0,0,1,1h8a1,1,0,0,0,1-1V51h3a1,1,0,0,0,1-1V44A1,1,0,0,0,63,43ZM25,43V27H39V43ZM14,34.13C14,24.27,24.93,9,32,9S50,24.27,50,34.13c0,5.09-2.71,7.68-9,8.52V26a1,1,0,0,0-1-1H24a1,1,0,0,0-1,1V42.65C16.71,41.81,14,39.22,14,34.13ZM12,55H6V51h6Zm46,0H52V51h6Zm4-6H2V45H62Z"/><path class="cls-1" d="M17,35a1,1,0,0,0,0,2A1,1,0,0,0,17,35Z"/><path class="cls-1" d="M20,34a1,1,0,0,0,0-2A1,1,0,0,0,20,34Z"/><path class="cls-1" d="M20,38a1,1,0,0,0,0,2A1,1,0,0,0,20,38Z"/></g></svg>