<svg xmlns="http://www.w3.org/2000/svg" viewBox="0 0 64 64"><defs><style>.cls-1{fill:#231f20;}</style></defs><title>Pancake</title><g id="Pancake"><path class="cls-1" d="M63.79,42.38c-.39-.5-.6-.38-4-.38a4.62,4.62,0,0,0-1.23-4.46c2.09-1.33,1.66-4.28,0-6,2.08-1.32,1.67-4.27,0-6,3-1.93.87-7.54-3.59-7.54H39V13a1,1,0,0,0-1-1H26a1,1,0,0,0-1,1v5H9c-4.52,0-6.58,5.64-3.59,7.53-1.68,1.75-2.07,4.69,0,6-1.68,1.75-2.07,4.69,0,6A4.64,4.64,0,0,0,4.18,42H1a1,1,0,0,0-1,1.24A11.54,11.54,0,0,0,11.25,52h41.5A11.54,11.54,0,0,0,64,43.24,1,1,0,0,0,63.79,42.38ZM25,30H23V29a1,1,0,0,1,1.71-.73C25.05,28.57,25,28.88,25,30Zm-2,2h2.17a3,3,0,0,0,5.66,0H41c0,4,6,3.92,6,0h8c2.46,0,3.61,2.82,2.69,3.71-.4.41,1.72.29-34.69.29Zm18-2H31V26h2v1c0,4,6,3.93,6,0a1,1,0,0,1,2,0ZM31,24a1,1,0,0,1,2,0Zm26.69,5.71c-.36.38.29.29-10.69.29V26h8C57.46,26,58.61,28.82,57.69,29.71ZM55,20c2.46,0,3.61,2.82,2.69,3.71-.36.38.29.29-10.69.29V22a2,2,0,0,1,2-2ZM27,14H37v4H27Zm18.54,6c-.72,1.23-.54,1.08-.54,12a1,1,0,0,1-2,0V27a3,3,0,0,0-6,0,1,1,0,0,1-2,0V24c0-3.92-6-4-6,0v7a1,1,0,0,1-2,0V29c0-3.92-6-4-6,0v8a1,1,0,0,1-2,0c0-15.95.21-15.71-.54-17ZM7,36c-1.91,0-1-4,2-4h8v4Zm0-6c-1.39,0-1.22-2-.13-3.12S8.53,26,17,26v4Zm-.13-9.12C8,19.73,8.74,20,15,20a2,2,0,0,1,2,2v2H7C5.61,24,5.78,22,6.87,20.88ZM9,38h8.17a3,3,0,0,0,5.66,0H55c2.46,0,3.61,2.82,2.69,3.71-.42.43,2.74.29-50.69.29C5.09,42,6,38,9,38ZM52.75,50H11.25a9.55,9.55,0,0,1-8.88-6H61.63A9.55,9.55,0,0,1,52.75,50Z"/></g></svg>