<svg xmlns="http://www.w3.org/2000/svg" viewBox="0 0 64 64"><defs><style>.cls-1{fill:#231f20;}</style></defs><title>Pie</title><g id="Pie"><path class="cls-1" d="M64,30c0-2.49-4-3.6-5.59-3.94C56.67,24.85,43.59,16,32,16S7.33,24.85,5.59,26.06C4,26.4,0,27.51,0,30s2,3.8,5.34,4L9.12,44.66A5,5,0,0,0,13.83,48H50.17a5,5,0,0,0,4.71-3.34L58.66,34C62,33.8,64,32.35,64,30ZM53,44a3,3,0,0,1-2.83,2H13.83A3,3,0,0,1,11,44L8,35.35a18.92,18.92,0,0,0,9.74.73C21.07,39,27.11,39,32,39s10.93,0,14.31-2.92a18.91,18.91,0,0,0,9.74-.73Zm5-12a1,1,0,0,0-.71.29C55.68,33.91,51.08,35,46.2,34a1,1,0,0,0-.91.27C42.59,37,36.72,37,32,37c-14.91,0-12.15-3.38-14.2-3-4.88,1-9.48-.11-11.09-1.73A1,1,0,0,0,6,32c-1.2,0-4-.2-4-2,0-.59,2.08-1.59,4.2-2,.52-.1,14-10,25.8-10s25.16,9.85,25.8,10c2.12.43,4.2,1.43,4.2,2C62,31.8,59.2,32,58,32Z"/><path class="cls-1" d="M32.8,22.4a1,1,0,0,0-1.6,0c-.22.29-2.12,2.91-2.2,5.24C28.84,33.63,39.53,31.43,32.8,22.4Zm-.16,6.35c-.73.75-2.88.11-.64-3.89C32.6,25.94,33.5,27.87,32.64,28.75Z"/><path class="cls-1" d="M38.65,20.55a1,1,0,0,0-1.39.8c-1,8.87,5.5,8.68,6.36,5.27C44.31,23.87,41.24,21.67,38.65,20.55Zm1.92,6.22c-1.18-.34-1.37-2.46-1.39-3.69C43,25.36,41.62,27.07,40.57,26.77Z"/><path class="cls-1" d="M25.24,20.55c-1.45.63-3.87,2.14-4.52,3.44-3.13,5.08,7.22,8.58,5.91-2.64A1,1,0,0,0,25.24,20.55ZM24.16,26c-1,1.87-4.21-.11.55-3A7,7,0,0,1,24.16,26Z"/></g></svg>