<svg xmlns="http://www.w3.org/2000/svg" viewBox="0 0 64 64"><defs><style>.cls-1{fill:#231f20;}</style></defs><title>Pizza</title><g id="Pizza"><path class="cls-1" d="M50.87,1.19a3,3,0,0,0-4.28,1L44,6.69c-1.76-2-14.51-6.78-27-.71a3,3,0,0,0-1.52,1.76,3,3,0,0,0-2.29.45,29.82,29.82,0,0,0-13,22.6A3,3,0,0,0,.84,33a3,3,0,0,0-.76,2.21,29.82,29.82,0,0,0,13.05,22.6,2.92,2.92,0,0,0,2.29.44A3,3,0,0,0,16.94,60a30.06,30.06,0,0,0,26.12,0,3,3,0,0,0,1.52-1.77,2.92,2.92,0,0,0,2.29-.44,29.82,29.82,0,0,0,13.05-22.6A3,3,0,0,0,59.13,33c-1.21-1.29-.19-1-27.4-1l2.89-5h26.3a3,3,0,0,0,3-3.21A29.82,29.82,0,0,0,50.87,1.19ZM40.62,53.4a22.94,22.94,0,0,1-21.24,0L30,35ZM30,31,19.38,12.61a22.91,22.91,0,0,1,21.2,0C30,31,33.69,24.61,30,31Zm-1.73,1H7A23,23,0,0,1,17.65,13.61Zm0,2L17.65,52.39A23,23,0,0,1,7,34Zm-11-25.63a1,1,0,0,1,.5-.59,28.09,28.09,0,0,1,24.38,0,1,1,0,0,1,.5.59c.15.51-.09.72-1.11,2.49a24.92,24.92,0,0,0-23.2,0C17.49,9.33,17.13,9,17.31,8.37Zm-3,1.47A1,1,0,0,1,15,9.7c.57.13.63.45,1.63,2.18A25,25,0,0,0,5,32H3.08a1,1,0,0,1-1-1.06A27.88,27.88,0,0,1,14.26,9.84Zm0,46.32A27.86,27.86,0,0,1,2.07,35.06a1,1,0,0,1,.27-.74C2.73,33.9,3,34,5,34A25,25,0,0,0,16.65,54.12C15.58,56,15.56,56.18,15,56.3A1,1,0,0,1,14.26,56.16Zm28.43,1.47a1,1,0,0,1-.5.59,28.09,28.09,0,0,1-24.38,0,1,1,0,0,1-.5-.59c-.17-.56.07-.77,1.07-2.5a25,25,0,0,0,23.24,0C42.51,56.67,42.87,57,42.69,57.63Zm15-23.31a1,1,0,0,1,.27.74,27.86,27.86,0,0,1-12.19,21.1,1,1,0,0,1-1.41-.34l-1-1.7A25,25,0,0,0,55,34C57,34,57.27,33.9,57.66,34.32ZM42.35,52.39,31.73,34H53A23,23,0,0,1,42.35,52.39ZM35.77,25c.86-1.48,9.73-16.92,10.58-18.39A23.08,23.08,0,0,1,57,25Zm25.89-.32c-.4.42-.69.32-2.69.32A25.05,25.05,0,0,0,47.34,4.88l1-1.7a1,1,0,0,1,1.41-.34,27.86,27.86,0,0,1,12.19,21.1A1,1,0,0,1,61.66,24.68Z"/><path class="cls-1" d="M46.5,16A3.5,3.5,0,1,0,50,19.5,3.5,3.5,0,0,0,46.5,16Zm0,5a1.5,1.5,0,0,1,0-3A1.5,1.5,0,0,1,46.5,21Z"/><path class="cls-1" d="M27,18.5A3.5,3.5,0,1,0,30.5,15,3.5,3.5,0,0,0,27,18.5ZM30.5,17a1.5,1.5,0,0,1,0,3A1.5,1.5,0,0,1,30.5,17Z"/><path class="cls-1" d="M44.5,40A3.5,3.5,0,1,0,48,43.5,3.5,3.5,0,0,0,44.5,40Zm0,5a1.5,1.5,0,0,1,0-3A1.5,1.5,0,0,1,44.5,45Z"/><path class="cls-1" d="M29.5,43A3.5,3.5,0,1,0,33,46.5,3.5,3.5,0,0,0,29.5,43Zm0,5a1.5,1.5,0,0,1,0-3A1.5,1.5,0,0,1,29.5,48Z"/><path class="cls-1" d="M16.5,45A3.5,3.5,0,1,0,13,41.5,3.5,3.5,0,0,0,16.5,45Zm0-5a1.5,1.5,0,0,1,0,3A1.5,1.5,0,0,1,16.5,40Z"/><path class="cls-1" d="M11,25.5A3.5,3.5,0,1,0,14.5,22,3.5,3.5,0,0,0,11,25.5ZM14.5,24a1.5,1.5,0,0,1,0,3A1.5,1.5,0,0,1,14.5,24Z"/><path class="cls-1" d="M47.29,11.71l2.5,2.5a1,1,0,0,0,1.42-1.42l-2.5-2.5A1,1,0,0,0,47.29,11.71Z"/><path class="cls-1" d="M42,38h4a1,1,0,0,0,0-2H42A1,1,0,0,0,42,38Z"/><path class="cls-1" d="M32.24,54l4-1A1,1,0,0,0,35.76,51l-4,1A1,1,0,0,0,32.24,54Z"/><path class="cls-1" d="M21.45,38.83a1,1,0,0,0,1.1-1.66l-3-2a1,1,0,0,0-1.1,1.66Z"/><path class="cls-1" d="M19.55,27.89C23.87,30.05,23.67,30,24,30a1,1,0,0,0,.45-1.89l-4-2A1,1,0,0,0,19.55,27.89Z"/><path class="cls-1" d="M27.55,12.11l-4,2A1,1,0,0,0,24,16c.34,0,.13.05,4.45-2.11A1,1,0,0,0,27.55,12.11Z"/></g></svg>