<svg xmlns="http://www.w3.org/2000/svg" viewBox="0 0 64 64"><defs><style>.cls-1{fill:#231f20;}</style></defs><title>Ramen</title><g id="Ramen"><path class="cls-1" d="M63.7,1.29C63.25.84,65.5,1,32,1.65V1a1,1,0,0,0-2,0v.69l-2,0V1a1,1,0,0,0-2,0v.77l-2,0V1a1,1,0,0,0-2,0v.85l-2,0V1a1,1,0,0,0-2,0v.94L15,2a1,1,0,0,0-1,1V9a1,1,0,0,0,1,1l3,.06V14a4,4,0,0,1-4,4,1,1,0,0,0-1,1c0,2.42,7,.5,7-5V10.1l2,.05V25.64c-.38.12-.75.26-1.11.41-3.7-4-9.23-6.4-13.14-4.25C4.24,23.74,3.31,28.62,3.9,33H1a1,1,0,0,0-1,1,24.94,24.94,0,0,0,.43,5.73A24,24,0,0,0,16,57.32V63a1,1,0,0,0,1,1H39a1,1,0,0,0,1-1V57.32A24.61,24.61,0,0,0,54,44.57,23,23,0,0,0,56,34a1,1,0,0,0-1-1H52.94C52.09,24.86,41.45,19.71,32,23V10.35L63,11a1,1,0,0,0,1-1C64,1.34,64.11,1.68,63.7,1.29ZM62,3V5H32V3.65ZM30,3.69V5H28V3.73ZM28,7h2V8.31l-2,0ZM26,8.23l-2,0V7h2Zm0-4.46V5H24V3.81Zm-4,.08V5H20V3.9ZM16,4l2,0V5H16Zm0,4V7h2V8.06Zm4,.08V7h2V8.15Zm4,2.09,2,0V25a13.27,13.27,0,0,0-2,.17ZM34.9,33H32.78C31.93,31,28.56,29,24,29c-1.25,0-.53.34-1.78-1.35C27.42,25.76,34,28.16,34.9,33Zm2,0a7.45,7.45,0,0,0-.38-1.53c3.55-1,7.89-.29,9.83,1.53Zm11.85,0c-1.26-3-7.56-5.17-13.14-3.32A9.2,9.2,0,0,0,34.12,28c6.15-2.61,13.4.54,14.72,5.05Zm-24.1,0a11,11,0,0,0-.58-2,9.47,9.47,0,0,1,6.28,2Zm-16-9.44c4.48-2.47,12.63,3.68,13.93,9.44H19.91C18.83,26.18,9.1,26.41,8.08,33H5.92C5.24,28.68,6.35,24.86,8.71,23.56ZM17.89,33H10.11A4,4,0,0,1,17.89,33ZM52.5,43H3.5a19,19,0,0,1-.7-2H53.2A19,19,0,0,1,52.5,43ZM38,62H18V58c4.39,1.24,7.41,1,12.55,1A27.41,27.41,0,0,0,38,58Zm-7.45-5c-7.14,0-7.76.2-13.28-1.36A22.79,22.79,0,0,1,4.44,45H51.56C47.46,52.63,39.13,57,30.55,57ZM54,35.43A19.36,19.36,0,0,1,53.66,39H2.34A19.82,19.82,0,0,1,2,35C59.47,35,54,34.79,54,35.43ZM50.93,33h0c-1.28-6.5-11.16-10.38-18.61-6.38a10.92,10.92,0,0,0-1.73-.8C38.61,21.44,50,25.41,50.93,33ZM30,23.83a15,15,0,0,0-2,1.24V10.27l2,0C30,24.86,30,23.55,30,23.83ZM62,9,32,8.35V7H62Z"/></g></svg>