<svg xmlns="http://www.w3.org/2000/svg" viewBox="0 0 64 64"><defs><style>.cls-1{fill:#231f20;}</style></defs><title>Salmon Steak</title><g id="Salmon_Steak" data-name="Salmon Steak"><path class="cls-1" d="M32,0A32,32,0,1,0,64,32,32,32,0,0,0,32,0Zm0,62A30,30,0,1,1,62,32,30,30,0,0,1,32,62Z"/><path class="cls-1" d="M40,13.07V12a1,1,0,0,0-2,0v.93a20,20,0,0,0-8.53-.76,6.88,6.88,0,0,0-6.54,2A20,20,0,0,0,12.71,26.7,7.94,7.94,0,0,0,12,30.76a19.79,19.79,0,0,0,5,14.48,1,1,0,0,0,.65.69,19.88,19.88,0,0,0,23.49,3.83A1.83,1.83,0,0,0,43,51c5.89,0,10-9,10-17C53,21.49,46.55,13.79,40,13.07ZM42.08,44.6a14.44,14.44,0,0,0-.95,2.9A17.23,17.23,0,0,1,37,49.3c.13-.78,0-2.18-1-4.69C33.14,38.12,37,31,39,31S44.84,38.16,42.08,44.6ZM14.4,35.71A8,8,0,0,0,19.49,38,10.87,10.87,0,0,0,17.4,42.5,17.73,17.73,0,0,1,14.4,35.71ZM32.91,14c.49,0,1,.07,1.48.14C33.17,14.79,33.76,14.86,32.91,14ZM38,15.09V25.18a3,3,0,0,0-1.27,4.75c-3.08,2.53-5.22,9.45-2.65,15.46,1,2.22,1,3.3.9,3.61-2.86,0-5.61-3.57-7-8.33v0C25,30.43,29.22,16.35,38,15.09ZM25.18,37a26.31,26.31,0,0,0,.79,4c-1.23,2.37-3.52,3.45-6.85,3.19C19.87,38.94,22.63,37.31,25.18,37Zm.39-9.14A32.74,32.74,0,0,0,25,33.26a6,6,0,1,1,.55-5.45Zm1.21,15.52A13.73,13.73,0,0,0,31.69,50a17.72,17.72,0,0,1-10.8-3.85A7.93,7.93,0,0,0,26.78,43.33ZM38,28a1,1,0,0,1,2,0A1,1,0,0,1,38,28ZM31.88,15.87a18.47,18.47,0,0,0-5.23,7.93,5,5,0,1,1,5.23-7.93ZM21.13,17.68a7,7,0,0,0,.66,4.55,7.7,7.7,0,0,0-5.23.56A18,18,0,0,1,21.13,17.68ZM43,49c-.19-.86.55-2.8.9-3.61,2.54-5.93.46-12.91-2.65-15.46A3,3,0,0,0,40,25.18V15.08c4.87.72,11,6.67,11,18.92C51,41.67,47.16,48.92,43,49Z"/><path class="cls-1" d="M19,26v2.27l-2-1.14a1,1,0,0,0-1,1.74L18,30l-2,1.13a1,1,0,0,0,.5,1.87c.35,0,.32,0,2.46-1.27V34a1,1,0,0,0,2,0V31.73C23.12,33,23.11,33,23.46,33a1,1,0,0,0,.5-1.87L22,30l2-1.13a1,1,0,0,0-1-1.74l-2,1.14V26A1,1,0,0,0,19,26Z"/></g></svg>