<svg xmlns="http://www.w3.org/2000/svg" viewBox="0 0 64 64"><defs><style>.cls-1{fill:#231f20;}</style></defs><title>Sandwitch</title><g id="Sandwitch"><path class="cls-1" d="M64,29.1a2.88,2.88,0,0,0-1.47-2.51l-28.17-16a4.89,4.89,0,0,0-4.72,0l-28.17,16A2.88,2.88,0,0,0,0,29.1c0,7.39-.22,7.66.67,8.77a2.55,2.55,0,0,0,.56,3.9A2.86,2.86,0,0,0,0,44.1V51a3,3,0,0,0,3,3H61a3,3,0,0,0,3-3V44.1a2.84,2.84,0,0,0-1.23-2.33,2.55,2.55,0,0,0,.56-3.9C64.22,36.76,64,36.47,64,29.1ZM61.42,39a.58.58,0,0,1,.08,1.16c-2.23.53-2.41,1.84-4.71,1.84-2.59,0-2.85-2-6.2-2s-3.6,2-6.21,2-2.79-2-6.19-2-3.61,2-6.2,2-2.84-2-6.2-2-3.59,2-6.2,2-2.84-2-6.2-2-3.59,2-6.2,2C4.91,42,4.7,40.68,2.5,40.16A.58.58,0,0,1,2.58,39Zm.13,4.33A.89.89,0,0,1,61.1,45H59a5.38,5.38,0,0,0,.88-1.78l.72-.45Zm-59.1,0c1.25-.71.76-.67,1.72-.11A5.38,5.38,0,0,0,5.05,45H2.9A.9.9,0,0,1,2.45,43.33ZM6.79,44c3.67.2,3.93-2,6.6-2,2.28,0,2.48,1.3,4.68,1.83a29.15,29.15,0,0,0,2.44,2.08C15.63,48.07,9.09,46.8,6.79,44Zm14.3-.15c2.21-.52,2.43-1.83,4.7-1.83,2.59,0,2.84,2,6.2,2s3.6-1.91,6-2a5.29,5.29,0,0,0,1.49,3.55C27.84,48.64,24.85,46.91,21.09,43.83Zm19-1.41C41.12,43,42,44,44.38,44c3.38,0,3.6-2,6.21-2s2.93,2.19,6.62,2C53.15,49,40.79,47.23,40,42.42ZM2,31.86c.81.26,59.32.16,59.78.05S62,31.25,62,36a1,1,0,0,1-1,1H3a1,1,0,0,1-1-1Zm.45-3.53C33.08,11,30.94,12,32,12s-1.15-1.07,29.55,16.33A.89.89,0,0,1,61.1,30H2.9A.9.9,0,0,1,2.45,28.33ZM62,51a1,1,0,0,1-1,1H3a1,1,0,0,1-1-1V46.86c.57.18.83.14,5.29.14a15.94,15.94,0,0,0,15.1.2,11.75,11.75,0,0,0,6.83,2A48.32,48.32,0,0,0,41.4,47.1c4.2,2.52,11,2.58,15.31-.1,4.91,0,4.58,0,5.07-.09C62.09,46.84,62,46.25,62,51Z"/></g></svg>