<svg xmlns="http://www.w3.org/2000/svg" viewBox="0 0 64 64"><defs><style>.cls-1{fill:#231f20;}</style></defs><title>Souce</title><g id="Souce"><path class="cls-1" d="M39.79,18.28l-.79-.4V14a1,1,0,0,0-1-1H35.85L34,1.84A1,1,0,0,0,33,1H31a1,1,0,0,0-1,.84L28.15,13H26a1,1,0,0,0-1,1v3.88l-.79.4A4,4,0,0,0,22,21.85V60a3,3,0,0,0,3,3H39a3,3,0,0,0,3-3V21.85A4,4,0,0,0,39.79,18.28ZM31.85,3c.44,0,.12-1.12,2,10H30.18ZM27,15H37v2H27ZM40,60a1,1,0,0,1-1,1H25a1,1,0,0,1-1-1V21.85C24,20.3,25.28,20,27.24,19h9.52c1.84.92,3.24,1.29,3.24,2.85Z"/><path class="cls-1" d="M61.79,18.28l-.79-.4V14a1,1,0,0,0-1-1H57.85L56,1.84A1,1,0,0,0,55,1H53a1,1,0,0,0-1,.84L50.15,13H48a1,1,0,0,0-1,1v3.88l-.79.4A4,4,0,0,0,44,21.85V60a3,3,0,0,0,3,3H61a3,3,0,0,0,3-3V21.85A4,4,0,0,0,61.79,18.28ZM53.85,3c.44,0,.12-1.12,2,10H52.18ZM49,15H59v2H49ZM62,60a1,1,0,0,1-1,1H47a1,1,0,0,1-1-1V21.85C46,20.3,47.28,20,49.24,19h9.52c1.84.92,3.24,1.29,3.24,2.85Z"/><path class="cls-1" d="M17.79,18.28l-.79-.4V14a1,1,0,0,0-1-1H13.85L12,1.84A1,1,0,0,0,11,1H9a1,1,0,0,0-1,.84L6.15,13H4a1,1,0,0,0-1,1v3.88l-.79.4A4,4,0,0,0,0,21.85V60a3,3,0,0,0,3,3H17a3,3,0,0,0,3-3V21.85A4,4,0,0,0,17.79,18.28ZM9.85,3c.44,0,.12-1.12,2,10H8.18ZM5,15H15v2H5ZM18,60a1,1,0,0,1-1,1H3a1,1,0,0,1-1-1V21.85C2,20.3,3.28,20,5.24,19h9.52c1.84.92,3.24,1.29,3.24,2.85Z"/></g></svg>