<svg xmlns="http://www.w3.org/2000/svg" viewBox="0 0 64 64"><defs><style>.cls-1{fill:#231f20;}</style></defs><title>Sapgetti</title><g id="Sapgetti"><path class="cls-1" d="M63,54H60a13,13,0,0,0-15-11.82,5,5,0,0,0-5.57-4.13A12.94,12.94,0,0,0,25,36.48V11h5a3,3,0,0,0,2.64-1.58A.93.93,0,0,1,33.46,9c29.72,0,28.46.34,29.65-.87A3,3,0,0,0,60.89,3C31.07,3,33,3.18,32.64,2.58A3,3,0,0,0,30,1H25a1,1,0,0,0-2,0H21a1,1,0,0,0-2,0H17a1,1,0,0,0-2,0,1,1,0,0,0,0,2V5a1,1,0,0,0,0,2V9a1,1,0,0,0,0,2c0,34.34,0,24.06,0,26a4.91,4.91,0,0,0-2,4.34A13,13,0,0,0,3,54H1a1,1,0,0,0-1,1.24A11.54,11.54,0,0,0,11.25,64h41.5A11.54,11.54,0,0,0,64,55.24,1,1,0,0,0,63,54Zm-5,0h-2a9,9,0,0,0-17.88,0h-2A11,11,0,0,1,58,54ZM51.9,54a5,5,0,0,0-9.8,0h-2a7,7,0,0,1,13.84,0Zm-2.08,0H44.18A3,3,0,0,1,49.82,54ZM17.2,54a3,3,0,1,1,5.6,0ZM9,54a7,7,0,0,1,10.65-6,5,5,0,0,0-2.73,1.06A5,5,0,0,0,11,54Zm15.92-9.43A7,7,0,0,1,37.67,46,14,14,0,0,0,36,48.11,5,5,0,0,0,26.41,46C26.07,46,26.24,45.82,24.92,44.57ZM34,48.07a13,13,0,0,0-5.32-2A3,3,0,0,1,34,48.07Zm.61,3a12.68,12.68,0,0,0-.5,2.39,9,9,0,0,0-9.84-3.06,4.94,4.94,0,0,0-1.48-1.57A10.91,10.91,0,0,1,34.6,51.09ZM13,54a3,3,0,0,1,2.39-2.94A5,5,0,0,0,15,53C15,54.26,15.64,54,13,54Zm11.93-1.69a7,7,0,0,1,7,1.69h-7A4.05,4.05,0,0,0,24.93,52.31Zm18-9.66a13,13,0,0,0-3.65,1.89,9,9,0,0,0-2-2.91A3,3,0,0,1,43,42.65Zm-5.81-3.76a5,5,0,0,0-1.4,1.48,9,9,0,0,0-12.4,2.91,11.82,11.82,0,0,0-1.73-1A11,11,0,0,1,37.15,38.89ZM23,37.76c-1.33,1-.16.65-2-.74V11h2ZM26,3a1,1,0,0,1,0,2H25V3Zm0,4a1,1,0,0,1,0,2H25V7ZM23,9H21V7h2Zm7.88-5.47A2.89,2.89,0,0,0,33.46,5H60.89a1,1,0,0,1,.8,1.71c-.42.44,1.44.29-28.23.29a2.89,2.89,0,0,0-2.58,1.47A1,1,0,0,1,30,9c-1.76,0-1,.25-1-1a3,3,0,0,0-.78-2A3,3,0,0,0,29,4c0-1.26-.75-1,1-1A1,1,0,0,1,30.88,3.53ZM23,3V5H21V3ZM17,3h2V5H17Zm0,4h2V9H17Zm0,4h2V36.11a4.81,4.81,0,0,0-2,0ZM15,41a3,3,0,0,1,5.81-1,12.46,12.46,0,0,0-1.08,1.6C16.6,40.63,15,41.2,15,41Zm8.91,5.38a12.42,12.42,0,0,0-2.13.72A9,9,0,0,0,7,54H5A11,11,0,0,1,23.91,46.38ZM52.75,62H11.25a9.55,9.55,0,0,1-8.88-6H61.63A9.55,9.55,0,0,1,52.75,62Z"/></g></svg>