<svg xmlns="http://www.w3.org/2000/svg" viewBox="0 0 64 64"><defs><style>.cls-1{fill:#231f20;}</style></defs><title>Tart</title><g id="Tart"><path class="cls-1" d="M63,57H60V44.41c2.4-.85,2-3.1,2-5.41a3,3,0,0,0-3-3H50V26.2c2.36-1.19,2-2.57,2-5.2a3,3,0,0,0-3-3H35V9a1,1,0,0,0-1-1c-1.2,0-1,.06-1-.18A3,3,0,0,0,35,5c0-1.28-1.52-3.62-2.18-4.57a1,1,0,0,0-1.64,0C30.52,1.38,29,3.72,29,5a3,3,0,0,0,2,2.82c0,.24.2.18-1,.18a1,1,0,0,0-1,1v9H15a3,3,0,0,0-3,3c0,2.15-.32,3.94,1.57,5,.61.33.43-.9.43,10H5a3,3,0,0,0-3,3c0,2.29-.43,4.54,2,5.41V57H1c-2.42,0-.5,7,5,7H58C63.52,64,65.41,57,63,57ZM32,2.85A7.36,7.36,0,0,1,33,5a1,1,0,0,1-2,0A7.48,7.48,0,0,1,32,2.85ZM31,10h2v8H31ZM14,21a1,1,0,0,1,1-1H49a1,1,0,0,1,1,1v2.33C50,24.52,47.7,25,46.49,25c-3.18,0-3.39-2-7.25-2S35.19,25,32,25s-3.39-2-7.25-2-4,2-7.25,2C16.28,25,14,24.52,14,23.34Zm2,5.87c4.61.81,5.41-1.87,8.74-1.87a5.57,5.57,0,0,1,3.15.88,8,8,0,0,0,8.21,0A5.65,5.65,0,0,1,39.24,25c3.52,0,4,2.71,8.76,1.87V36H16ZM4,39a1,1,0,0,1,1-1H59a1,1,0,0,1,1,1v2.6a1,1,0,0,1-1.43.9c-1.19-.56-2.22-1.5-4.82-1.5-3.86,0-4.06,2-7.26,2s-3.39-2-7.25-2S35.19,43,32,43s-3.39-2-7.25-2-4,2-7.25,2-3.4-2-7.24-2c-2.58,0-3.6.92-4.82,1.5A1,1,0,0,1,4,41.59Zm2,5.4c1.3-.47,3.61-2.61,7.39-.52a7.94,7.94,0,0,0,8.21,0A5.65,5.65,0,0,1,24.74,43a5.57,5.57,0,0,1,3.15.88,8,8,0,0,0,8.21,0A5.65,5.65,0,0,1,39.24,43a5.57,5.57,0,0,1,3.15.88,8,8,0,0,0,8.21,0c3.76-2.07,6.11.06,7.4.52V57H6ZM58,62H6a4,4,0,0,1-3.87-3H61.87A4,4,0,0,1,58,62Z"/><path class="cls-1" d="M32,48a3,3,0,1,0,3,3A3,3,0,0,0,32,48Zm0,4a1,1,0,0,1,0-2A1,1,0,0,1,32,52Z"/><path class="cls-1" d="M22,48a3,3,0,1,0,3,3A3,3,0,0,0,22,48Zm0,4a1,1,0,0,1,0-2A1,1,0,0,1,22,52Z"/><path class="cls-1" d="M12,48a3,3,0,1,0,3,3A3,3,0,0,0,12,48Zm0,4a1,1,0,0,1,0-2A1,1,0,0,1,12,52Z"/><path class="cls-1" d="M42,48a3,3,0,1,0,3,3A3,3,0,0,0,42,48Zm0,4a1,1,0,0,1,0-2A1,1,0,0,1,42,52Z"/><path class="cls-1" d="M32,28a3,3,0,1,0,3,3A3,3,0,0,0,32,28Zm0,4a1,1,0,0,1,0-2A1,1,0,0,1,32,32Z"/><path class="cls-1" d="M22,28a3,3,0,1,0,3,3A3,3,0,0,0,22,28Zm0,4a1,1,0,0,1,0-2A1,1,0,0,1,22,32Z"/><path class="cls-1" d="M42,28a3,3,0,1,0,3,3A3,3,0,0,0,42,28Zm0,4a1,1,0,0,1,0-2A1,1,0,0,1,42,32Z"/><path class="cls-1" d="M52,48a3,3,0,1,0,3,3A3,3,0,0,0,52,48Zm0,4a1,1,0,0,1,0-2A1,1,0,0,1,52,52Z"/></g></svg>