<svg xmlns="http://www.w3.org/2000/svg" viewBox="0 0 64 64"><defs><style>.cls-1{fill:#231f20;}</style></defs><title>Wine</title><g id="Wine"><path class="cls-1" d="M25,19.36V6a1,1,0,0,0,0-2V1a1,1,0,0,0-1-1H16a1,1,0,0,0-1,1V4a1,1,0,0,0,0,2V19.36A12.53,12.53,0,0,0,8,30.62V63a1,1,0,0,0,1,1H31a1,1,0,0,0,1-1V30.62A12.53,12.53,0,0,0,25,19.36ZM17,2h6V4H17Zm6,4v7H17V6Zm7,51H10V35H30ZM10,62V59H30v3ZM30,33H10V30.62a10.54,10.54,0,0,1,6.39-9.7c.84-.36.61-.83.61-5.92h6c0,5.25-.2,5.57.61,5.92A10.54,10.54,0,0,1,30,30.62Z"/><path class="cls-1" d="M52,62H49a2,2,0,0,1-2-2V48.86a12.65,12.65,0,0,0,9-12,27.91,27.91,0,0,0-1.35-9.25,1,1,0,0,0-.94-.64c-16.53,0-16-.26-16.36.64A27.91,27.91,0,0,0,36,36.89a12.65,12.65,0,0,0,9,12V60a2,2,0,0,1-2,2H40a1,1,0,0,0,0,2H52A1,1,0,0,0,52,62ZM38,36.89A29.11,29.11,0,0,1,39,29H53a29.11,29.11,0,0,1,1,7.89C54,43.41,48,47,46,47S38,43.41,38,36.89Z"/></g></svg>